%TF.GenerationSoftware,KiCad,Pcbnew,10.0.4*%
%TF.CreationDate,2026-07-07T22:15:55+02:00*%
%TF.ProjectId,Stadion_rychlomer,53746164-696f-46e5-9f72-7963686c6f6d,rev?*%
%TF.SameCoordinates,Original*%
%TF.FileFunction,Legend,Bot*%
%TF.FilePolarity,Positive*%
%FSLAX46Y46*%
G04 Gerber Fmt 4.6, Leading zero omitted, Abs format (unit mm)*
G04 Created by KiCad (PCBNEW 10.0.4) date 2026-07-07 22:15:55*
%MOMM*%
%LPD*%
G01*
G04 APERTURE LIST*
%ADD10C,0.100000*%
G04 APERTURE END LIST*
D10*
X102837942Y-144980639D02*
X102933180Y-144933020D01*
X102933180Y-144933020D02*
X103076037Y-144933020D01*
X103076037Y-144933020D02*
X103218894Y-144980639D01*
X103218894Y-144980639D02*
X103314132Y-145075877D01*
X103314132Y-145075877D02*
X103361751Y-145171115D01*
X103361751Y-145171115D02*
X103409370Y-145361591D01*
X103409370Y-145361591D02*
X103409370Y-145504448D01*
X103409370Y-145504448D02*
X103361751Y-145694924D01*
X103361751Y-145694924D02*
X103314132Y-145790162D01*
X103314132Y-145790162D02*
X103218894Y-145885401D01*
X103218894Y-145885401D02*
X103076037Y-145933020D01*
X103076037Y-145933020D02*
X102980799Y-145933020D01*
X102980799Y-145933020D02*
X102837942Y-145885401D01*
X102837942Y-145885401D02*
X102790323Y-145837781D01*
X102790323Y-145837781D02*
X102790323Y-145504448D01*
X102790323Y-145504448D02*
X102980799Y-145504448D01*
X102361751Y-145933020D02*
X102361751Y-144933020D01*
X102361751Y-144933020D02*
X101790323Y-145933020D01*
X101790323Y-145933020D02*
X101790323Y-144933020D01*
X101314132Y-145933020D02*
X101314132Y-144933020D01*
X101314132Y-144933020D02*
X101076037Y-144933020D01*
X101076037Y-144933020D02*
X100933180Y-144980639D01*
X100933180Y-144980639D02*
X100837942Y-145075877D01*
X100837942Y-145075877D02*
X100790323Y-145171115D01*
X100790323Y-145171115D02*
X100742704Y-145361591D01*
X100742704Y-145361591D02*
X100742704Y-145504448D01*
X100742704Y-145504448D02*
X100790323Y-145694924D01*
X100790323Y-145694924D02*
X100837942Y-145790162D01*
X100837942Y-145790162D02*
X100933180Y-145885401D01*
X100933180Y-145885401D02*
X101076037Y-145933020D01*
X101076037Y-145933020D02*
X101314132Y-145933020D01*
X103681982Y-139604913D02*
X102920078Y-139604913D01*
X103301030Y-139985866D02*
X103301030Y-139223961D01*
X101967697Y-138985866D02*
X102443887Y-138985866D01*
X102443887Y-138985866D02*
X102491506Y-139462056D01*
X102491506Y-139462056D02*
X102443887Y-139414437D01*
X102443887Y-139414437D02*
X102348649Y-139366818D01*
X102348649Y-139366818D02*
X102110554Y-139366818D01*
X102110554Y-139366818D02*
X102015316Y-139414437D01*
X102015316Y-139414437D02*
X101967697Y-139462056D01*
X101967697Y-139462056D02*
X101920078Y-139557294D01*
X101920078Y-139557294D02*
X101920078Y-139795389D01*
X101920078Y-139795389D02*
X101967697Y-139890627D01*
X101967697Y-139890627D02*
X102015316Y-139938247D01*
X102015316Y-139938247D02*
X102110554Y-139985866D01*
X102110554Y-139985866D02*
X102348649Y-139985866D01*
X102348649Y-139985866D02*
X102443887Y-139938247D01*
X102443887Y-139938247D02*
X102491506Y-139890627D01*
X101634363Y-138985866D02*
X101301030Y-139985866D01*
X101301030Y-139985866D02*
X100967697Y-138985866D01*
X111967562Y-125555658D02*
X112300895Y-125079467D01*
X112538990Y-125555658D02*
X112538990Y-124555658D01*
X112538990Y-124555658D02*
X112158038Y-124555658D01*
X112158038Y-124555658D02*
X112062800Y-124603277D01*
X112062800Y-124603277D02*
X112015181Y-124650896D01*
X112015181Y-124650896D02*
X111967562Y-124746134D01*
X111967562Y-124746134D02*
X111967562Y-124888991D01*
X111967562Y-124888991D02*
X112015181Y-124984229D01*
X112015181Y-124984229D02*
X112062800Y-125031848D01*
X112062800Y-125031848D02*
X112158038Y-125079467D01*
X112158038Y-125079467D02*
X112538990Y-125079467D01*
X111538990Y-125555658D02*
X111538990Y-124555658D01*
X111538990Y-124555658D02*
X111158038Y-124555658D01*
X111158038Y-124555658D02*
X111062800Y-124603277D01*
X111062800Y-124603277D02*
X111015181Y-124650896D01*
X111015181Y-124650896D02*
X110967562Y-124746134D01*
X110967562Y-124746134D02*
X110967562Y-124888991D01*
X110967562Y-124888991D02*
X111015181Y-124984229D01*
X111015181Y-124984229D02*
X111062800Y-125031848D01*
X111062800Y-125031848D02*
X111158038Y-125079467D01*
X111158038Y-125079467D02*
X111538990Y-125079467D01*
X110538990Y-125555658D02*
X110538990Y-124555658D01*
X110538990Y-124555658D02*
X110205657Y-125269943D01*
X110205657Y-125269943D02*
X109872324Y-124555658D01*
X109872324Y-124555658D02*
X109872324Y-125555658D01*
X116455195Y-164919382D02*
X116312338Y-164967001D01*
X116312338Y-164967001D02*
X116074243Y-164967001D01*
X116074243Y-164967001D02*
X115979005Y-164919382D01*
X115979005Y-164919382D02*
X115931386Y-164871762D01*
X115931386Y-164871762D02*
X115883767Y-164776524D01*
X115883767Y-164776524D02*
X115883767Y-164681286D01*
X115883767Y-164681286D02*
X115931386Y-164586048D01*
X115931386Y-164586048D02*
X115979005Y-164538429D01*
X115979005Y-164538429D02*
X116074243Y-164490810D01*
X116074243Y-164490810D02*
X116264719Y-164443191D01*
X116264719Y-164443191D02*
X116359957Y-164395572D01*
X116359957Y-164395572D02*
X116407576Y-164347953D01*
X116407576Y-164347953D02*
X116455195Y-164252715D01*
X116455195Y-164252715D02*
X116455195Y-164157477D01*
X116455195Y-164157477D02*
X116407576Y-164062239D01*
X116407576Y-164062239D02*
X116359957Y-164014620D01*
X116359957Y-164014620D02*
X116264719Y-163967001D01*
X116264719Y-163967001D02*
X116026624Y-163967001D01*
X116026624Y-163967001D02*
X115883767Y-164014620D01*
X115455195Y-164967001D02*
X115455195Y-163967001D01*
X115455195Y-163967001D02*
X115074243Y-163967001D01*
X115074243Y-163967001D02*
X114979005Y-164014620D01*
X114979005Y-164014620D02*
X114931386Y-164062239D01*
X114931386Y-164062239D02*
X114883767Y-164157477D01*
X114883767Y-164157477D02*
X114883767Y-164300334D01*
X114883767Y-164300334D02*
X114931386Y-164395572D01*
X114931386Y-164395572D02*
X114979005Y-164443191D01*
X114979005Y-164443191D02*
X115074243Y-164490810D01*
X115074243Y-164490810D02*
X115455195Y-164490810D01*
X114455195Y-164967001D02*
X114455195Y-163967001D01*
X114359957Y-163586048D02*
X114502814Y-163728905D01*
X113979005Y-164967001D02*
X113979005Y-163967001D01*
X113979005Y-163967001D02*
X113740910Y-163967001D01*
X113740910Y-163967001D02*
X113598053Y-164014620D01*
X113598053Y-164014620D02*
X113502815Y-164109858D01*
X113502815Y-164109858D02*
X113455196Y-164205096D01*
X113455196Y-164205096D02*
X113407577Y-164395572D01*
X113407577Y-164395572D02*
X113407577Y-164538429D01*
X113407577Y-164538429D02*
X113455196Y-164728905D01*
X113455196Y-164728905D02*
X113502815Y-164824143D01*
X113502815Y-164824143D02*
X113598053Y-164919382D01*
X113598053Y-164919382D02*
X113740910Y-164967001D01*
X113740910Y-164967001D02*
X113979005Y-164967001D01*
X119446329Y-129203435D02*
X119541567Y-129155816D01*
X119541567Y-129155816D02*
X119684424Y-129155816D01*
X119684424Y-129155816D02*
X119827281Y-129203435D01*
X119827281Y-129203435D02*
X119922519Y-129298673D01*
X119922519Y-129298673D02*
X119970138Y-129393911D01*
X119970138Y-129393911D02*
X120017757Y-129584387D01*
X120017757Y-129584387D02*
X120017757Y-129727244D01*
X120017757Y-129727244D02*
X119970138Y-129917720D01*
X119970138Y-129917720D02*
X119922519Y-130012958D01*
X119922519Y-130012958D02*
X119827281Y-130108197D01*
X119827281Y-130108197D02*
X119684424Y-130155816D01*
X119684424Y-130155816D02*
X119589186Y-130155816D01*
X119589186Y-130155816D02*
X119446329Y-130108197D01*
X119446329Y-130108197D02*
X119398710Y-130060577D01*
X119398710Y-130060577D02*
X119398710Y-129727244D01*
X119398710Y-129727244D02*
X119589186Y-129727244D01*
X118970138Y-130155816D02*
X118970138Y-129155816D01*
X118970138Y-129155816D02*
X118398710Y-130155816D01*
X118398710Y-130155816D02*
X118398710Y-129155816D01*
X117922519Y-130155816D02*
X117922519Y-129155816D01*
X117922519Y-129155816D02*
X117684424Y-129155816D01*
X117684424Y-129155816D02*
X117541567Y-129203435D01*
X117541567Y-129203435D02*
X117446329Y-129298673D01*
X117446329Y-129298673D02*
X117398710Y-129393911D01*
X117398710Y-129393911D02*
X117351091Y-129584387D01*
X117351091Y-129584387D02*
X117351091Y-129727244D01*
X117351091Y-129727244D02*
X117398710Y-129917720D01*
X117398710Y-129917720D02*
X117446329Y-130012958D01*
X117446329Y-130012958D02*
X117541567Y-130108197D01*
X117541567Y-130108197D02*
X117684424Y-130155816D01*
X117684424Y-130155816D02*
X117922519Y-130155816D01*
X115684424Y-129155816D02*
X116160614Y-129155816D01*
X116160614Y-129155816D02*
X116208233Y-129632006D01*
X116208233Y-129632006D02*
X116160614Y-129584387D01*
X116160614Y-129584387D02*
X116065376Y-129536768D01*
X116065376Y-129536768D02*
X115827281Y-129536768D01*
X115827281Y-129536768D02*
X115732043Y-129584387D01*
X115732043Y-129584387D02*
X115684424Y-129632006D01*
X115684424Y-129632006D02*
X115636805Y-129727244D01*
X115636805Y-129727244D02*
X115636805Y-129965339D01*
X115636805Y-129965339D02*
X115684424Y-130060577D01*
X115684424Y-130060577D02*
X115732043Y-130108197D01*
X115732043Y-130108197D02*
X115827281Y-130155816D01*
X115827281Y-130155816D02*
X116065376Y-130155816D01*
X116065376Y-130155816D02*
X116160614Y-130108197D01*
X116160614Y-130108197D02*
X116208233Y-130060577D01*
X115351090Y-129155816D02*
X115017757Y-130155816D01*
X115017757Y-130155816D02*
X114684424Y-129155816D01*
X121621563Y-165046604D02*
X121621563Y-164046604D01*
X121621563Y-164046604D02*
X121240611Y-164046604D01*
X121240611Y-164046604D02*
X121145373Y-164094223D01*
X121145373Y-164094223D02*
X121097754Y-164141842D01*
X121097754Y-164141842D02*
X121050135Y-164237080D01*
X121050135Y-164237080D02*
X121050135Y-164379937D01*
X121050135Y-164379937D02*
X121097754Y-164475175D01*
X121097754Y-164475175D02*
X121145373Y-164522794D01*
X121145373Y-164522794D02*
X121240611Y-164570413D01*
X121240611Y-164570413D02*
X121621563Y-164570413D01*
X120716801Y-164046604D02*
X120478706Y-165046604D01*
X120478706Y-165046604D02*
X120288230Y-164332318D01*
X120288230Y-164332318D02*
X120097754Y-165046604D01*
X120097754Y-165046604D02*
X119859659Y-164046604D01*
X118907278Y-165046604D02*
X119240611Y-164570413D01*
X119478706Y-165046604D02*
X119478706Y-164046604D01*
X119478706Y-164046604D02*
X119097754Y-164046604D01*
X119097754Y-164046604D02*
X119002516Y-164094223D01*
X119002516Y-164094223D02*
X118954897Y-164141842D01*
X118954897Y-164141842D02*
X118907278Y-164237080D01*
X118907278Y-164237080D02*
X118907278Y-164379937D01*
X118907278Y-164379937D02*
X118954897Y-164475175D01*
X118954897Y-164475175D02*
X119002516Y-164522794D01*
X119002516Y-164522794D02*
X119097754Y-164570413D01*
X119097754Y-164570413D02*
X119478706Y-164570413D01*
X123406492Y-134198935D02*
X123263635Y-134246554D01*
X123263635Y-134246554D02*
X123025540Y-134246554D01*
X123025540Y-134246554D02*
X122930302Y-134198935D01*
X122930302Y-134198935D02*
X122882683Y-134151315D01*
X122882683Y-134151315D02*
X122835064Y-134056077D01*
X122835064Y-134056077D02*
X122835064Y-133960839D01*
X122835064Y-133960839D02*
X122882683Y-133865601D01*
X122882683Y-133865601D02*
X122930302Y-133817982D01*
X122930302Y-133817982D02*
X123025540Y-133770363D01*
X123025540Y-133770363D02*
X123216016Y-133722744D01*
X123216016Y-133722744D02*
X123311254Y-133675125D01*
X123311254Y-133675125D02*
X123358873Y-133627506D01*
X123358873Y-133627506D02*
X123406492Y-133532268D01*
X123406492Y-133532268D02*
X123406492Y-133437030D01*
X123406492Y-133437030D02*
X123358873Y-133341792D01*
X123358873Y-133341792D02*
X123311254Y-133294173D01*
X123311254Y-133294173D02*
X123216016Y-133246554D01*
X123216016Y-133246554D02*
X122977921Y-133246554D01*
X122977921Y-133246554D02*
X122835064Y-133294173D01*
X122406492Y-134246554D02*
X122406492Y-133246554D01*
X122406492Y-133246554D02*
X122168397Y-133246554D01*
X122168397Y-133246554D02*
X122025540Y-133294173D01*
X122025540Y-133294173D02*
X121930302Y-133389411D01*
X121930302Y-133389411D02*
X121882683Y-133484649D01*
X121882683Y-133484649D02*
X121835064Y-133675125D01*
X121835064Y-133675125D02*
X121835064Y-133817982D01*
X121835064Y-133817982D02*
X121882683Y-134008458D01*
X121882683Y-134008458D02*
X121930302Y-134103696D01*
X121930302Y-134103696D02*
X122025540Y-134198935D01*
X122025540Y-134198935D02*
X122168397Y-134246554D01*
X122168397Y-134246554D02*
X122406492Y-134246554D01*
X121454111Y-133960839D02*
X120977921Y-133960839D01*
X121549349Y-134246554D02*
X121216016Y-133246554D01*
X121216016Y-133246554D02*
X120882683Y-134246554D01*
X119835063Y-134198935D02*
X119692206Y-134246554D01*
X119692206Y-134246554D02*
X119454111Y-134246554D01*
X119454111Y-134246554D02*
X119358873Y-134198935D01*
X119358873Y-134198935D02*
X119311254Y-134151315D01*
X119311254Y-134151315D02*
X119263635Y-134056077D01*
X119263635Y-134056077D02*
X119263635Y-133960839D01*
X119263635Y-133960839D02*
X119311254Y-133865601D01*
X119311254Y-133865601D02*
X119358873Y-133817982D01*
X119358873Y-133817982D02*
X119454111Y-133770363D01*
X119454111Y-133770363D02*
X119644587Y-133722744D01*
X119644587Y-133722744D02*
X119739825Y-133675125D01*
X119739825Y-133675125D02*
X119787444Y-133627506D01*
X119787444Y-133627506D02*
X119835063Y-133532268D01*
X119835063Y-133532268D02*
X119835063Y-133437030D01*
X119835063Y-133437030D02*
X119787444Y-133341792D01*
X119787444Y-133341792D02*
X119739825Y-133294173D01*
X119739825Y-133294173D02*
X119644587Y-133246554D01*
X119644587Y-133246554D02*
X119406492Y-133246554D01*
X119406492Y-133246554D02*
X119263635Y-133294173D01*
X118263635Y-134151315D02*
X118311254Y-134198935D01*
X118311254Y-134198935D02*
X118454111Y-134246554D01*
X118454111Y-134246554D02*
X118549349Y-134246554D01*
X118549349Y-134246554D02*
X118692206Y-134198935D01*
X118692206Y-134198935D02*
X118787444Y-134103696D01*
X118787444Y-134103696D02*
X118835063Y-134008458D01*
X118835063Y-134008458D02*
X118882682Y-133817982D01*
X118882682Y-133817982D02*
X118882682Y-133675125D01*
X118882682Y-133675125D02*
X118835063Y-133484649D01*
X118835063Y-133484649D02*
X118787444Y-133389411D01*
X118787444Y-133389411D02*
X118692206Y-133294173D01*
X118692206Y-133294173D02*
X118549349Y-133246554D01*
X118549349Y-133246554D02*
X118454111Y-133246554D01*
X118454111Y-133246554D02*
X118311254Y-133294173D01*
X118311254Y-133294173D02*
X118263635Y-133341792D01*
X117358873Y-134246554D02*
X117835063Y-134246554D01*
X117835063Y-134246554D02*
X117835063Y-133246554D01*
X115787444Y-133246554D02*
X116263634Y-133246554D01*
X116263634Y-133246554D02*
X116311253Y-133722744D01*
X116311253Y-133722744D02*
X116263634Y-133675125D01*
X116263634Y-133675125D02*
X116168396Y-133627506D01*
X116168396Y-133627506D02*
X115930301Y-133627506D01*
X115930301Y-133627506D02*
X115835063Y-133675125D01*
X115835063Y-133675125D02*
X115787444Y-133722744D01*
X115787444Y-133722744D02*
X115739825Y-133817982D01*
X115739825Y-133817982D02*
X115739825Y-134056077D01*
X115739825Y-134056077D02*
X115787444Y-134151315D01*
X115787444Y-134151315D02*
X115835063Y-134198935D01*
X115835063Y-134198935D02*
X115930301Y-134246554D01*
X115930301Y-134246554D02*
X116168396Y-134246554D01*
X116168396Y-134246554D02*
X116263634Y-134198935D01*
X116263634Y-134198935D02*
X116311253Y-134151315D01*
X115454110Y-133246554D02*
X115120777Y-134246554D01*
X115120777Y-134246554D02*
X114787444Y-133246554D01*
X113168396Y-133294173D02*
X113263634Y-133246554D01*
X113263634Y-133246554D02*
X113406491Y-133246554D01*
X113406491Y-133246554D02*
X113549348Y-133294173D01*
X113549348Y-133294173D02*
X113644586Y-133389411D01*
X113644586Y-133389411D02*
X113692205Y-133484649D01*
X113692205Y-133484649D02*
X113739824Y-133675125D01*
X113739824Y-133675125D02*
X113739824Y-133817982D01*
X113739824Y-133817982D02*
X113692205Y-134008458D01*
X113692205Y-134008458D02*
X113644586Y-134103696D01*
X113644586Y-134103696D02*
X113549348Y-134198935D01*
X113549348Y-134198935D02*
X113406491Y-134246554D01*
X113406491Y-134246554D02*
X113311253Y-134246554D01*
X113311253Y-134246554D02*
X113168396Y-134198935D01*
X113168396Y-134198935D02*
X113120777Y-134151315D01*
X113120777Y-134151315D02*
X113120777Y-133817982D01*
X113120777Y-133817982D02*
X113311253Y-133817982D01*
X112692205Y-134246554D02*
X112692205Y-133246554D01*
X112692205Y-133246554D02*
X112120777Y-134246554D01*
X112120777Y-134246554D02*
X112120777Y-133246554D01*
X111644586Y-134246554D02*
X111644586Y-133246554D01*
X111644586Y-133246554D02*
X111406491Y-133246554D01*
X111406491Y-133246554D02*
X111263634Y-133294173D01*
X111263634Y-133294173D02*
X111168396Y-133389411D01*
X111168396Y-133389411D02*
X111120777Y-133484649D01*
X111120777Y-133484649D02*
X111073158Y-133675125D01*
X111073158Y-133675125D02*
X111073158Y-133817982D01*
X111073158Y-133817982D02*
X111120777Y-134008458D01*
X111120777Y-134008458D02*
X111168396Y-134103696D01*
X111168396Y-134103696D02*
X111263634Y-134198935D01*
X111263634Y-134198935D02*
X111406491Y-134246554D01*
X111406491Y-134246554D02*
X111644586Y-134246554D01*
X124982482Y-159312069D02*
X125077720Y-159264450D01*
X125077720Y-159264450D02*
X125220577Y-159264450D01*
X125220577Y-159264450D02*
X125363434Y-159312069D01*
X125363434Y-159312069D02*
X125458672Y-159407307D01*
X125458672Y-159407307D02*
X125506291Y-159502545D01*
X125506291Y-159502545D02*
X125553910Y-159693021D01*
X125553910Y-159693021D02*
X125553910Y-159835878D01*
X125553910Y-159835878D02*
X125506291Y-160026354D01*
X125506291Y-160026354D02*
X125458672Y-160121592D01*
X125458672Y-160121592D02*
X125363434Y-160216831D01*
X125363434Y-160216831D02*
X125220577Y-160264450D01*
X125220577Y-160264450D02*
X125125339Y-160264450D01*
X125125339Y-160264450D02*
X124982482Y-160216831D01*
X124982482Y-160216831D02*
X124934863Y-160169211D01*
X124934863Y-160169211D02*
X124934863Y-159835878D01*
X124934863Y-159835878D02*
X125125339Y-159835878D01*
X124506291Y-160264450D02*
X124506291Y-159264450D01*
X124506291Y-159264450D02*
X123934863Y-160264450D01*
X123934863Y-160264450D02*
X123934863Y-159264450D01*
X123458672Y-160264450D02*
X123458672Y-159264450D01*
X123458672Y-159264450D02*
X123220577Y-159264450D01*
X123220577Y-159264450D02*
X123077720Y-159312069D01*
X123077720Y-159312069D02*
X122982482Y-159407307D01*
X122982482Y-159407307D02*
X122934863Y-159502545D01*
X122934863Y-159502545D02*
X122887244Y-159693021D01*
X122887244Y-159693021D02*
X122887244Y-159835878D01*
X122887244Y-159835878D02*
X122934863Y-160026354D01*
X122934863Y-160026354D02*
X122982482Y-160121592D01*
X122982482Y-160121592D02*
X123077720Y-160216831D01*
X123077720Y-160216831D02*
X123220577Y-160264450D01*
X123220577Y-160264450D02*
X123458672Y-160264450D01*
X121839624Y-159264450D02*
X121506291Y-160264450D01*
X121506291Y-160264450D02*
X121172958Y-159264450D01*
X120268196Y-160169211D02*
X120315815Y-160216831D01*
X120315815Y-160216831D02*
X120458672Y-160264450D01*
X120458672Y-160264450D02*
X120553910Y-160264450D01*
X120553910Y-160264450D02*
X120696767Y-160216831D01*
X120696767Y-160216831D02*
X120792005Y-160121592D01*
X120792005Y-160121592D02*
X120839624Y-160026354D01*
X120839624Y-160026354D02*
X120887243Y-159835878D01*
X120887243Y-159835878D02*
X120887243Y-159693021D01*
X120887243Y-159693021D02*
X120839624Y-159502545D01*
X120839624Y-159502545D02*
X120792005Y-159407307D01*
X120792005Y-159407307D02*
X120696767Y-159312069D01*
X120696767Y-159312069D02*
X120553910Y-159264450D01*
X120553910Y-159264450D02*
X120458672Y-159264450D01*
X120458672Y-159264450D02*
X120315815Y-159312069D01*
X120315815Y-159312069D02*
X120268196Y-159359688D01*
X119268196Y-160169211D02*
X119315815Y-160216831D01*
X119315815Y-160216831D02*
X119458672Y-160264450D01*
X119458672Y-160264450D02*
X119553910Y-160264450D01*
X119553910Y-160264450D02*
X119696767Y-160216831D01*
X119696767Y-160216831D02*
X119792005Y-160121592D01*
X119792005Y-160121592D02*
X119839624Y-160026354D01*
X119839624Y-160026354D02*
X119887243Y-159835878D01*
X119887243Y-159835878D02*
X119887243Y-159693021D01*
X119887243Y-159693021D02*
X119839624Y-159502545D01*
X119839624Y-159502545D02*
X119792005Y-159407307D01*
X119792005Y-159407307D02*
X119696767Y-159312069D01*
X119696767Y-159312069D02*
X119553910Y-159264450D01*
X119553910Y-159264450D02*
X119458672Y-159264450D01*
X119458672Y-159264450D02*
X119315815Y-159312069D01*
X119315815Y-159312069D02*
X119268196Y-159359688D01*
X117601529Y-159264450D02*
X118077719Y-159264450D01*
X118077719Y-159264450D02*
X118125338Y-159740640D01*
X118125338Y-159740640D02*
X118077719Y-159693021D01*
X118077719Y-159693021D02*
X117982481Y-159645402D01*
X117982481Y-159645402D02*
X117744386Y-159645402D01*
X117744386Y-159645402D02*
X117649148Y-159693021D01*
X117649148Y-159693021D02*
X117601529Y-159740640D01*
X117601529Y-159740640D02*
X117553910Y-159835878D01*
X117553910Y-159835878D02*
X117553910Y-160073973D01*
X117553910Y-160073973D02*
X117601529Y-160169211D01*
X117601529Y-160169211D02*
X117649148Y-160216831D01*
X117649148Y-160216831D02*
X117744386Y-160264450D01*
X117744386Y-160264450D02*
X117982481Y-160264450D01*
X117982481Y-160264450D02*
X118077719Y-160216831D01*
X118077719Y-160216831D02*
X118125338Y-160169211D01*
X117268195Y-159264450D02*
X116934862Y-160264450D01*
X116934862Y-160264450D02*
X116601529Y-159264450D01*
X115553909Y-160216831D02*
X115411052Y-160264450D01*
X115411052Y-160264450D02*
X115172957Y-160264450D01*
X115172957Y-160264450D02*
X115077719Y-160216831D01*
X115077719Y-160216831D02*
X115030100Y-160169211D01*
X115030100Y-160169211D02*
X114982481Y-160073973D01*
X114982481Y-160073973D02*
X114982481Y-159978735D01*
X114982481Y-159978735D02*
X115030100Y-159883497D01*
X115030100Y-159883497D02*
X115077719Y-159835878D01*
X115077719Y-159835878D02*
X115172957Y-159788259D01*
X115172957Y-159788259D02*
X115363433Y-159740640D01*
X115363433Y-159740640D02*
X115458671Y-159693021D01*
X115458671Y-159693021D02*
X115506290Y-159645402D01*
X115506290Y-159645402D02*
X115553909Y-159550164D01*
X115553909Y-159550164D02*
X115553909Y-159454926D01*
X115553909Y-159454926D02*
X115506290Y-159359688D01*
X115506290Y-159359688D02*
X115458671Y-159312069D01*
X115458671Y-159312069D02*
X115363433Y-159264450D01*
X115363433Y-159264450D02*
X115125338Y-159264450D01*
X115125338Y-159264450D02*
X114982481Y-159312069D01*
X114553909Y-160264450D02*
X114553909Y-159264450D01*
X114553909Y-159264450D02*
X114172957Y-159264450D01*
X114172957Y-159264450D02*
X114077719Y-159312069D01*
X114077719Y-159312069D02*
X114030100Y-159359688D01*
X114030100Y-159359688D02*
X113982481Y-159454926D01*
X113982481Y-159454926D02*
X113982481Y-159597783D01*
X113982481Y-159597783D02*
X114030100Y-159693021D01*
X114030100Y-159693021D02*
X114077719Y-159740640D01*
X114077719Y-159740640D02*
X114172957Y-159788259D01*
X114172957Y-159788259D02*
X114553909Y-159788259D01*
X113553909Y-160264450D02*
X113553909Y-159264450D01*
X113553909Y-159264450D02*
X113315814Y-159264450D01*
X113315814Y-159264450D02*
X113172957Y-159312069D01*
X113172957Y-159312069D02*
X113077719Y-159407307D01*
X113077719Y-159407307D02*
X113030100Y-159502545D01*
X113030100Y-159502545D02*
X112982481Y-159693021D01*
X112982481Y-159693021D02*
X112982481Y-159835878D01*
X112982481Y-159835878D02*
X113030100Y-160026354D01*
X113030100Y-160026354D02*
X113077719Y-160121592D01*
X113077719Y-160121592D02*
X113172957Y-160216831D01*
X113172957Y-160216831D02*
X113315814Y-160264450D01*
X113315814Y-160264450D02*
X113553909Y-160264450D01*
X111268195Y-159312069D02*
X111363433Y-159264450D01*
X111363433Y-159264450D02*
X111506290Y-159264450D01*
X111506290Y-159264450D02*
X111649147Y-159312069D01*
X111649147Y-159312069D02*
X111744385Y-159407307D01*
X111744385Y-159407307D02*
X111792004Y-159502545D01*
X111792004Y-159502545D02*
X111839623Y-159693021D01*
X111839623Y-159693021D02*
X111839623Y-159835878D01*
X111839623Y-159835878D02*
X111792004Y-160026354D01*
X111792004Y-160026354D02*
X111744385Y-160121592D01*
X111744385Y-160121592D02*
X111649147Y-160216831D01*
X111649147Y-160216831D02*
X111506290Y-160264450D01*
X111506290Y-160264450D02*
X111411052Y-160264450D01*
X111411052Y-160264450D02*
X111268195Y-160216831D01*
X111268195Y-160216831D02*
X111220576Y-160169211D01*
X111220576Y-160169211D02*
X111220576Y-159835878D01*
X111220576Y-159835878D02*
X111411052Y-159835878D01*
X110792004Y-160264450D02*
X110792004Y-159264450D01*
X110792004Y-159264450D02*
X110220576Y-160264450D01*
X110220576Y-160264450D02*
X110220576Y-159264450D01*
X109744385Y-160264450D02*
X109744385Y-159264450D01*
X109744385Y-159264450D02*
X109506290Y-159264450D01*
X109506290Y-159264450D02*
X109363433Y-159312069D01*
X109363433Y-159312069D02*
X109268195Y-159407307D01*
X109268195Y-159407307D02*
X109220576Y-159502545D01*
X109220576Y-159502545D02*
X109172957Y-159693021D01*
X109172957Y-159693021D02*
X109172957Y-159835878D01*
X109172957Y-159835878D02*
X109220576Y-160026354D01*
X109220576Y-160026354D02*
X109268195Y-160121592D01*
X109268195Y-160121592D02*
X109363433Y-160216831D01*
X109363433Y-160216831D02*
X109506290Y-160264450D01*
X109506290Y-160264450D02*
X109744385Y-160264450D01*
X127074028Y-130734427D02*
X126597838Y-130734427D01*
X127169266Y-131020142D02*
X126835933Y-130020142D01*
X126835933Y-130020142D02*
X126502600Y-131020142D01*
X126169266Y-130020142D02*
X126169266Y-130829665D01*
X126169266Y-130829665D02*
X126121647Y-130924903D01*
X126121647Y-130924903D02*
X126074028Y-130972523D01*
X126074028Y-130972523D02*
X125978790Y-131020142D01*
X125978790Y-131020142D02*
X125788314Y-131020142D01*
X125788314Y-131020142D02*
X125693076Y-130972523D01*
X125693076Y-130972523D02*
X125645457Y-130924903D01*
X125645457Y-130924903D02*
X125597838Y-130829665D01*
X125597838Y-130829665D02*
X125597838Y-130020142D01*
X125216885Y-130020142D02*
X124550219Y-131020142D01*
X124550219Y-130020142D02*
X125216885Y-131020142D01*
X128872852Y-125758480D02*
X128396662Y-125758480D01*
X128968090Y-126044195D02*
X128634757Y-125044195D01*
X128634757Y-125044195D02*
X128301424Y-126044195D01*
X127777614Y-125044195D02*
X127682376Y-125044195D01*
X127682376Y-125044195D02*
X127587138Y-125091814D01*
X127587138Y-125091814D02*
X127539519Y-125139433D01*
X127539519Y-125139433D02*
X127491900Y-125234671D01*
X127491900Y-125234671D02*
X127444281Y-125425147D01*
X127444281Y-125425147D02*
X127444281Y-125663242D01*
X127444281Y-125663242D02*
X127491900Y-125853718D01*
X127491900Y-125853718D02*
X127539519Y-125948956D01*
X127539519Y-125948956D02*
X127587138Y-125996576D01*
X127587138Y-125996576D02*
X127682376Y-126044195D01*
X127682376Y-126044195D02*
X127777614Y-126044195D01*
X127777614Y-126044195D02*
X127872852Y-125996576D01*
X127872852Y-125996576D02*
X127920471Y-125948956D01*
X127920471Y-125948956D02*
X127968090Y-125853718D01*
X127968090Y-125853718D02*
X128015709Y-125663242D01*
X128015709Y-125663242D02*
X128015709Y-125425147D01*
X128015709Y-125425147D02*
X127968090Y-125234671D01*
X127968090Y-125234671D02*
X127920471Y-125139433D01*
X127920471Y-125139433D02*
X127872852Y-125091814D01*
X127872852Y-125091814D02*
X127777614Y-125044195D01*
X126301423Y-125758480D02*
X125825233Y-125758480D01*
X126396661Y-126044195D02*
X126063328Y-125044195D01*
X126063328Y-125044195D02*
X125729995Y-126044195D01*
X124872852Y-126044195D02*
X125444280Y-126044195D01*
X125158566Y-126044195D02*
X125158566Y-125044195D01*
X125158566Y-125044195D02*
X125253804Y-125187052D01*
X125253804Y-125187052D02*
X125349042Y-125282290D01*
X125349042Y-125282290D02*
X125444280Y-125329909D01*
X123682375Y-126044195D02*
X123682375Y-125044195D01*
X123682375Y-125044195D02*
X123444280Y-125044195D01*
X123444280Y-125044195D02*
X123301423Y-125091814D01*
X123301423Y-125091814D02*
X123206185Y-125187052D01*
X123206185Y-125187052D02*
X123158566Y-125282290D01*
X123158566Y-125282290D02*
X123110947Y-125472766D01*
X123110947Y-125472766D02*
X123110947Y-125615623D01*
X123110947Y-125615623D02*
X123158566Y-125806099D01*
X123158566Y-125806099D02*
X123206185Y-125901337D01*
X123206185Y-125901337D02*
X123301423Y-125996576D01*
X123301423Y-125996576D02*
X123444280Y-126044195D01*
X123444280Y-126044195D02*
X123682375Y-126044195D01*
X122206185Y-125044195D02*
X122682375Y-125044195D01*
X122682375Y-125044195D02*
X122729994Y-125520385D01*
X122729994Y-125520385D02*
X122682375Y-125472766D01*
X122682375Y-125472766D02*
X122587137Y-125425147D01*
X122587137Y-125425147D02*
X122349042Y-125425147D01*
X122349042Y-125425147D02*
X122253804Y-125472766D01*
X122253804Y-125472766D02*
X122206185Y-125520385D01*
X122206185Y-125520385D02*
X122158566Y-125615623D01*
X122158566Y-125615623D02*
X122158566Y-125853718D01*
X122158566Y-125853718D02*
X122206185Y-125948956D01*
X122206185Y-125948956D02*
X122253804Y-125996576D01*
X122253804Y-125996576D02*
X122349042Y-126044195D01*
X122349042Y-126044195D02*
X122587137Y-126044195D01*
X122587137Y-126044195D02*
X122682375Y-125996576D01*
X122682375Y-125996576D02*
X122729994Y-125948956D01*
X120968089Y-126044195D02*
X120968089Y-125044195D01*
X120968089Y-125044195D02*
X120729994Y-125044195D01*
X120729994Y-125044195D02*
X120587137Y-125091814D01*
X120587137Y-125091814D02*
X120491899Y-125187052D01*
X120491899Y-125187052D02*
X120444280Y-125282290D01*
X120444280Y-125282290D02*
X120396661Y-125472766D01*
X120396661Y-125472766D02*
X120396661Y-125615623D01*
X120396661Y-125615623D02*
X120444280Y-125806099D01*
X120444280Y-125806099D02*
X120491899Y-125901337D01*
X120491899Y-125901337D02*
X120587137Y-125996576D01*
X120587137Y-125996576D02*
X120729994Y-126044195D01*
X120729994Y-126044195D02*
X120968089Y-126044195D01*
X119539518Y-125377528D02*
X119539518Y-126044195D01*
X119777613Y-124996576D02*
X120015708Y-125710861D01*
X120015708Y-125710861D02*
X119396661Y-125710861D01*
X131312115Y-144103152D02*
X131312115Y-143103152D01*
X131312115Y-143103152D02*
X130978782Y-143817437D01*
X130978782Y-143817437D02*
X130645449Y-143103152D01*
X130645449Y-143103152D02*
X130645449Y-144103152D01*
X129978782Y-143103152D02*
X129788306Y-143103152D01*
X129788306Y-143103152D02*
X129693068Y-143150771D01*
X129693068Y-143150771D02*
X129597830Y-143246009D01*
X129597830Y-143246009D02*
X129550211Y-143436485D01*
X129550211Y-143436485D02*
X129550211Y-143769818D01*
X129550211Y-143769818D02*
X129597830Y-143960294D01*
X129597830Y-143960294D02*
X129693068Y-144055533D01*
X129693068Y-144055533D02*
X129788306Y-144103152D01*
X129788306Y-144103152D02*
X129978782Y-144103152D01*
X129978782Y-144103152D02*
X130074020Y-144055533D01*
X130074020Y-144055533D02*
X130169258Y-143960294D01*
X130169258Y-143960294D02*
X130216877Y-143769818D01*
X130216877Y-143769818D02*
X130216877Y-143436485D01*
X130216877Y-143436485D02*
X130169258Y-143246009D01*
X130169258Y-143246009D02*
X130074020Y-143150771D01*
X130074020Y-143150771D02*
X129978782Y-143103152D01*
X129169258Y-144055533D02*
X129026401Y-144103152D01*
X129026401Y-144103152D02*
X128788306Y-144103152D01*
X128788306Y-144103152D02*
X128693068Y-144055533D01*
X128693068Y-144055533D02*
X128645449Y-144007913D01*
X128645449Y-144007913D02*
X128597830Y-143912675D01*
X128597830Y-143912675D02*
X128597830Y-143817437D01*
X128597830Y-143817437D02*
X128645449Y-143722199D01*
X128645449Y-143722199D02*
X128693068Y-143674580D01*
X128693068Y-143674580D02*
X128788306Y-143626961D01*
X128788306Y-143626961D02*
X128978782Y-143579342D01*
X128978782Y-143579342D02*
X129074020Y-143531723D01*
X129074020Y-143531723D02*
X129121639Y-143484104D01*
X129121639Y-143484104D02*
X129169258Y-143388866D01*
X129169258Y-143388866D02*
X129169258Y-143293628D01*
X129169258Y-143293628D02*
X129121639Y-143198390D01*
X129121639Y-143198390D02*
X129074020Y-143150771D01*
X129074020Y-143150771D02*
X128978782Y-143103152D01*
X128978782Y-143103152D02*
X128740687Y-143103152D01*
X128740687Y-143103152D02*
X128597830Y-143150771D01*
X128169258Y-144103152D02*
X128169258Y-143103152D01*
X126978782Y-144055533D02*
X126835925Y-144103152D01*
X126835925Y-144103152D02*
X126597830Y-144103152D01*
X126597830Y-144103152D02*
X126502592Y-144055533D01*
X126502592Y-144055533D02*
X126454973Y-144007913D01*
X126454973Y-144007913D02*
X126407354Y-143912675D01*
X126407354Y-143912675D02*
X126407354Y-143817437D01*
X126407354Y-143817437D02*
X126454973Y-143722199D01*
X126454973Y-143722199D02*
X126502592Y-143674580D01*
X126502592Y-143674580D02*
X126597830Y-143626961D01*
X126597830Y-143626961D02*
X126788306Y-143579342D01*
X126788306Y-143579342D02*
X126883544Y-143531723D01*
X126883544Y-143531723D02*
X126931163Y-143484104D01*
X126931163Y-143484104D02*
X126978782Y-143388866D01*
X126978782Y-143388866D02*
X126978782Y-143293628D01*
X126978782Y-143293628D02*
X126931163Y-143198390D01*
X126931163Y-143198390D02*
X126883544Y-143150771D01*
X126883544Y-143150771D02*
X126788306Y-143103152D01*
X126788306Y-143103152D02*
X126550211Y-143103152D01*
X126550211Y-143103152D02*
X126407354Y-143150771D01*
X125407354Y-144007913D02*
X125454973Y-144055533D01*
X125454973Y-144055533D02*
X125597830Y-144103152D01*
X125597830Y-144103152D02*
X125693068Y-144103152D01*
X125693068Y-144103152D02*
X125835925Y-144055533D01*
X125835925Y-144055533D02*
X125931163Y-143960294D01*
X125931163Y-143960294D02*
X125978782Y-143865056D01*
X125978782Y-143865056D02*
X126026401Y-143674580D01*
X126026401Y-143674580D02*
X126026401Y-143531723D01*
X126026401Y-143531723D02*
X125978782Y-143341247D01*
X125978782Y-143341247D02*
X125931163Y-143246009D01*
X125931163Y-143246009D02*
X125835925Y-143150771D01*
X125835925Y-143150771D02*
X125693068Y-143103152D01*
X125693068Y-143103152D02*
X125597830Y-143103152D01*
X125597830Y-143103152D02*
X125454973Y-143150771D01*
X125454973Y-143150771D02*
X125407354Y-143198390D01*
X124978782Y-144103152D02*
X124978782Y-143103152D01*
X124407354Y-144103152D02*
X124835925Y-143531723D01*
X124407354Y-143103152D02*
X124978782Y-143674580D01*
X130891636Y-145596226D02*
X130986874Y-145548607D01*
X130986874Y-145548607D02*
X131129731Y-145548607D01*
X131129731Y-145548607D02*
X131272588Y-145596226D01*
X131272588Y-145596226D02*
X131367826Y-145691464D01*
X131367826Y-145691464D02*
X131415445Y-145786702D01*
X131415445Y-145786702D02*
X131463064Y-145977178D01*
X131463064Y-145977178D02*
X131463064Y-146120035D01*
X131463064Y-146120035D02*
X131415445Y-146310511D01*
X131415445Y-146310511D02*
X131367826Y-146405749D01*
X131367826Y-146405749D02*
X131272588Y-146500988D01*
X131272588Y-146500988D02*
X131129731Y-146548607D01*
X131129731Y-146548607D02*
X131034493Y-146548607D01*
X131034493Y-146548607D02*
X130891636Y-146500988D01*
X130891636Y-146500988D02*
X130844017Y-146453368D01*
X130844017Y-146453368D02*
X130844017Y-146120035D01*
X130844017Y-146120035D02*
X131034493Y-146120035D01*
X130415445Y-146548607D02*
X130415445Y-145548607D01*
X130415445Y-145548607D02*
X129844017Y-146548607D01*
X129844017Y-146548607D02*
X129844017Y-145548607D01*
X129367826Y-146548607D02*
X129367826Y-145548607D01*
X129367826Y-145548607D02*
X129129731Y-145548607D01*
X129129731Y-145548607D02*
X128986874Y-145596226D01*
X128986874Y-145596226D02*
X128891636Y-145691464D01*
X128891636Y-145691464D02*
X128844017Y-145786702D01*
X128844017Y-145786702D02*
X128796398Y-145977178D01*
X128796398Y-145977178D02*
X128796398Y-146120035D01*
X128796398Y-146120035D02*
X128844017Y-146310511D01*
X128844017Y-146310511D02*
X128891636Y-146405749D01*
X128891636Y-146405749D02*
X128986874Y-146500988D01*
X128986874Y-146500988D02*
X129129731Y-146548607D01*
X129129731Y-146548607D02*
X129367826Y-146548607D01*
X127034493Y-146548607D02*
X127367826Y-146072416D01*
X127605921Y-146548607D02*
X127605921Y-145548607D01*
X127605921Y-145548607D02*
X127224969Y-145548607D01*
X127224969Y-145548607D02*
X127129731Y-145596226D01*
X127129731Y-145596226D02*
X127082112Y-145643845D01*
X127082112Y-145643845D02*
X127034493Y-145739083D01*
X127034493Y-145739083D02*
X127034493Y-145881940D01*
X127034493Y-145881940D02*
X127082112Y-145977178D01*
X127082112Y-145977178D02*
X127129731Y-146024797D01*
X127129731Y-146024797D02*
X127224969Y-146072416D01*
X127224969Y-146072416D02*
X127605921Y-146072416D01*
X126605921Y-146024797D02*
X126272588Y-146024797D01*
X126129731Y-146548607D02*
X126605921Y-146548607D01*
X126605921Y-146548607D02*
X126605921Y-145548607D01*
X126605921Y-145548607D02*
X126129731Y-145548607D01*
X125748778Y-146500988D02*
X125605921Y-146548607D01*
X125605921Y-146548607D02*
X125367826Y-146548607D01*
X125367826Y-146548607D02*
X125272588Y-146500988D01*
X125272588Y-146500988D02*
X125224969Y-146453368D01*
X125224969Y-146453368D02*
X125177350Y-146358130D01*
X125177350Y-146358130D02*
X125177350Y-146262892D01*
X125177350Y-146262892D02*
X125224969Y-146167654D01*
X125224969Y-146167654D02*
X125272588Y-146120035D01*
X125272588Y-146120035D02*
X125367826Y-146072416D01*
X125367826Y-146072416D02*
X125558302Y-146024797D01*
X125558302Y-146024797D02*
X125653540Y-145977178D01*
X125653540Y-145977178D02*
X125701159Y-145929559D01*
X125701159Y-145929559D02*
X125748778Y-145834321D01*
X125748778Y-145834321D02*
X125748778Y-145739083D01*
X125748778Y-145739083D02*
X125701159Y-145643845D01*
X125701159Y-145643845D02*
X125653540Y-145596226D01*
X125653540Y-145596226D02*
X125558302Y-145548607D01*
X125558302Y-145548607D02*
X125320207Y-145548607D01*
X125320207Y-145548607D02*
X125177350Y-145596226D01*
X131587660Y-141138971D02*
X130825756Y-141138971D01*
X131206708Y-141519924D02*
X131206708Y-140758019D01*
X129873375Y-140519924D02*
X130349565Y-140519924D01*
X130349565Y-140519924D02*
X130397184Y-140996114D01*
X130397184Y-140996114D02*
X130349565Y-140948495D01*
X130349565Y-140948495D02*
X130254327Y-140900876D01*
X130254327Y-140900876D02*
X130016232Y-140900876D01*
X130016232Y-140900876D02*
X129920994Y-140948495D01*
X129920994Y-140948495D02*
X129873375Y-140996114D01*
X129873375Y-140996114D02*
X129825756Y-141091352D01*
X129825756Y-141091352D02*
X129825756Y-141329447D01*
X129825756Y-141329447D02*
X129873375Y-141424685D01*
X129873375Y-141424685D02*
X129920994Y-141472305D01*
X129920994Y-141472305D02*
X130016232Y-141519924D01*
X130016232Y-141519924D02*
X130254327Y-141519924D01*
X130254327Y-141519924D02*
X130349565Y-141472305D01*
X130349565Y-141472305D02*
X130397184Y-141424685D01*
X129540041Y-140519924D02*
X129206708Y-141519924D01*
X129206708Y-141519924D02*
X128873375Y-140519924D01*
X127778136Y-141519924D02*
X127778136Y-140519924D01*
X127778136Y-140519924D02*
X127444803Y-141234209D01*
X127444803Y-141234209D02*
X127111470Y-140519924D01*
X127111470Y-140519924D02*
X127111470Y-141519924D01*
X126635279Y-141519924D02*
X126635279Y-140519924D01*
X126206708Y-141472305D02*
X126063851Y-141519924D01*
X126063851Y-141519924D02*
X125825756Y-141519924D01*
X125825756Y-141519924D02*
X125730518Y-141472305D01*
X125730518Y-141472305D02*
X125682899Y-141424685D01*
X125682899Y-141424685D02*
X125635280Y-141329447D01*
X125635280Y-141329447D02*
X125635280Y-141234209D01*
X125635280Y-141234209D02*
X125682899Y-141138971D01*
X125682899Y-141138971D02*
X125730518Y-141091352D01*
X125730518Y-141091352D02*
X125825756Y-141043733D01*
X125825756Y-141043733D02*
X126016232Y-140996114D01*
X126016232Y-140996114D02*
X126111470Y-140948495D01*
X126111470Y-140948495D02*
X126159089Y-140900876D01*
X126159089Y-140900876D02*
X126206708Y-140805638D01*
X126206708Y-140805638D02*
X126206708Y-140710400D01*
X126206708Y-140710400D02*
X126159089Y-140615162D01*
X126159089Y-140615162D02*
X126111470Y-140567543D01*
X126111470Y-140567543D02*
X126016232Y-140519924D01*
X126016232Y-140519924D02*
X125778137Y-140519924D01*
X125778137Y-140519924D02*
X125635280Y-140567543D01*
X125016232Y-140519924D02*
X124825756Y-140519924D01*
X124825756Y-140519924D02*
X124730518Y-140567543D01*
X124730518Y-140567543D02*
X124635280Y-140662781D01*
X124635280Y-140662781D02*
X124587661Y-140853257D01*
X124587661Y-140853257D02*
X124587661Y-141186590D01*
X124587661Y-141186590D02*
X124635280Y-141377066D01*
X124635280Y-141377066D02*
X124730518Y-141472305D01*
X124730518Y-141472305D02*
X124825756Y-141519924D01*
X124825756Y-141519924D02*
X125016232Y-141519924D01*
X125016232Y-141519924D02*
X125111470Y-141472305D01*
X125111470Y-141472305D02*
X125206708Y-141377066D01*
X125206708Y-141377066D02*
X125254327Y-141186590D01*
X125254327Y-141186590D02*
X125254327Y-140853257D01*
X125254327Y-140853257D02*
X125206708Y-140662781D01*
X125206708Y-140662781D02*
X125111470Y-140567543D01*
X125111470Y-140567543D02*
X125016232Y-140519924D01*
X136478571Y-139074469D02*
X136478571Y-138074469D01*
X135430953Y-138979230D02*
X135478572Y-139026850D01*
X135478572Y-139026850D02*
X135621429Y-139074469D01*
X135621429Y-139074469D02*
X135716667Y-139074469D01*
X135716667Y-139074469D02*
X135859524Y-139026850D01*
X135859524Y-139026850D02*
X135954762Y-138931611D01*
X135954762Y-138931611D02*
X136002381Y-138836373D01*
X136002381Y-138836373D02*
X136050000Y-138645897D01*
X136050000Y-138645897D02*
X136050000Y-138503040D01*
X136050000Y-138503040D02*
X136002381Y-138312564D01*
X136002381Y-138312564D02*
X135954762Y-138217326D01*
X135954762Y-138217326D02*
X135859524Y-138122088D01*
X135859524Y-138122088D02*
X135716667Y-138074469D01*
X135716667Y-138074469D02*
X135621429Y-138074469D01*
X135621429Y-138074469D02*
X135478572Y-138122088D01*
X135478572Y-138122088D02*
X135430953Y-138169707D01*
X135050000Y-139026850D02*
X134907143Y-139074469D01*
X134907143Y-139074469D02*
X134669048Y-139074469D01*
X134669048Y-139074469D02*
X134573810Y-139026850D01*
X134573810Y-139026850D02*
X134526191Y-138979230D01*
X134526191Y-138979230D02*
X134478572Y-138883992D01*
X134478572Y-138883992D02*
X134478572Y-138788754D01*
X134478572Y-138788754D02*
X134526191Y-138693516D01*
X134526191Y-138693516D02*
X134573810Y-138645897D01*
X134573810Y-138645897D02*
X134669048Y-138598278D01*
X134669048Y-138598278D02*
X134859524Y-138550659D01*
X134859524Y-138550659D02*
X134954762Y-138503040D01*
X134954762Y-138503040D02*
X135002381Y-138455421D01*
X135002381Y-138455421D02*
X135050000Y-138360183D01*
X135050000Y-138360183D02*
X135050000Y-138264945D01*
X135050000Y-138264945D02*
X135002381Y-138169707D01*
X135002381Y-138169707D02*
X134954762Y-138122088D01*
X134954762Y-138122088D02*
X134859524Y-138074469D01*
X134859524Y-138074469D02*
X134621429Y-138074469D01*
X134621429Y-138074469D02*
X134478572Y-138122088D01*
X134050000Y-139074469D02*
X134050000Y-138074469D01*
X134050000Y-138074469D02*
X133669048Y-138074469D01*
X133669048Y-138074469D02*
X133573810Y-138122088D01*
X133573810Y-138122088D02*
X133526191Y-138169707D01*
X133526191Y-138169707D02*
X133478572Y-138264945D01*
X133478572Y-138264945D02*
X133478572Y-138407802D01*
X133478572Y-138407802D02*
X133526191Y-138503040D01*
X133526191Y-138503040D02*
X133573810Y-138550659D01*
X133573810Y-138550659D02*
X133669048Y-138598278D01*
X133669048Y-138598278D02*
X134050000Y-138598278D01*
G36*
X137190548Y-150395492D02*
G01*
X137289401Y-150390600D01*
X137380923Y-150376343D01*
X137468369Y-150352233D01*
X137548730Y-150318983D01*
X137623971Y-150276051D01*
X137694567Y-150223325D01*
X137573093Y-150074154D01*
X137489338Y-150134580D01*
X137398105Y-150177420D01*
X137299604Y-150203054D01*
X137190548Y-150211870D01*
X137090983Y-150204687D01*
X137014527Y-150185296D01*
X136956319Y-150155963D01*
X136909851Y-150113215D01*
X136882545Y-150061450D01*
X136873056Y-149997645D01*
X136873056Y-149996704D01*
X136877663Y-149949589D01*
X136890485Y-149911847D01*
X136910841Y-149881471D01*
X136953488Y-149844822D01*
X137008379Y-149818383D01*
X137072743Y-149799636D01*
X137162850Y-149780513D01*
X137169091Y-149779573D01*
X137175246Y-149778632D01*
X137189607Y-149775726D01*
X137322352Y-149748838D01*
X137416741Y-149721785D01*
X137471662Y-149696512D01*
X137521335Y-149660224D01*
X137566425Y-149611766D01*
X137599239Y-149555143D01*
X137620672Y-149481050D01*
X137628573Y-149384632D01*
X137628573Y-149383606D01*
X137621714Y-149299209D01*
X137602157Y-149226436D01*
X137570699Y-149163226D01*
X137526984Y-149107919D01*
X137471321Y-149061659D01*
X137401952Y-149024056D01*
X137326496Y-148998409D01*
X137238260Y-148982071D01*
X137135068Y-148976270D01*
X137061042Y-148980337D01*
X136988290Y-148992512D01*
X136916909Y-149012585D01*
X136845787Y-149040811D01*
X136776793Y-149076598D01*
X136707643Y-149121595D01*
X136818517Y-149276493D01*
X136899381Y-149224612D01*
X136976835Y-149189042D01*
X137056407Y-149167076D01*
X137135068Y-149159892D01*
X137228664Y-149167140D01*
X137300964Y-149186808D01*
X137356474Y-149216825D01*
X137400178Y-149259805D01*
X137426240Y-149312442D01*
X137435377Y-149377879D01*
X137435377Y-149378819D01*
X137430465Y-149425057D01*
X137416750Y-149462011D01*
X137394771Y-149491745D01*
X137349689Y-149527112D01*
X137293386Y-149552439D01*
X137124553Y-149593044D01*
X137117458Y-149594583D01*
X137110277Y-149595951D01*
X137099763Y-149597917D01*
X137089162Y-149599798D01*
X136968678Y-149629382D01*
X136878356Y-149661005D01*
X136825315Y-149689210D01*
X136778328Y-149727006D01*
X136736793Y-149775298D01*
X136706578Y-149830733D01*
X136687005Y-149901298D01*
X136679860Y-149990891D01*
X136679860Y-149992858D01*
X136686960Y-150075837D01*
X136707273Y-150147675D01*
X136740127Y-150210417D01*
X136785343Y-150264936D01*
X136842896Y-150310754D01*
X136914687Y-150348133D01*
X136992308Y-150373502D01*
X137083499Y-150389720D01*
X137190548Y-150395492D01*
G37*
G36*
X136200375Y-149104412D02*
G01*
X136005213Y-149104412D01*
X136005213Y-150381131D01*
X136200375Y-150381131D01*
X136200375Y-149104412D01*
G37*
G36*
X136593435Y-148990546D02*
G01*
X135612153Y-148990546D01*
X135612153Y-149176134D01*
X136593435Y-149176134D01*
X136593435Y-148990546D01*
G37*
G36*
X135041797Y-150395492D02*
G01*
X135140650Y-150390600D01*
X135232172Y-150376343D01*
X135319618Y-150352233D01*
X135399979Y-150318983D01*
X135475220Y-150276051D01*
X135545816Y-150223325D01*
X135424342Y-150074154D01*
X135340587Y-150134580D01*
X135249354Y-150177420D01*
X135150853Y-150203054D01*
X135041797Y-150211870D01*
X134942232Y-150204687D01*
X134865776Y-150185296D01*
X134807568Y-150155963D01*
X134761100Y-150113215D01*
X134733794Y-150061450D01*
X134724305Y-149997645D01*
X134724305Y-149996704D01*
X134728913Y-149949589D01*
X134741734Y-149911847D01*
X134762090Y-149881471D01*
X134804737Y-149844822D01*
X134859628Y-149818383D01*
X134923992Y-149799636D01*
X135014100Y-149780513D01*
X135020340Y-149779573D01*
X135026495Y-149778632D01*
X135040856Y-149775726D01*
X135173601Y-149748838D01*
X135267990Y-149721785D01*
X135322911Y-149696512D01*
X135372584Y-149660224D01*
X135417674Y-149611766D01*
X135450488Y-149555143D01*
X135471921Y-149481050D01*
X135479822Y-149384632D01*
X135479822Y-149383606D01*
X135472963Y-149299209D01*
X135453406Y-149226436D01*
X135421948Y-149163226D01*
X135378233Y-149107919D01*
X135322570Y-149061659D01*
X135253201Y-149024056D01*
X135177745Y-148998409D01*
X135089509Y-148982071D01*
X134986317Y-148976270D01*
X134912292Y-148980337D01*
X134839539Y-148992512D01*
X134768158Y-149012585D01*
X134697036Y-149040811D01*
X134628042Y-149076598D01*
X134558892Y-149121595D01*
X134669766Y-149276493D01*
X134750630Y-149224612D01*
X134828084Y-149189042D01*
X134907656Y-149167076D01*
X134986317Y-149159892D01*
X135079913Y-149167140D01*
X135152213Y-149186808D01*
X135207723Y-149216825D01*
X135251427Y-149259805D01*
X135277489Y-149312442D01*
X135286626Y-149377879D01*
X135286626Y-149378819D01*
X135281714Y-149425057D01*
X135267999Y-149462011D01*
X135246020Y-149491745D01*
X135200938Y-149527112D01*
X135144635Y-149552439D01*
X134975802Y-149593044D01*
X134968707Y-149594583D01*
X134961526Y-149595951D01*
X134951012Y-149597917D01*
X134940411Y-149599798D01*
X134819927Y-149629382D01*
X134729605Y-149661005D01*
X134676564Y-149689210D01*
X134629577Y-149727006D01*
X134588042Y-149775298D01*
X134557827Y-149830733D01*
X134538254Y-149901298D01*
X134531109Y-149990891D01*
X134531109Y-149992858D01*
X134538209Y-150075837D01*
X134558522Y-150147675D01*
X134591376Y-150210417D01*
X134636592Y-150264936D01*
X134694145Y-150310754D01*
X134765937Y-150348133D01*
X134843557Y-150373502D01*
X134934748Y-150389720D01*
X135041797Y-150395492D01*
G37*
G36*
X133272941Y-150395492D02*
G01*
X133367449Y-150388031D01*
X133451477Y-150366495D01*
X133526832Y-150331464D01*
X133594129Y-150282983D01*
X133650462Y-150222836D01*
X133696605Y-150149723D01*
X133729429Y-150069266D01*
X133749787Y-149978994D01*
X133756872Y-149877111D01*
X133756872Y-149495506D01*
X133749789Y-149393680D01*
X133729432Y-149303436D01*
X133696605Y-149222980D01*
X133650478Y-149149839D01*
X133594145Y-149089543D01*
X133526832Y-149040811D01*
X133451447Y-149005489D01*
X133367422Y-148983786D01*
X133272941Y-148976270D01*
X133194518Y-148982091D01*
X133121535Y-148999199D01*
X133052988Y-149027476D01*
X132989808Y-149066207D01*
X132934073Y-149114245D01*
X132885181Y-149172287D01*
X132845484Y-149237208D01*
X132814992Y-149309247D01*
X132793798Y-149389419D01*
X132993662Y-149389419D01*
X133018017Y-149327740D01*
X133054441Y-149273245D01*
X133100926Y-149227713D01*
X133154373Y-149194342D01*
X133212989Y-149173437D01*
X133272941Y-149166560D01*
X133328486Y-149171327D01*
X133377855Y-149185119D01*
X133422198Y-149207678D01*
X133478595Y-149256500D01*
X133521617Y-149322912D01*
X133547753Y-149401156D01*
X133557008Y-149495506D01*
X133557008Y-149877111D01*
X133547789Y-149970708D01*
X133521617Y-150049278D01*
X133478537Y-150116013D01*
X133422198Y-150164512D01*
X133377886Y-150186777D01*
X133328514Y-150200404D01*
X133272941Y-150205117D01*
X133212140Y-150198672D01*
X133153861Y-150179300D01*
X133100882Y-150147529D01*
X133054441Y-150102791D01*
X133018280Y-150047963D01*
X132993662Y-149982343D01*
X132793798Y-149982343D01*
X132815027Y-150062435D01*
X132845656Y-150134476D01*
X132885609Y-150199475D01*
X132934804Y-150257544D01*
X132990716Y-150305610D01*
X133053929Y-150344372D01*
X133122460Y-150372629D01*
X133195139Y-150389695D01*
X133272941Y-150395492D01*
G37*
G36*
X131745495Y-148990546D02*
G01*
X131550418Y-148990546D01*
X131550418Y-150381131D01*
X131745495Y-150381131D01*
X131745495Y-148990546D01*
G37*
G36*
X132535462Y-148990546D02*
G01*
X132340385Y-148990546D01*
X132340385Y-150381131D01*
X132535462Y-150381131D01*
X132535462Y-148990546D01*
G37*
G36*
X132413988Y-149603644D02*
G01*
X131642229Y-149603644D01*
X131642229Y-149789147D01*
X132413988Y-149789147D01*
X132413988Y-149603644D01*
G37*
G36*
X131311146Y-148990546D02*
G01*
X131098887Y-148990546D01*
X130765068Y-150080822D01*
X130431334Y-148990546D01*
X130218990Y-148990546D01*
X130672317Y-150381131D01*
X130857819Y-150381131D01*
X131311146Y-148990546D01*
G37*
G36*
X129671802Y-148983677D02*
G01*
X129756670Y-149005071D01*
X129832939Y-149039871D01*
X129901201Y-149087998D01*
X129958131Y-149147521D01*
X130004593Y-149219646D01*
X130037673Y-149299173D01*
X130058163Y-149388307D01*
X130065288Y-149488838D01*
X130065288Y-149882838D01*
X130058164Y-149983370D01*
X130037676Y-150072534D01*
X130004593Y-150152116D01*
X129958139Y-150224192D01*
X129901209Y-150283718D01*
X129832939Y-150331891D01*
X129756670Y-150366692D01*
X129671802Y-150388085D01*
X129576570Y-150395492D01*
X129481395Y-150388087D01*
X129396554Y-150366694D01*
X129320286Y-150331891D01*
X129251968Y-150283710D01*
X129195041Y-150224183D01*
X129148632Y-150152116D01*
X129115502Y-150072529D01*
X129094985Y-149983365D01*
X129087852Y-149882838D01*
X129087852Y-149488838D01*
X129088325Y-149482170D01*
X129287716Y-149482170D01*
X129287716Y-149889592D01*
X129297055Y-149979331D01*
X129323620Y-150054578D01*
X129367163Y-150117977D01*
X129425005Y-150164512D01*
X129494471Y-150193255D01*
X129576570Y-150203236D01*
X129658681Y-150193257D01*
X129728220Y-150164512D01*
X129786010Y-150117987D01*
X129829605Y-150054578D01*
X129856106Y-149979336D01*
X129865424Y-149889592D01*
X129865424Y-149482170D01*
X129856102Y-149392363D01*
X129829605Y-149317184D01*
X129786004Y-149253704D01*
X129728220Y-149207165D01*
X129658681Y-149178419D01*
X129576570Y-149168440D01*
X129494471Y-149178422D01*
X129425005Y-149207165D01*
X129367169Y-149253714D01*
X129323620Y-149317184D01*
X129297059Y-149392368D01*
X129287716Y-149482170D01*
X129088325Y-149482170D01*
X129094987Y-149388312D01*
X129115504Y-149299178D01*
X129148632Y-149219646D01*
X129195049Y-149147530D01*
X129251977Y-149088007D01*
X129320286Y-149039871D01*
X129396554Y-149005068D01*
X129481395Y-148983675D01*
X129576570Y-148976270D01*
X129671802Y-148983677D01*
G37*
G36*
X128598365Y-150395492D02*
G01*
X128671285Y-150390356D01*
X128738890Y-150375303D01*
X128802076Y-150350527D01*
X128860467Y-150316243D01*
X128910557Y-150274303D01*
X128953128Y-150224266D01*
X128793442Y-150109545D01*
X128760956Y-150150893D01*
X128715992Y-150182207D01*
X128662433Y-150201304D01*
X128598365Y-150208023D01*
X128525614Y-150199525D01*
X128467971Y-150175747D01*
X128421924Y-150137242D01*
X128388460Y-150086532D01*
X128367056Y-150021563D01*
X128359264Y-149938318D01*
X128359264Y-148990546D01*
X128164187Y-148990546D01*
X128164187Y-149939259D01*
X128170301Y-150034522D01*
X128187576Y-150116079D01*
X128214879Y-150186054D01*
X128254217Y-150249295D01*
X128303339Y-150300874D01*
X128363110Y-150341978D01*
X128430124Y-150370903D01*
X128507847Y-150389081D01*
X128598365Y-150395492D01*
G37*
G36*
X127666408Y-149770939D02*
G01*
X127052454Y-148990546D01*
X126812413Y-148990546D01*
X127695131Y-150063639D01*
X127666408Y-149770939D01*
G37*
G36*
X127819426Y-148990546D02*
G01*
X127624349Y-148990546D01*
X127624349Y-150381131D01*
X127819426Y-150381131D01*
X127819426Y-148990546D01*
G37*
G36*
X127435000Y-149638950D02*
G01*
X127281041Y-149496532D01*
X126754026Y-150381131D01*
X126993128Y-150381131D01*
X127435000Y-149638950D01*
G37*
G36*
X126255138Y-148983677D02*
G01*
X126340006Y-149005071D01*
X126416275Y-149039871D01*
X126484536Y-149087998D01*
X126541467Y-149147521D01*
X126587929Y-149219646D01*
X126621009Y-149299173D01*
X126641498Y-149388307D01*
X126648623Y-149488838D01*
X126648623Y-149882838D01*
X126641500Y-149983370D01*
X126621011Y-150072534D01*
X126587929Y-150152116D01*
X126541475Y-150224192D01*
X126484545Y-150283718D01*
X126416275Y-150331891D01*
X126340006Y-150366692D01*
X126255138Y-150388085D01*
X126159906Y-150395492D01*
X126064731Y-150388087D01*
X125979890Y-150366694D01*
X125903622Y-150331891D01*
X125835304Y-150283710D01*
X125778376Y-150224183D01*
X125731968Y-150152116D01*
X125698837Y-150072529D01*
X125678321Y-149983365D01*
X125671188Y-149882838D01*
X125671188Y-149488838D01*
X125671661Y-149482170D01*
X125871052Y-149482170D01*
X125871052Y-149889592D01*
X125880390Y-149979331D01*
X125906955Y-150054578D01*
X125950499Y-150117977D01*
X126008341Y-150164512D01*
X126077807Y-150193255D01*
X126159906Y-150203236D01*
X126242017Y-150193257D01*
X126311556Y-150164512D01*
X126369346Y-150117987D01*
X126412941Y-150054578D01*
X126439442Y-149979336D01*
X126448759Y-149889592D01*
X126448759Y-149482170D01*
X126439438Y-149392363D01*
X126412941Y-149317184D01*
X126369340Y-149253704D01*
X126311556Y-149207165D01*
X126242017Y-149178419D01*
X126159906Y-149168440D01*
X126077807Y-149178422D01*
X126008341Y-149207165D01*
X125950505Y-149253714D01*
X125906955Y-149317184D01*
X125880395Y-149392368D01*
X125871052Y-149482170D01*
X125671661Y-149482170D01*
X125678322Y-149388312D01*
X125698840Y-149299178D01*
X125731968Y-149219646D01*
X125778385Y-149147530D01*
X125835313Y-149088007D01*
X125903622Y-149039871D01*
X125979890Y-149005068D01*
X126064731Y-148983675D01*
X126159906Y-148976270D01*
X126255138Y-148983677D01*
G37*
G36*
X125498166Y-148990546D02*
G01*
X125285907Y-148990546D01*
X124952088Y-150080822D01*
X124618355Y-148990546D01*
X124406010Y-148990546D01*
X124859337Y-150381131D01*
X125044839Y-150381131D01*
X125498166Y-148990546D01*
G37*
G36*
X123999785Y-150381131D02*
G01*
X124194862Y-150381131D01*
X124194862Y-148990546D01*
X123999785Y-148990546D01*
X123999785Y-150381131D01*
G37*
G36*
X123200757Y-150395492D02*
G01*
X123295265Y-150388031D01*
X123379293Y-150366495D01*
X123454647Y-150331464D01*
X123521945Y-150282983D01*
X123578278Y-150222836D01*
X123624421Y-150149723D01*
X123657245Y-150069266D01*
X123677603Y-149978994D01*
X123684687Y-149877111D01*
X123684687Y-149495506D01*
X123677604Y-149393680D01*
X123657248Y-149303436D01*
X123624421Y-149222980D01*
X123578294Y-149149839D01*
X123521960Y-149089543D01*
X123454647Y-149040811D01*
X123379263Y-149005489D01*
X123295238Y-148983786D01*
X123200757Y-148976270D01*
X123122334Y-148982091D01*
X123049351Y-148999199D01*
X122980804Y-149027476D01*
X122917624Y-149066207D01*
X122861889Y-149114245D01*
X122812997Y-149172287D01*
X122773300Y-149237208D01*
X122742808Y-149309247D01*
X122721614Y-149389419D01*
X122921477Y-149389419D01*
X122945833Y-149327740D01*
X122982257Y-149273245D01*
X123028741Y-149227713D01*
X123082189Y-149194342D01*
X123140804Y-149173437D01*
X123200757Y-149166560D01*
X123256302Y-149171327D01*
X123305671Y-149185119D01*
X123350014Y-149207678D01*
X123406411Y-149256500D01*
X123449433Y-149322912D01*
X123475568Y-149401156D01*
X123484824Y-149495506D01*
X123484824Y-149877111D01*
X123475604Y-149970708D01*
X123449433Y-150049278D01*
X123406352Y-150116013D01*
X123350014Y-150164512D01*
X123305702Y-150186777D01*
X123256330Y-150200404D01*
X123200757Y-150205117D01*
X123139955Y-150198672D01*
X123081676Y-150179300D01*
X123028698Y-150147529D01*
X122982257Y-150102791D01*
X122946095Y-150047963D01*
X122921477Y-149982343D01*
X122721614Y-149982343D01*
X122742842Y-150062435D01*
X122773471Y-150134476D01*
X122813424Y-150199475D01*
X122862620Y-150257544D01*
X122918532Y-150305610D01*
X122981744Y-150344372D01*
X123050276Y-150372629D01*
X123122955Y-150389695D01*
X123200757Y-150395492D01*
G37*
G36*
X122463278Y-148990546D02*
G01*
X122268201Y-148990546D01*
X122268201Y-150381131D01*
X122463278Y-150381131D01*
X122463278Y-148990546D01*
G37*
G36*
X122368646Y-150195628D02*
G01*
X121570045Y-150195628D01*
X121570045Y-150381131D01*
X122368646Y-150381131D01*
X122368646Y-150195628D01*
G37*
G36*
X122368646Y-149597831D02*
G01*
X121675277Y-149597831D01*
X121675277Y-149783419D01*
X122368646Y-149783419D01*
X122368646Y-149597831D01*
G37*
G36*
X122368646Y-148990546D02*
G01*
X121570045Y-148990546D01*
X121570045Y-149176134D01*
X122368646Y-149176134D01*
X122368646Y-148990546D01*
G37*
G36*
X120668948Y-149790087D02*
G01*
X120668948Y-149975590D01*
X121311624Y-149975590D01*
X121311624Y-149790087D01*
X120668948Y-149790087D01*
G37*
G36*
X120238103Y-150200415D02*
G01*
X119861286Y-150200415D01*
X119763625Y-150192871D01*
X119693910Y-150173100D01*
X119645179Y-150143995D01*
X119607982Y-150102113D01*
X119585277Y-150050202D01*
X119577219Y-149985164D01*
X119577219Y-149982343D01*
X119583692Y-149914819D01*
X119601668Y-149860869D01*
X119632834Y-149816285D01*
X119678604Y-149782906D01*
X119735733Y-149763048D01*
X119813414Y-149755637D01*
X120238103Y-149755637D01*
X120238103Y-149579709D01*
X119813414Y-149579709D01*
X119743085Y-149573259D01*
X119690087Y-149555824D01*
X119650394Y-149529016D01*
X119620936Y-149491738D01*
X119602248Y-149442867D01*
X119595427Y-149378819D01*
X119602981Y-149312093D01*
X119623710Y-149261440D01*
X119656634Y-149222980D01*
X119700468Y-149195928D01*
X119760076Y-149178034D01*
X119840256Y-149171347D01*
X120238103Y-149171347D01*
X120238103Y-148990546D01*
X119804865Y-148990546D01*
X119715803Y-148996175D01*
X119641372Y-149011902D01*
X119579185Y-149036452D01*
X119522993Y-149071865D01*
X119478134Y-149115027D01*
X119443349Y-149166560D01*
X119419005Y-149224260D01*
X119403748Y-149290645D01*
X119398384Y-149367364D01*
X119405407Y-149437191D01*
X119426167Y-149501746D01*
X119460898Y-149559506D01*
X119510797Y-149608859D01*
X119572981Y-149645382D01*
X119651847Y-149668613D01*
X119572537Y-149690167D01*
X119506437Y-149728453D01*
X119452451Y-149781552D01*
X119412746Y-149846507D01*
X119388491Y-149919645D01*
X119380261Y-149999525D01*
X119380261Y-150002432D01*
X119386052Y-150076313D01*
X119402783Y-150142161D01*
X119430014Y-150201356D01*
X119467728Y-150254175D01*
X119514841Y-150298278D01*
X119572432Y-150334285D01*
X119635848Y-150359751D01*
X119707420Y-150375600D01*
X119788623Y-150381131D01*
X120238103Y-150381131D01*
X120238103Y-150200415D01*
G37*
G36*
X120352824Y-148990546D02*
G01*
X120158688Y-148990546D01*
X120158688Y-150381131D01*
X120352824Y-150381131D01*
X120352824Y-148990546D01*
G37*
G36*
X119002589Y-149607406D02*
G01*
X118528232Y-149607406D01*
X118475315Y-149600564D01*
X118429754Y-149580649D01*
X118391885Y-149548613D01*
X118363246Y-149504653D01*
X118345914Y-149452776D01*
X118339824Y-149391300D01*
X118345918Y-149329760D01*
X118363246Y-149277947D01*
X118391790Y-149233945D01*
X118429241Y-149201950D01*
X118474502Y-149182082D01*
X118528232Y-149175194D01*
X119002589Y-149175194D01*
X119002589Y-148989606D01*
X118535841Y-148989606D01*
X118456752Y-148995435D01*
X118386626Y-149012212D01*
X118324009Y-149039358D01*
X118267577Y-149077253D01*
X118220692Y-149123991D01*
X118182531Y-149180408D01*
X118155066Y-149243044D01*
X118138136Y-149312869D01*
X118132266Y-149391300D01*
X118138179Y-149469651D01*
X118155246Y-149539478D01*
X118182959Y-149602191D01*
X118221424Y-149658621D01*
X118268515Y-149705360D01*
X118325035Y-149743241D01*
X118387640Y-149770420D01*
X118457442Y-149787181D01*
X118535841Y-149792994D01*
X119002589Y-149792994D01*
X119002589Y-149607406D01*
G37*
G36*
X119087646Y-148989606D02*
G01*
X118892570Y-148989606D01*
X118892570Y-150381131D01*
X119087646Y-150381131D01*
X119087646Y-148989606D01*
G37*
G36*
X118623805Y-149749909D02*
G01*
X118429668Y-149705970D01*
X118073880Y-150381131D01*
X118305373Y-150381131D01*
X118623805Y-149749909D01*
G37*
G36*
X117483693Y-148983677D02*
G01*
X117568561Y-149005071D01*
X117644831Y-149039871D01*
X117713092Y-149087998D01*
X117770022Y-149147521D01*
X117816484Y-149219646D01*
X117849564Y-149299173D01*
X117870054Y-149388307D01*
X117877179Y-149488838D01*
X117877179Y-149882838D01*
X117870055Y-149983370D01*
X117849567Y-150072534D01*
X117816484Y-150152116D01*
X117770030Y-150224192D01*
X117713101Y-150283718D01*
X117644831Y-150331891D01*
X117568561Y-150366692D01*
X117483693Y-150388085D01*
X117388461Y-150395492D01*
X117293286Y-150388087D01*
X117208445Y-150366694D01*
X117132177Y-150331891D01*
X117063859Y-150283710D01*
X117006932Y-150224183D01*
X116960523Y-150152116D01*
X116927393Y-150072529D01*
X116906876Y-149983365D01*
X116899743Y-149882838D01*
X116899743Y-149488838D01*
X116900216Y-149482170D01*
X117099607Y-149482170D01*
X117099607Y-149889592D01*
X117108946Y-149979331D01*
X117135511Y-150054578D01*
X117179054Y-150117977D01*
X117236896Y-150164512D01*
X117306363Y-150193255D01*
X117388461Y-150203236D01*
X117470572Y-150193257D01*
X117540111Y-150164512D01*
X117597902Y-150117987D01*
X117641497Y-150054578D01*
X117667998Y-149979336D01*
X117677315Y-149889592D01*
X117677315Y-149482170D01*
X117667993Y-149392363D01*
X117641497Y-149317184D01*
X117597895Y-149253704D01*
X117540111Y-149207165D01*
X117470572Y-149178419D01*
X117388461Y-149168440D01*
X117306363Y-149178422D01*
X117236896Y-149207165D01*
X117179060Y-149253714D01*
X117135511Y-149317184D01*
X117108950Y-149392368D01*
X117099607Y-149482170D01*
X116900216Y-149482170D01*
X116906878Y-149388312D01*
X116927395Y-149299178D01*
X116960523Y-149219646D01*
X117006940Y-149147530D01*
X117063868Y-149088007D01*
X117132177Y-149039871D01*
X117208445Y-149005068D01*
X117293286Y-148983675D01*
X117388461Y-148976270D01*
X117483693Y-148983677D01*
G37*
G36*
X116470438Y-150195628D02*
G01*
X116155853Y-150195628D01*
X116078814Y-150189979D01*
X116014802Y-150174174D01*
X115961522Y-150149344D01*
X115917179Y-150115785D01*
X115881198Y-150073305D01*
X115854957Y-150022774D01*
X115838425Y-149962577D01*
X115832549Y-149890532D01*
X115832549Y-149481230D01*
X115838427Y-149409137D01*
X115854963Y-149348928D01*
X115881204Y-149298416D01*
X115917179Y-149255977D01*
X115961522Y-149222418D01*
X116014802Y-149197588D01*
X116078814Y-149181783D01*
X116155853Y-149176134D01*
X116470438Y-149176134D01*
X116470438Y-148990546D01*
X116161580Y-148990546D01*
X116051190Y-148997591D01*
X115956693Y-149017491D01*
X115875633Y-149048932D01*
X115802230Y-149094198D01*
X115742434Y-149150615D01*
X115694832Y-149219133D01*
X115661219Y-149296057D01*
X115640120Y-149385162D01*
X115632685Y-149488838D01*
X115632685Y-149882838D01*
X115640120Y-149986514D01*
X115661219Y-150075619D01*
X115694832Y-150152544D01*
X115742453Y-150221039D01*
X115802382Y-150277489D01*
X115876060Y-150322830D01*
X115957446Y-150354239D01*
X116052128Y-150374104D01*
X116162521Y-150381131D01*
X116470438Y-150381131D01*
X116470438Y-150195628D01*
G37*
G36*
X116602426Y-148990546D02*
G01*
X116407350Y-148990546D01*
X116407350Y-150381131D01*
X116602426Y-150381131D01*
X116602426Y-148990546D01*
G37*
G36*
X114053178Y-149647584D02*
G01*
X114053178Y-149833172D01*
X114829810Y-149833172D01*
X114829810Y-149647584D01*
X114053178Y-149647584D01*
G37*
G36*
X114343913Y-150128608D02*
G01*
X114539075Y-150128608D01*
X114539075Y-149352062D01*
X114343913Y-149352062D01*
X114343913Y-150128608D01*
G37*
G36*
X113077880Y-149770939D02*
G01*
X112463927Y-148990546D01*
X112223885Y-148990546D01*
X113106603Y-150063639D01*
X113077880Y-149770939D01*
G37*
G36*
X113230898Y-148990546D02*
G01*
X113035821Y-148990546D01*
X113035821Y-150381131D01*
X113230898Y-150381131D01*
X113230898Y-148990546D01*
G37*
G36*
X112846472Y-149638950D02*
G01*
X112692514Y-149496532D01*
X112165499Y-150381131D01*
X112404600Y-150381131D01*
X112846472Y-149638950D01*
G37*
G36*
X111595228Y-148990546D02*
G01*
X111428789Y-148990546D01*
X110916221Y-150381131D01*
X111126600Y-150381131D01*
X111512051Y-149259311D01*
X111897418Y-150381131D01*
X112107796Y-150381131D01*
X111595228Y-148990546D01*
G37*
G36*
X111871601Y-149890532D02*
G01*
X111140021Y-149890532D01*
X111140021Y-150076035D01*
X111871601Y-150076035D01*
X111871601Y-149890532D01*
G37*
G36*
X110542566Y-149104412D02*
G01*
X110347404Y-149104412D01*
X110347404Y-150381131D01*
X110542566Y-150381131D01*
X110542566Y-149104412D01*
G37*
G36*
X110935626Y-148990546D02*
G01*
X109954344Y-148990546D01*
X109954344Y-149176134D01*
X110935626Y-149176134D01*
X110935626Y-148990546D01*
G37*
G36*
X109437162Y-148983677D02*
G01*
X109522030Y-149005071D01*
X109598299Y-149039871D01*
X109666560Y-149087998D01*
X109723490Y-149147521D01*
X109769953Y-149219646D01*
X109803032Y-149299173D01*
X109823522Y-149388307D01*
X109830647Y-149488838D01*
X109830647Y-149882838D01*
X109823523Y-149983370D01*
X109803035Y-150072534D01*
X109769953Y-150152116D01*
X109723499Y-150224192D01*
X109666569Y-150283718D01*
X109598299Y-150331891D01*
X109522030Y-150366692D01*
X109437162Y-150388085D01*
X109341929Y-150395492D01*
X109246754Y-150388087D01*
X109161913Y-150366694D01*
X109085645Y-150331891D01*
X109017328Y-150283710D01*
X108960400Y-150224183D01*
X108913991Y-150152116D01*
X108880861Y-150072529D01*
X108860345Y-149983365D01*
X108853212Y-149882838D01*
X108853212Y-149488838D01*
X108853685Y-149482170D01*
X109053075Y-149482170D01*
X109053075Y-149889592D01*
X109062414Y-149979331D01*
X109088979Y-150054578D01*
X109132522Y-150117977D01*
X109190364Y-150164512D01*
X109259831Y-150193255D01*
X109341929Y-150203236D01*
X109424040Y-150193257D01*
X109493580Y-150164512D01*
X109551370Y-150117987D01*
X109594965Y-150054578D01*
X109621466Y-149979336D01*
X109630783Y-149889592D01*
X109630783Y-149482170D01*
X109621461Y-149392363D01*
X109594965Y-149317184D01*
X109551364Y-149253704D01*
X109493580Y-149207165D01*
X109424040Y-149178419D01*
X109341929Y-149168440D01*
X109259831Y-149178422D01*
X109190364Y-149207165D01*
X109132529Y-149253714D01*
X109088979Y-149317184D01*
X109062418Y-149392368D01*
X109053075Y-149482170D01*
X108853685Y-149482170D01*
X108860346Y-149388312D01*
X108880864Y-149299178D01*
X108913991Y-149219646D01*
X108960408Y-149147530D01*
X109017336Y-149088007D01*
X109085645Y-149039871D01*
X109161913Y-149005068D01*
X109246754Y-148983675D01*
X109341929Y-148976270D01*
X109437162Y-148983677D01*
G37*
G36*
X108423906Y-150195628D02*
G01*
X108109321Y-150195628D01*
X108032283Y-150189979D01*
X107968270Y-150174174D01*
X107914990Y-150149344D01*
X107870647Y-150115785D01*
X107834666Y-150073305D01*
X107808425Y-150022774D01*
X107791893Y-149962577D01*
X107786017Y-149890532D01*
X107786017Y-149481230D01*
X107791895Y-149409137D01*
X107808431Y-149348928D01*
X107834672Y-149298416D01*
X107870647Y-149255977D01*
X107914990Y-149222418D01*
X107968270Y-149197588D01*
X108032283Y-149181783D01*
X108109321Y-149176134D01*
X108423906Y-149176134D01*
X108423906Y-148990546D01*
X108115049Y-148990546D01*
X108004659Y-148997591D01*
X107910162Y-149017491D01*
X107829101Y-149048932D01*
X107755698Y-149094198D01*
X107695902Y-149150615D01*
X107648301Y-149219133D01*
X107614688Y-149296057D01*
X107593588Y-149385162D01*
X107586153Y-149488838D01*
X107586153Y-149882838D01*
X107593588Y-149986514D01*
X107614688Y-150075619D01*
X107648301Y-150152544D01*
X107695921Y-150221039D01*
X107755850Y-150277489D01*
X107829529Y-150322830D01*
X107910915Y-150354239D01*
X108005597Y-150374104D01*
X108115989Y-150381131D01*
X108423906Y-150381131D01*
X108423906Y-150195628D01*
G37*
G36*
X108555895Y-148990546D02*
G01*
X108360818Y-148990546D01*
X108360818Y-150381131D01*
X108555895Y-150381131D01*
X108555895Y-148990546D01*
G37*
G36*
X106948948Y-148990546D02*
G01*
X106782508Y-148990546D01*
X106269940Y-150381131D01*
X106480319Y-150381131D01*
X106865771Y-149259311D01*
X107251137Y-150381131D01*
X107461516Y-150381131D01*
X106948948Y-148990546D01*
G37*
G36*
X107225321Y-149890532D02*
G01*
X106493740Y-149890532D01*
X106493740Y-150076035D01*
X107225321Y-150076035D01*
X107225321Y-149890532D01*
G37*
G36*
X105169751Y-148983677D02*
G01*
X105254619Y-149005071D01*
X105330888Y-149039871D01*
X105399149Y-149087998D01*
X105456079Y-149147521D01*
X105502542Y-149219646D01*
X105535621Y-149299173D01*
X105556111Y-149388307D01*
X105563236Y-149488838D01*
X105563236Y-149882838D01*
X105556112Y-149983370D01*
X105535624Y-150072534D01*
X105502542Y-150152116D01*
X105456088Y-150224192D01*
X105399158Y-150283718D01*
X105330888Y-150331891D01*
X105254619Y-150366692D01*
X105169751Y-150388085D01*
X105074518Y-150395492D01*
X104979343Y-150388087D01*
X104894502Y-150366694D01*
X104818234Y-150331891D01*
X104749917Y-150283710D01*
X104692989Y-150224183D01*
X104646580Y-150152116D01*
X104613450Y-150072529D01*
X104592934Y-149983365D01*
X104585801Y-149882838D01*
X104585801Y-149488838D01*
X104586274Y-149482170D01*
X104785664Y-149482170D01*
X104785664Y-149889592D01*
X104795003Y-149979331D01*
X104821568Y-150054578D01*
X104865111Y-150117977D01*
X104922953Y-150164512D01*
X104992420Y-150193255D01*
X105074518Y-150203236D01*
X105156629Y-150193257D01*
X105226169Y-150164512D01*
X105283959Y-150117987D01*
X105327554Y-150054578D01*
X105354055Y-149979336D01*
X105363372Y-149889592D01*
X105363372Y-149482170D01*
X105354050Y-149392363D01*
X105327554Y-149317184D01*
X105283953Y-149253704D01*
X105226169Y-149207165D01*
X105156629Y-149178419D01*
X105074518Y-149168440D01*
X104992420Y-149178422D01*
X104922953Y-149207165D01*
X104865117Y-149253714D01*
X104821568Y-149317184D01*
X104795007Y-149392368D01*
X104785664Y-149482170D01*
X104586274Y-149482170D01*
X104592935Y-149388312D01*
X104613453Y-149299178D01*
X104646580Y-149219646D01*
X104692997Y-149147530D01*
X104749925Y-149088007D01*
X104818234Y-149039871D01*
X104894502Y-149005068D01*
X104979343Y-148983675D01*
X105074518Y-148976270D01*
X105169751Y-148983677D01*
G37*
G36*
X104288484Y-148990546D02*
G01*
X104093407Y-148990546D01*
X104093407Y-150381131D01*
X104288484Y-150381131D01*
X104288484Y-148990546D01*
G37*
G36*
X104190945Y-150195628D02*
G01*
X103395251Y-150195628D01*
X103395251Y-150381131D01*
X104190945Y-150381131D01*
X104190945Y-150195628D01*
G37*
G36*
X102839088Y-148983677D02*
G01*
X102923956Y-149005071D01*
X103000225Y-149039871D01*
X103068486Y-149087998D01*
X103125416Y-149147521D01*
X103171879Y-149219646D01*
X103204958Y-149299173D01*
X103225448Y-149388307D01*
X103232573Y-149488838D01*
X103232573Y-149882838D01*
X103225449Y-149983370D01*
X103204961Y-150072534D01*
X103171879Y-150152116D01*
X103125425Y-150224192D01*
X103068495Y-150283718D01*
X103000225Y-150331891D01*
X102923956Y-150366692D01*
X102839088Y-150388085D01*
X102743855Y-150395492D01*
X102648680Y-150388087D01*
X102563839Y-150366694D01*
X102487571Y-150331891D01*
X102419254Y-150283710D01*
X102362326Y-150224183D01*
X102315917Y-150152116D01*
X102282787Y-150072529D01*
X102262271Y-149983365D01*
X102255138Y-149882838D01*
X102255138Y-149488838D01*
X102255611Y-149482170D01*
X102455002Y-149482170D01*
X102455002Y-149889592D01*
X102464340Y-149979331D01*
X102490905Y-150054578D01*
X102534448Y-150117977D01*
X102592290Y-150164512D01*
X102661757Y-150193255D01*
X102743855Y-150203236D01*
X102825966Y-150193257D01*
X102895506Y-150164512D01*
X102953296Y-150117987D01*
X102996891Y-150054578D01*
X103023392Y-149979336D01*
X103032709Y-149889592D01*
X103032709Y-149482170D01*
X103023387Y-149392363D01*
X102996891Y-149317184D01*
X102953290Y-149253704D01*
X102895506Y-149207165D01*
X102825966Y-149178419D01*
X102743855Y-149168440D01*
X102661757Y-149178422D01*
X102592290Y-149207165D01*
X102534455Y-149253714D01*
X102490905Y-149317184D01*
X102464344Y-149392368D01*
X102455002Y-149482170D01*
X102255611Y-149482170D01*
X102262272Y-149388312D01*
X102282790Y-149299178D01*
X102315917Y-149219646D01*
X102362335Y-149147530D01*
X102419263Y-149088007D01*
X102487571Y-149039871D01*
X102563839Y-149005068D01*
X102648680Y-148983675D01*
X102743855Y-148976270D01*
X102839088Y-148983677D01*
G37*
G36*
X100958416Y-148990546D02*
G01*
X100775734Y-148990546D01*
X100775734Y-150381131D01*
X100966109Y-150381131D01*
X100966109Y-149339667D01*
X100956535Y-149400874D01*
X101298902Y-150187934D01*
X101434738Y-150187934D01*
X101777105Y-149420023D01*
X101767531Y-149339667D01*
X101767531Y-150381131D01*
X101957821Y-150381131D01*
X101957821Y-148990546D01*
X101775139Y-148990546D01*
X101366778Y-149908655D01*
X100958416Y-148990546D01*
G37*
G36*
X100066638Y-148983677D02*
G01*
X100151506Y-149005071D01*
X100227775Y-149039871D01*
X100296037Y-149087998D01*
X100352967Y-149147521D01*
X100399429Y-149219646D01*
X100432509Y-149299173D01*
X100452999Y-149388307D01*
X100460124Y-149488838D01*
X100460124Y-149882838D01*
X100453000Y-149983370D01*
X100432512Y-150072534D01*
X100399429Y-150152116D01*
X100352975Y-150224192D01*
X100296045Y-150283718D01*
X100227775Y-150331891D01*
X100151506Y-150366692D01*
X100066638Y-150388085D01*
X99971406Y-150395492D01*
X99876231Y-150388087D01*
X99791390Y-150366694D01*
X99715122Y-150331891D01*
X99646804Y-150283710D01*
X99589877Y-150224183D01*
X99543468Y-150152116D01*
X99510338Y-150072529D01*
X99489821Y-149983365D01*
X99482688Y-149882838D01*
X99482688Y-149488838D01*
X99483161Y-149482170D01*
X99682552Y-149482170D01*
X99682552Y-149889592D01*
X99691891Y-149979331D01*
X99718456Y-150054578D01*
X99761999Y-150117977D01*
X99819841Y-150164512D01*
X99889307Y-150193255D01*
X99971406Y-150203236D01*
X100053517Y-150193257D01*
X100123056Y-150164512D01*
X100180846Y-150117987D01*
X100224441Y-150054578D01*
X100250942Y-149979336D01*
X100260260Y-149889592D01*
X100260260Y-149482170D01*
X100250938Y-149392363D01*
X100224441Y-149317184D01*
X100180840Y-149253704D01*
X100123056Y-149207165D01*
X100053517Y-149178419D01*
X99971406Y-149168440D01*
X99889307Y-149178422D01*
X99819841Y-149207165D01*
X99762005Y-149253714D01*
X99718456Y-149317184D01*
X99691895Y-149392368D01*
X99682552Y-149482170D01*
X99483161Y-149482170D01*
X99489823Y-149388312D01*
X99510340Y-149299178D01*
X99543468Y-149219646D01*
X99589885Y-149147530D01*
X99646813Y-149088007D01*
X99715122Y-149039871D01*
X99791390Y-149005068D01*
X99876231Y-148983675D01*
X99971406Y-148976270D01*
X100066638Y-148983677D01*
G37*
G36*
X100061336Y-148782048D02*
G01*
X99953283Y-148894974D01*
X99671183Y-148678782D01*
X99797358Y-148547819D01*
X100061336Y-148782048D01*
G37*
G36*
X98749312Y-150395492D02*
G01*
X98843820Y-150388031D01*
X98927848Y-150366495D01*
X99003203Y-150331464D01*
X99070500Y-150282983D01*
X99126833Y-150222836D01*
X99172976Y-150149723D01*
X99205800Y-150069266D01*
X99226159Y-149978994D01*
X99233243Y-149877111D01*
X99233243Y-149495506D01*
X99226160Y-149393680D01*
X99205803Y-149303436D01*
X99172976Y-149222980D01*
X99126850Y-149149839D01*
X99070516Y-149089543D01*
X99003203Y-149040811D01*
X98927818Y-149005489D01*
X98843793Y-148983786D01*
X98749312Y-148976270D01*
X98670890Y-148982091D01*
X98597906Y-148999199D01*
X98529360Y-149027476D01*
X98466180Y-149066207D01*
X98410444Y-149114245D01*
X98361552Y-149172287D01*
X98321855Y-149237208D01*
X98291363Y-149309247D01*
X98270169Y-149389419D01*
X98470033Y-149389419D01*
X98494389Y-149327740D01*
X98530813Y-149273245D01*
X98577297Y-149227713D01*
X98630745Y-149194342D01*
X98689360Y-149173437D01*
X98749312Y-149166560D01*
X98804857Y-149171327D01*
X98854226Y-149185119D01*
X98898569Y-149207678D01*
X98954966Y-149256500D01*
X98997988Y-149322912D01*
X99024124Y-149401156D01*
X99033379Y-149495506D01*
X99033379Y-149877111D01*
X99024160Y-149970708D01*
X98997988Y-150049278D01*
X98954908Y-150116013D01*
X98898569Y-150164512D01*
X98854257Y-150186777D01*
X98804885Y-150200404D01*
X98749312Y-150205117D01*
X98688511Y-150198672D01*
X98630232Y-150179300D01*
X98577254Y-150147529D01*
X98530813Y-150102791D01*
X98494651Y-150047963D01*
X98470033Y-149982343D01*
X98270169Y-149982343D01*
X98291398Y-150062435D01*
X98322027Y-150134476D01*
X98361980Y-150199475D01*
X98411175Y-150257544D01*
X98467087Y-150305610D01*
X98530300Y-150344372D01*
X98598831Y-150372629D01*
X98671511Y-150389695D01*
X98749312Y-150395492D01*
G37*
G36*
X123606864Y-152012388D02*
G01*
X123411134Y-152012388D01*
X123411134Y-153502300D01*
X123615107Y-153502300D01*
X123615107Y-152386446D01*
X123604849Y-152452025D01*
X123971671Y-153295304D01*
X124117209Y-153295304D01*
X124484032Y-152472541D01*
X124473773Y-152386446D01*
X124473773Y-153502300D01*
X124677655Y-153502300D01*
X124677655Y-152012388D01*
X124481925Y-152012388D01*
X124044394Y-152996076D01*
X123606864Y-152012388D01*
G37*
G36*
X122651388Y-152005028D02*
G01*
X122742318Y-152027950D01*
X122824035Y-152065236D01*
X122897172Y-152116801D01*
X122958169Y-152180575D01*
X123007950Y-152257852D01*
X123043392Y-152343060D01*
X123065346Y-152438560D01*
X123072980Y-152546272D01*
X123072980Y-152968415D01*
X123065347Y-153076127D01*
X123043395Y-153171660D01*
X123007950Y-153256927D01*
X122958178Y-153334151D01*
X122897181Y-153397929D01*
X122824035Y-153449543D01*
X122742318Y-153486829D01*
X122651388Y-153509751D01*
X122549353Y-153517687D01*
X122447380Y-153509753D01*
X122356479Y-153486832D01*
X122274763Y-153449543D01*
X122201566Y-153397920D01*
X122140572Y-153334142D01*
X122090849Y-153256927D01*
X122055352Y-153171655D01*
X122033370Y-153076123D01*
X122025727Y-152968415D01*
X122025727Y-152546272D01*
X122026234Y-152539128D01*
X122239867Y-152539128D01*
X122239867Y-152975651D01*
X122249873Y-153071800D01*
X122278335Y-153152422D01*
X122324989Y-153220350D01*
X122386962Y-153270208D01*
X122461391Y-153301004D01*
X122549353Y-153311698D01*
X122637330Y-153301007D01*
X122711836Y-153270208D01*
X122773754Y-153220360D01*
X122820463Y-153152422D01*
X122848857Y-153071806D01*
X122858840Y-152975651D01*
X122858840Y-152539128D01*
X122848852Y-152442906D01*
X122820463Y-152362357D01*
X122773747Y-152294342D01*
X122711836Y-152244479D01*
X122637330Y-152213681D01*
X122549353Y-152202989D01*
X122461391Y-152213683D01*
X122386962Y-152244479D01*
X122324995Y-152294353D01*
X122278335Y-152362357D01*
X122249877Y-152442911D01*
X122239867Y-152539128D01*
X122026234Y-152539128D01*
X122033371Y-152438565D01*
X122055354Y-152343065D01*
X122090849Y-152257852D01*
X122140581Y-152180585D01*
X122201575Y-152116810D01*
X122274763Y-152065236D01*
X122356479Y-152027946D01*
X122447380Y-152005026D01*
X122549353Y-151997092D01*
X122651388Y-152005028D01*
G37*
G36*
X121599646Y-152725607D02*
G01*
X121123097Y-152725607D01*
X121058752Y-152717433D01*
X121004304Y-152693825D01*
X120959156Y-152655799D01*
X120924894Y-152603700D01*
X120904014Y-152542217D01*
X120896684Y-152469427D01*
X120904041Y-152395769D01*
X120924894Y-152334239D01*
X120959142Y-152281970D01*
X121004304Y-152243563D01*
X121058788Y-152219538D01*
X121123097Y-152211232D01*
X121599646Y-152211232D01*
X121599646Y-152012388D01*
X121130333Y-152012388D01*
X121042984Y-152019028D01*
X120965303Y-152038181D01*
X120895677Y-152069266D01*
X120833033Y-152112420D01*
X120780899Y-152165551D01*
X120738415Y-152229642D01*
X120707930Y-152300592D01*
X120689089Y-152379980D01*
X120682544Y-152469427D01*
X120689096Y-152558871D01*
X120707944Y-152638097D01*
X120738415Y-152708754D01*
X120780886Y-152772461D01*
X120833015Y-152825229D01*
X120895677Y-152868031D01*
X120965271Y-152898805D01*
X121042956Y-152917779D01*
X121130333Y-152924360D01*
X121599646Y-152924360D01*
X121599646Y-152725607D01*
G37*
G36*
X121707174Y-152012388D02*
G01*
X121498163Y-152012388D01*
X121498163Y-153502300D01*
X121707174Y-153502300D01*
X121707174Y-152012388D01*
G37*
G36*
X120077311Y-153517687D02*
G01*
X120174409Y-153511045D01*
X120257724Y-153492232D01*
X120329461Y-153462366D01*
X120393646Y-153419710D01*
X120446440Y-153365980D01*
X120488829Y-153299975D01*
X120518352Y-153226591D01*
X120537003Y-153141097D01*
X120543601Y-153041230D01*
X120543601Y-152921337D01*
X120537217Y-152817130D01*
X120519211Y-152728077D01*
X120490844Y-152651876D01*
X120449701Y-152582458D01*
X120398853Y-152526261D01*
X120337612Y-152481792D01*
X120268442Y-152450125D01*
X120188564Y-152430321D01*
X120095812Y-152423357D01*
X120009088Y-152431170D01*
X119933991Y-152453565D01*
X119868300Y-152489943D01*
X119811683Y-152539576D01*
X119763756Y-152603027D01*
X119724410Y-152682559D01*
X119697757Y-152768005D01*
X119680729Y-152867968D01*
X119674676Y-152984810D01*
X119674676Y-153054511D01*
X120391926Y-153054511D01*
X120391926Y-152886441D01*
X119873429Y-152886441D01*
X119886094Y-152801473D01*
X119908952Y-152735278D01*
X119940565Y-152684116D01*
X119983484Y-152644008D01*
X120034369Y-152620147D01*
X120095812Y-152611851D01*
X120171378Y-152621125D01*
X120231466Y-152647197D01*
X120279727Y-152689795D01*
X120314261Y-152745288D01*
X120336579Y-152817183D01*
X120344756Y-152910072D01*
X120344756Y-153045260D01*
X120336132Y-153130743D01*
X120312431Y-153196934D01*
X120275147Y-153248226D01*
X120224473Y-153286234D01*
X120159891Y-153310182D01*
X120077311Y-153318843D01*
X120014560Y-153312549D01*
X119951373Y-153293289D01*
X119892137Y-153262523D01*
X119839632Y-153221573D01*
X119702337Y-153358868D01*
X119786336Y-153426292D01*
X119879565Y-153476196D01*
X119979051Y-153507495D01*
X120077311Y-153517687D01*
G37*
G36*
X119225422Y-153303547D02*
G01*
X118888367Y-153303547D01*
X118805826Y-153297494D01*
X118737241Y-153280560D01*
X118680155Y-153253957D01*
X118632645Y-153218001D01*
X118594093Y-153172486D01*
X118565978Y-153118347D01*
X118548265Y-153053849D01*
X118541969Y-152976658D01*
X118541969Y-152538120D01*
X118548268Y-152460877D01*
X118565985Y-152396369D01*
X118594100Y-152342248D01*
X118632645Y-152296778D01*
X118680155Y-152260822D01*
X118737241Y-152234218D01*
X118805826Y-152217284D01*
X118888367Y-152211232D01*
X119225422Y-152211232D01*
X119225422Y-152012388D01*
X118894503Y-152012388D01*
X118776229Y-152019935D01*
X118674982Y-152041257D01*
X118588131Y-152074944D01*
X118509485Y-152123443D01*
X118445418Y-152183890D01*
X118394416Y-152257302D01*
X118358402Y-152339721D01*
X118335796Y-152435191D01*
X118327830Y-152546272D01*
X118327830Y-152968415D01*
X118335796Y-153079496D01*
X118358402Y-153174966D01*
X118394416Y-153257385D01*
X118445439Y-153330773D01*
X118509648Y-153391255D01*
X118588589Y-153439834D01*
X118675788Y-153473488D01*
X118777234Y-153494771D01*
X118895511Y-153502300D01*
X119225422Y-153502300D01*
X119225422Y-153303547D01*
G37*
G36*
X119366839Y-152012388D02*
G01*
X119157828Y-152012388D01*
X119157828Y-153502300D01*
X119366839Y-153502300D01*
X119366839Y-152012388D01*
G37*
G36*
X117200160Y-153517687D02*
G01*
X117278289Y-153512184D01*
X117350722Y-153496056D01*
X117418422Y-153469510D01*
X117480984Y-153432777D01*
X117534651Y-153387842D01*
X117580263Y-153334230D01*
X117409171Y-153211315D01*
X117374365Y-153255617D01*
X117326190Y-153289167D01*
X117268804Y-153309629D01*
X117200160Y-153316828D01*
X117122213Y-153307722D01*
X117060452Y-153282245D01*
X117011116Y-153240990D01*
X116975262Y-153186659D01*
X116952329Y-153117048D01*
X116943980Y-153027858D01*
X116943980Y-152012388D01*
X116734969Y-152012388D01*
X116734969Y-153028865D01*
X116741520Y-153130934D01*
X116760030Y-153218316D01*
X116789283Y-153293289D01*
X116831431Y-153361047D01*
X116884061Y-153416310D01*
X116948102Y-153460351D01*
X117019902Y-153491342D01*
X117103176Y-153510818D01*
X117200160Y-153517687D01*
G37*
G36*
X116365583Y-152012388D02*
G01*
X116156572Y-152012388D01*
X116156572Y-153502300D01*
X116365583Y-153502300D01*
X116365583Y-152012388D01*
G37*
G36*
X116264191Y-153303547D02*
G01*
X115408547Y-153303547D01*
X115408547Y-153502300D01*
X116264191Y-153502300D01*
X116264191Y-153303547D01*
G37*
G36*
X116264191Y-152663051D02*
G01*
X115521296Y-152663051D01*
X115521296Y-152861895D01*
X116264191Y-152861895D01*
X116264191Y-152663051D01*
G37*
G36*
X116264191Y-152012388D02*
G01*
X115408547Y-152012388D01*
X115408547Y-152211232D01*
X116264191Y-152211232D01*
X116264191Y-152012388D01*
G37*
G36*
X114663363Y-153517687D02*
G01*
X114769276Y-153512445D01*
X114867336Y-153497170D01*
X114961028Y-153471338D01*
X115047129Y-153435713D01*
X115127745Y-153389714D01*
X115203383Y-153333222D01*
X115073233Y-153173396D01*
X114983495Y-153238138D01*
X114885746Y-153284038D01*
X114780208Y-153311504D01*
X114663363Y-153320949D01*
X114556686Y-153313253D01*
X114474769Y-153292476D01*
X114412403Y-153261049D01*
X114362616Y-153215247D01*
X114333359Y-153159785D01*
X114323193Y-153091422D01*
X114323193Y-153090414D01*
X114328130Y-153039934D01*
X114341867Y-152999496D01*
X114363677Y-152966950D01*
X114409370Y-152927683D01*
X114468182Y-152899356D01*
X114537143Y-152879269D01*
X114633687Y-152858781D01*
X114640373Y-152857773D01*
X114646968Y-152856766D01*
X114662355Y-152853652D01*
X114804581Y-152824843D01*
X114905712Y-152795858D01*
X114964556Y-152768779D01*
X115017778Y-152729899D01*
X115066088Y-152677980D01*
X115101246Y-152617313D01*
X115124210Y-152537927D01*
X115132675Y-152434622D01*
X115132675Y-152433523D01*
X115125327Y-152343098D01*
X115104373Y-152265127D01*
X115070668Y-152197402D01*
X115023830Y-152138144D01*
X114964191Y-152088580D01*
X114889867Y-152048291D01*
X114809022Y-152020812D01*
X114714483Y-152003307D01*
X114603920Y-151997092D01*
X114524607Y-152001450D01*
X114446658Y-152014494D01*
X114370179Y-152036001D01*
X114293976Y-152066243D01*
X114220054Y-152104586D01*
X114145965Y-152152797D01*
X114264758Y-152318760D01*
X114351399Y-152263172D01*
X114434385Y-152225062D01*
X114519640Y-152201527D01*
X114603920Y-152193830D01*
X114704202Y-152201596D01*
X114781666Y-152222668D01*
X114841141Y-152254829D01*
X114887967Y-152300880D01*
X114915890Y-152357276D01*
X114925679Y-152427387D01*
X114925679Y-152428394D01*
X114920417Y-152477935D01*
X114905722Y-152517528D01*
X114882174Y-152549386D01*
X114833871Y-152587279D01*
X114773547Y-152614416D01*
X114592654Y-152657921D01*
X114585052Y-152659570D01*
X114577359Y-152661036D01*
X114566093Y-152663142D01*
X114554736Y-152665157D01*
X114425645Y-152696854D01*
X114328872Y-152730736D01*
X114272041Y-152760956D01*
X114221699Y-152801452D01*
X114177197Y-152853194D01*
X114144823Y-152912588D01*
X114123853Y-152988193D01*
X114116197Y-153084186D01*
X114116197Y-153086293D01*
X114123805Y-153175200D01*
X114145568Y-153252169D01*
X114180769Y-153319392D01*
X114229214Y-153377806D01*
X114290879Y-153426896D01*
X114367798Y-153466945D01*
X114450963Y-153494126D01*
X114548667Y-153511502D01*
X114663363Y-153517687D01*
G37*
G36*
X113357549Y-153517687D02*
G01*
X113465981Y-153509912D01*
X113559280Y-153487839D01*
X113639924Y-153452657D01*
X113711733Y-153402787D01*
X113771003Y-153340085D01*
X113818710Y-153263064D01*
X113851825Y-153177902D01*
X113872762Y-153078822D01*
X113880167Y-152963286D01*
X113880167Y-152012388D01*
X113671156Y-152012388D01*
X113671156Y-152970522D01*
X113660984Y-153076115D01*
X113633023Y-153158408D01*
X113589182Y-153222580D01*
X113545469Y-153260545D01*
X113493500Y-153288160D01*
X113431617Y-153305529D01*
X113357549Y-153311698D01*
X113282990Y-153305522D01*
X113220723Y-153288139D01*
X113168466Y-153260520D01*
X113124541Y-153222580D01*
X113080385Y-153158365D01*
X113052248Y-153076070D01*
X113042017Y-152970522D01*
X113042017Y-152012388D01*
X112832915Y-152012388D01*
X112832915Y-152963286D01*
X112840330Y-153078817D01*
X112861298Y-153177896D01*
X112894464Y-153263064D01*
X112942155Y-153340036D01*
X113001594Y-153402743D01*
X113073800Y-153452657D01*
X113154745Y-153487826D01*
X113248495Y-153509905D01*
X113357549Y-153517687D01*
G37*
G36*
X112076831Y-153517687D02*
G01*
X112182745Y-153512445D01*
X112280804Y-153497170D01*
X112374496Y-153471338D01*
X112460597Y-153435713D01*
X112541213Y-153389714D01*
X112616852Y-153333222D01*
X112486701Y-153173396D01*
X112396963Y-153238138D01*
X112299214Y-153284038D01*
X112193677Y-153311504D01*
X112076831Y-153320949D01*
X111970154Y-153313253D01*
X111888237Y-153292476D01*
X111825871Y-153261049D01*
X111776085Y-153215247D01*
X111746828Y-153159785D01*
X111736662Y-153091422D01*
X111736662Y-153090414D01*
X111741598Y-153039934D01*
X111755335Y-152999496D01*
X111777145Y-152966950D01*
X111822838Y-152927683D01*
X111881650Y-152899356D01*
X111950611Y-152879269D01*
X112047155Y-152858781D01*
X112053841Y-152857773D01*
X112060436Y-152856766D01*
X112075823Y-152853652D01*
X112218050Y-152824843D01*
X112319181Y-152795858D01*
X112378025Y-152768779D01*
X112431246Y-152729899D01*
X112479557Y-152677980D01*
X112514715Y-152617313D01*
X112537679Y-152537927D01*
X112546143Y-152434622D01*
X112546143Y-152433523D01*
X112538795Y-152343098D01*
X112517841Y-152265127D01*
X112484136Y-152197402D01*
X112437298Y-152138144D01*
X112377659Y-152088580D01*
X112303335Y-152048291D01*
X112222490Y-152020812D01*
X112127951Y-152003307D01*
X112017388Y-151997092D01*
X111938075Y-152001450D01*
X111860126Y-152014494D01*
X111783647Y-152036001D01*
X111707444Y-152066243D01*
X111633522Y-152104586D01*
X111559433Y-152152797D01*
X111678226Y-152318760D01*
X111764867Y-152263172D01*
X111847853Y-152225062D01*
X111933108Y-152201527D01*
X112017388Y-152193830D01*
X112117670Y-152201596D01*
X112195134Y-152222668D01*
X112254609Y-152254829D01*
X112301435Y-152300880D01*
X112329358Y-152357276D01*
X112339148Y-152427387D01*
X112339148Y-152428394D01*
X112333885Y-152477935D01*
X112319190Y-152517528D01*
X112295642Y-152549386D01*
X112247339Y-152587279D01*
X112187015Y-152614416D01*
X112006122Y-152657921D01*
X111998520Y-152659570D01*
X111990827Y-152661036D01*
X111979561Y-152663142D01*
X111968204Y-152665157D01*
X111839113Y-152696854D01*
X111742340Y-152730736D01*
X111685510Y-152760956D01*
X111635167Y-152801452D01*
X111590665Y-152853194D01*
X111558292Y-152912588D01*
X111537321Y-152988193D01*
X111529666Y-153084186D01*
X111529666Y-153086293D01*
X111537273Y-153175200D01*
X111559036Y-153252169D01*
X111594237Y-153319392D01*
X111642683Y-153377806D01*
X111704347Y-153426896D01*
X111781266Y-153466945D01*
X111864432Y-153494126D01*
X111962136Y-153511502D01*
X112076831Y-153517687D01*
G37*
G36*
X124229866Y-156037687D02*
G01*
X124335780Y-156032445D01*
X124433840Y-156017170D01*
X124527532Y-155991338D01*
X124613633Y-155955713D01*
X124694248Y-155909714D01*
X124769887Y-155853222D01*
X124639736Y-155693396D01*
X124549999Y-155758138D01*
X124452249Y-155804038D01*
X124346712Y-155831504D01*
X124229866Y-155840949D01*
X124123190Y-155833253D01*
X124041273Y-155812476D01*
X123978907Y-155781049D01*
X123929120Y-155735247D01*
X123899863Y-155679785D01*
X123889697Y-155611422D01*
X123889697Y-155610414D01*
X123894633Y-155559934D01*
X123908371Y-155519496D01*
X123930180Y-155486950D01*
X123975874Y-155447683D01*
X124034686Y-155419356D01*
X124103647Y-155399269D01*
X124200191Y-155378781D01*
X124206877Y-155377773D01*
X124213472Y-155376766D01*
X124228859Y-155373652D01*
X124371085Y-155344843D01*
X124472216Y-155315858D01*
X124531060Y-155288779D01*
X124584282Y-155249899D01*
X124632592Y-155197980D01*
X124667750Y-155137313D01*
X124690714Y-155057927D01*
X124699179Y-154954622D01*
X124699179Y-154953523D01*
X124691830Y-154863098D01*
X124670877Y-154785127D01*
X124637172Y-154717402D01*
X124590334Y-154658144D01*
X124530695Y-154608580D01*
X124456371Y-154568291D01*
X124375526Y-154540812D01*
X124280987Y-154523307D01*
X124170424Y-154517092D01*
X124091111Y-154521450D01*
X124013162Y-154534494D01*
X123936682Y-154556001D01*
X123860480Y-154586243D01*
X123786558Y-154624586D01*
X123712468Y-154672797D01*
X123831262Y-154838760D01*
X123917903Y-154783172D01*
X124000889Y-154745062D01*
X124086144Y-154721527D01*
X124170424Y-154713830D01*
X124270706Y-154721596D01*
X124348170Y-154742668D01*
X124407645Y-154774829D01*
X124454471Y-154820880D01*
X124482394Y-154877276D01*
X124492183Y-154947387D01*
X124492183Y-154948394D01*
X124486920Y-154997935D01*
X124472226Y-155037528D01*
X124448677Y-155069386D01*
X124400375Y-155107279D01*
X124340050Y-155134416D01*
X124159158Y-155177921D01*
X124151556Y-155179570D01*
X124143862Y-155181036D01*
X124132597Y-155183142D01*
X124121239Y-155185157D01*
X123992149Y-155216854D01*
X123895376Y-155250736D01*
X123838545Y-155280956D01*
X123788203Y-155321452D01*
X123743701Y-155373194D01*
X123711327Y-155432588D01*
X123690356Y-155508193D01*
X123682701Y-155604186D01*
X123682701Y-155606293D01*
X123690309Y-155695200D01*
X123712072Y-155772169D01*
X123747273Y-155839392D01*
X123795718Y-155897806D01*
X123857383Y-155946896D01*
X123934302Y-155986945D01*
X124017467Y-156014126D01*
X124115171Y-156031502D01*
X124229866Y-156037687D01*
G37*
G36*
X123168967Y-154654387D02*
G01*
X122959865Y-154654387D01*
X122959865Y-156022300D01*
X123168967Y-156022300D01*
X123168967Y-154654387D01*
G37*
G36*
X123590103Y-154532388D02*
G01*
X122538729Y-154532388D01*
X122538729Y-154731232D01*
X123590103Y-154731232D01*
X123590103Y-154532388D01*
G37*
G36*
X122020965Y-154532388D02*
G01*
X121842637Y-154532388D01*
X121293457Y-156022300D01*
X121518862Y-156022300D01*
X121931846Y-154820350D01*
X122344739Y-156022300D01*
X122570145Y-156022300D01*
X122020965Y-154532388D01*
G37*
G36*
X122317079Y-155496658D02*
G01*
X121533242Y-155496658D01*
X121533242Y-155695411D01*
X122317079Y-155695411D01*
X122317079Y-155496658D01*
G37*
G36*
X120926818Y-155823547D02*
G01*
X120589763Y-155823547D01*
X120507221Y-155817494D01*
X120438637Y-155800560D01*
X120381551Y-155773957D01*
X120334040Y-155738001D01*
X120295489Y-155692486D01*
X120267374Y-155638347D01*
X120249661Y-155573849D01*
X120243365Y-155496658D01*
X120243365Y-155058120D01*
X120249664Y-154980877D01*
X120267381Y-154916369D01*
X120295496Y-154862248D01*
X120334040Y-154816778D01*
X120381551Y-154780822D01*
X120438637Y-154754218D01*
X120507221Y-154737284D01*
X120589763Y-154731232D01*
X120926818Y-154731232D01*
X120926818Y-154532388D01*
X120595899Y-154532388D01*
X120477624Y-154539935D01*
X120376377Y-154561257D01*
X120289527Y-154594944D01*
X120210880Y-154643443D01*
X120146814Y-154703890D01*
X120095812Y-154777302D01*
X120059798Y-154859721D01*
X120037192Y-154955191D01*
X120029225Y-155066272D01*
X120029225Y-155488415D01*
X120037192Y-155599496D01*
X120059798Y-155694966D01*
X120095812Y-155777385D01*
X120146834Y-155850773D01*
X120211044Y-155911255D01*
X120289985Y-155959834D01*
X120377184Y-155993488D01*
X120478629Y-156014771D01*
X120596907Y-156022300D01*
X120926818Y-156022300D01*
X120926818Y-155823547D01*
G37*
G36*
X121068234Y-154532388D02*
G01*
X120859223Y-154532388D01*
X120859223Y-156022300D01*
X121068234Y-156022300D01*
X121068234Y-154532388D01*
G37*
G36*
X119502210Y-156022300D02*
G01*
X119711221Y-156022300D01*
X119711221Y-154532388D01*
X119502210Y-154532388D01*
X119502210Y-156022300D01*
G37*
G36*
X118465766Y-155389039D02*
G01*
X118465766Y-155587791D01*
X119154347Y-155587791D01*
X119154347Y-155389039D01*
X118465766Y-155389039D01*
G37*
G36*
X117679273Y-156037687D02*
G01*
X117785187Y-156032445D01*
X117883247Y-156017170D01*
X117976939Y-155991338D01*
X118063040Y-155955713D01*
X118143655Y-155909714D01*
X118219294Y-155853222D01*
X118089143Y-155693396D01*
X117999406Y-155758138D01*
X117901656Y-155804038D01*
X117796119Y-155831504D01*
X117679273Y-155840949D01*
X117572596Y-155833253D01*
X117490679Y-155812476D01*
X117428314Y-155781049D01*
X117378527Y-155735247D01*
X117349270Y-155679785D01*
X117339104Y-155611422D01*
X117339104Y-155610414D01*
X117344040Y-155559934D01*
X117357778Y-155519496D01*
X117379587Y-155486950D01*
X117425281Y-155447683D01*
X117484093Y-155419356D01*
X117553054Y-155399269D01*
X117649598Y-155378781D01*
X117656284Y-155377773D01*
X117662878Y-155376766D01*
X117678266Y-155373652D01*
X117820492Y-155344843D01*
X117921623Y-155315858D01*
X117980467Y-155288779D01*
X118033688Y-155249899D01*
X118081999Y-155197980D01*
X118117157Y-155137313D01*
X118140121Y-155057927D01*
X118148586Y-154954622D01*
X118148586Y-154953523D01*
X118141237Y-154863098D01*
X118120284Y-154785127D01*
X118086579Y-154717402D01*
X118039741Y-154658144D01*
X117980102Y-154608580D01*
X117905778Y-154568291D01*
X117824933Y-154540812D01*
X117730393Y-154523307D01*
X117619831Y-154517092D01*
X117540518Y-154521450D01*
X117462569Y-154534494D01*
X117386089Y-154556001D01*
X117309886Y-154586243D01*
X117235965Y-154624586D01*
X117161875Y-154672797D01*
X117280669Y-154838760D01*
X117367309Y-154783172D01*
X117450296Y-154745062D01*
X117535551Y-154721527D01*
X117619831Y-154713830D01*
X117720113Y-154721596D01*
X117797576Y-154742668D01*
X117857051Y-154774829D01*
X117903878Y-154820880D01*
X117931801Y-154877276D01*
X117941590Y-154947387D01*
X117941590Y-154948394D01*
X117936327Y-154997935D01*
X117921633Y-155037528D01*
X117898084Y-155069386D01*
X117849781Y-155107279D01*
X117789457Y-155134416D01*
X117608565Y-155177921D01*
X117600963Y-155179570D01*
X117593269Y-155181036D01*
X117582003Y-155183142D01*
X117570646Y-155185157D01*
X117441556Y-155216854D01*
X117344783Y-155250736D01*
X117287952Y-155280956D01*
X117237610Y-155321452D01*
X117193108Y-155373194D01*
X117160734Y-155432588D01*
X117139763Y-155508193D01*
X117132108Y-155604186D01*
X117132108Y-155606293D01*
X117139715Y-155695200D01*
X117161479Y-155772169D01*
X117196680Y-155839392D01*
X117245125Y-155897806D01*
X117306790Y-155946896D01*
X117383709Y-155986945D01*
X117466874Y-156014126D01*
X117564578Y-156031502D01*
X117679273Y-156037687D01*
G37*
G36*
X116747517Y-155245607D02*
G01*
X116270969Y-155245607D01*
X116206624Y-155237433D01*
X116152175Y-155213825D01*
X116107027Y-155175799D01*
X116072766Y-155123700D01*
X116051885Y-155062217D01*
X116044556Y-154989427D01*
X116051912Y-154915769D01*
X116072766Y-154854239D01*
X116107013Y-154801970D01*
X116152175Y-154763563D01*
X116206659Y-154739538D01*
X116270969Y-154731232D01*
X116747517Y-154731232D01*
X116747517Y-154532388D01*
X116278205Y-154532388D01*
X116190856Y-154539028D01*
X116113174Y-154558181D01*
X116043548Y-154589266D01*
X115980905Y-154632420D01*
X115928770Y-154685551D01*
X115886286Y-154749642D01*
X115855801Y-154820592D01*
X115836960Y-154899980D01*
X115830416Y-154989427D01*
X115836968Y-155078871D01*
X115855816Y-155158097D01*
X115886286Y-155228754D01*
X115928757Y-155292461D01*
X115980887Y-155345229D01*
X116043548Y-155388031D01*
X116113143Y-155418805D01*
X116190827Y-155437779D01*
X116278205Y-155444360D01*
X116747517Y-155444360D01*
X116747517Y-155245607D01*
G37*
G36*
X116855045Y-154532388D02*
G01*
X116646034Y-154532388D01*
X116646034Y-156022300D01*
X116855045Y-156022300D01*
X116855045Y-154532388D01*
G37*
G36*
X115359363Y-156022300D02*
G01*
X115568374Y-156022300D01*
X115568374Y-154532388D01*
X115359363Y-154532388D01*
X115359363Y-156022300D01*
G37*
G36*
X115560222Y-154308997D02*
G01*
X115277389Y-154058037D01*
X115142201Y-154198355D01*
X115444451Y-154429989D01*
X115560222Y-154308997D01*
G37*
G36*
X114849567Y-155823547D02*
G01*
X114512512Y-155823547D01*
X114429971Y-155817494D01*
X114361386Y-155800560D01*
X114304300Y-155773957D01*
X114256790Y-155738001D01*
X114218238Y-155692486D01*
X114190123Y-155638347D01*
X114172410Y-155573849D01*
X114166115Y-155496658D01*
X114166115Y-155058120D01*
X114172413Y-154980877D01*
X114190130Y-154916369D01*
X114218245Y-154862248D01*
X114256790Y-154816778D01*
X114304300Y-154780822D01*
X114361386Y-154754218D01*
X114429971Y-154737284D01*
X114512512Y-154731232D01*
X114849567Y-154731232D01*
X114849567Y-154532388D01*
X114518649Y-154532388D01*
X114400374Y-154539935D01*
X114299127Y-154561257D01*
X114212277Y-154594944D01*
X114133630Y-154643443D01*
X114069563Y-154703890D01*
X114018561Y-154777302D01*
X113982548Y-154859721D01*
X113959941Y-154955191D01*
X113951975Y-155066272D01*
X113951975Y-155488415D01*
X113959941Y-155599496D01*
X113982548Y-155694966D01*
X114018561Y-155777385D01*
X114069584Y-155850773D01*
X114133793Y-155911255D01*
X114212734Y-155959834D01*
X114299934Y-155993488D01*
X114401379Y-156014771D01*
X114519656Y-156022300D01*
X114849567Y-156022300D01*
X114849567Y-155823547D01*
G37*
G36*
X114990984Y-154532388D02*
G01*
X114781973Y-154532388D01*
X114781973Y-156022300D01*
X114990984Y-156022300D01*
X114990984Y-154532388D01*
G37*
G36*
X113317080Y-154949791D02*
G01*
X113395312Y-154968049D01*
X113462878Y-154997121D01*
X113523203Y-155038376D01*
X113572957Y-155090244D01*
X113612996Y-155153925D01*
X113640908Y-155224362D01*
X113658523Y-155306130D01*
X113664745Y-155401312D01*
X113664745Y-155574511D01*
X113658510Y-155671124D01*
X113640882Y-155753943D01*
X113612996Y-155825104D01*
X113572922Y-155889403D01*
X113523160Y-155941749D01*
X113462878Y-155983373D01*
X113395279Y-156012753D01*
X113317049Y-156031191D01*
X113226115Y-156037687D01*
X113135244Y-156031193D01*
X113057043Y-156012756D01*
X112989444Y-155983373D01*
X112929094Y-155941802D01*
X112879340Y-155889770D01*
X112839326Y-155826111D01*
X112811441Y-155755607D01*
X112793813Y-155673493D01*
X112787577Y-155577625D01*
X112787577Y-155401312D01*
X112996588Y-155401312D01*
X112996588Y-155577625D01*
X113004053Y-155658179D01*
X113024555Y-155721099D01*
X113056580Y-155770241D01*
X113100740Y-155807568D01*
X113156115Y-155830607D01*
X113226115Y-155838843D01*
X113296119Y-155830609D01*
X113351527Y-155807572D01*
X113395742Y-155770241D01*
X113427715Y-155721107D01*
X113448188Y-155658187D01*
X113455643Y-155577625D01*
X113455643Y-155401312D01*
X113448162Y-155320761D01*
X113427672Y-155258253D01*
X113395742Y-155209795D01*
X113351599Y-155173006D01*
X113296193Y-155150251D01*
X113226115Y-155142109D01*
X113156041Y-155150253D01*
X113100668Y-155173009D01*
X113056580Y-155209795D01*
X113024598Y-155258260D01*
X113004079Y-155320769D01*
X112996588Y-155401312D01*
X112787577Y-155401312D01*
X112793800Y-155306130D01*
X112811415Y-155224362D01*
X112839326Y-155153925D01*
X112879365Y-155090244D01*
X112929119Y-155038376D01*
X112989444Y-154997121D01*
X113057010Y-154968046D01*
X113135213Y-154949790D01*
X113226115Y-154943357D01*
X113317080Y-154949791D01*
G37*
G36*
X112061352Y-154532388D02*
G01*
X111833931Y-154532388D01*
X111476268Y-155700540D01*
X111118697Y-154532388D01*
X110891184Y-154532388D01*
X111376892Y-156022300D01*
X111575644Y-156022300D01*
X112061352Y-154532388D01*
G37*
G36*
X110346309Y-156022300D02*
G01*
X110555320Y-156022300D01*
X110555320Y-154759900D01*
X110767445Y-154890051D01*
X110767445Y-154673804D01*
X110555320Y-154532388D01*
X110346309Y-154532388D01*
X110346309Y-156022300D01*
G37*
M02*
