%TF.GenerationSoftware,KiCad,Pcbnew,10.0.4*%
%TF.CreationDate,2026-07-07T22:31:12+02:00*%
%TF.ProjectId,Stadion_rychlomer,53746164-696f-46e5-9f72-7963686c6f6d,rev?*%
%TF.SameCoordinates,Original*%
%TF.FileFunction,Component,L1,Top*%
%TF.FilePolarity,Positive*%
%FSLAX46Y46*%
G04 Gerber Fmt 4.6, Leading zero omitted, Abs format (unit mm)*
G04 Created by KiCad (PCBNEW 10.0.4) date 2026-07-07 22:31:12*
%MOMM*%
%LPD*%
G01*
G04 APERTURE LIST*
%TA.AperFunction,ComponentMain*%
%ADD10C,0.300000*%
%TD*%
%TA.AperFunction,ComponentOutline,Courtyard*%
%ADD11C,0.100000*%
%TD*%
%TA.AperFunction,ComponentPin*%
%ADD12P,0.360000X4X0.000000*%
%TD*%
%TA.AperFunction,ComponentPin*%
%ADD13C,0.100000*%
%TD*%
%TA.AperFunction,ComponentOutline,Footprint*%
%ADD14C,0.100000*%
%TD*%
G04 APERTURE END LIST*
D10*
%TO.C,D3*%
%TO.CFtp,D_0603_1608Metric*%
%TO.CVal,D_Small*%
%TO.CLbN,Diode_SMD*%
%TO.CMnt,SMD*%
%TO.CRot,0*%
X119292500Y-157980000D03*
D11*
X120767500Y-157255000D02*
X120767500Y-158705000D01*
X117817500Y-158705000D01*
X117817500Y-157255000D01*
X120767500Y-157255000D01*
D12*
%TO.P,D3,1,K_1*%
X118505000Y-157980000D03*
D13*
%TO.P,D3,2,A_2*%
X120080000Y-157980000D03*
%TD*%
D10*
%TO.C,Q1*%
%TO.CFtp,Panasonic_APV-AQY_SSOP-4_4.45x2.65mm_P1.27mm*%
%TO.CVal,140817143200*%
%TO.CLbN,OptoDevice*%
%TO.CMnt,SMD*%
%TO.CRot,90*%
X111365000Y-140825000D03*
D11*
X112940000Y-137950000D02*
X112940000Y-143700000D01*
X109790000Y-143700000D01*
X109790000Y-137950000D01*
X112940000Y-137950000D01*
D12*
%TO.P,Q1,1*%
X110730000Y-143000000D03*
D13*
%TO.P,Q1,2*%
X112000000Y-143000000D03*
%TO.P,Q1,3*%
X112000000Y-138650000D03*
%TO.P,Q1,4*%
X110730000Y-138650000D03*
%TD*%
D10*
%TO.C,*%
%TO.CFtp,C_0603_1608Metric*%
%TO.CLbN,Capacitor_SMD*%
%TO.CMnt,SMD*%
%TO.CRot,-90*%
X122277076Y-140751436D03*
D11*
X123002076Y-139276436D02*
X123002076Y-142226436D01*
X121552076Y-142226436D01*
X121552076Y-139276436D01*
X123002076Y-139276436D01*
D12*
%TO.P,,1*%
X122277076Y-139976436D03*
D13*
%TO.P,,2*%
X122277076Y-141526436D03*
%TD*%
D10*
%TO.C,R10*%
%TO.CFtp,R_0603_1608Metric*%
%TO.CVal,10k*%
%TO.CLbN,Resistor_SMD*%
%TO.CMnt,SMD*%
%TO.CRot,0*%
X115175000Y-159000000D03*
D11*
X116650000Y-158275000D02*
X116650000Y-159725000D01*
X113700000Y-159725000D01*
X113700000Y-158275000D01*
X116650000Y-158275000D01*
D12*
%TO.P,R10,1*%
X114350000Y-159000000D03*
D13*
%TO.P,R10,2*%
X116000000Y-159000000D03*
%TD*%
D10*
%TO.C,*%
%TO.CFtp,C_0603_1608Metric*%
%TO.CLbN,Capacitor_SMD*%
%TO.CMnt,SMD*%
%TO.CRot,-90*%
X127373601Y-137741444D03*
D11*
X128098601Y-136266444D02*
X128098601Y-139216444D01*
X126648601Y-139216444D01*
X126648601Y-136266444D01*
X128098601Y-136266444D01*
D12*
%TO.P,,1*%
X127373601Y-136966444D03*
D13*
%TO.P,,2*%
X127373601Y-138516444D03*
%TD*%
D10*
%TO.C,C14*%
%TO.CFtp,C_0603_1608Metric*%
%TO.CVal,100n*%
%TO.CLbN,Capacitor_SMD*%
%TO.CMnt,SMD*%
%TO.CRot,0*%
X132500000Y-148500000D03*
D11*
X133975000Y-147775000D02*
X133975000Y-149225000D01*
X131025000Y-149225000D01*
X131025000Y-147775000D01*
X133975000Y-147775000D01*
D12*
%TO.P,C14,1*%
X131725000Y-148500000D03*
D13*
%TO.P,C14,2*%
X133275000Y-148500000D03*
%TD*%
D10*
%TO.C,Q2*%
%TO.CFtp,Panasonic_APV-AQY_SSOP-4_4.45x2.65mm_P1.27mm*%
%TO.CVal,PC817*%
%TO.CLbN,OptoDevice*%
%TO.CMnt,SMD*%
%TO.CRot,0*%
X125877904Y-151265817D03*
D11*
X128752904Y-149690817D02*
X128752904Y-152840817D01*
X123002904Y-152840817D01*
X123002904Y-149690817D01*
X128752904Y-149690817D01*
D12*
%TO.P,Q2,1*%
X123702904Y-150630817D03*
D13*
%TO.P,Q2,2*%
X123702904Y-151900817D03*
%TO.P,Q2,3*%
X128052904Y-151900817D03*
%TO.P,Q2,4*%
X128052904Y-150630817D03*
%TD*%
D10*
%TO.C,C2*%
%TO.CFtp,C_0603_1608Metric*%
%TO.CVal,1u*%
%TO.CLbN,Capacitor_SMD*%
%TO.CMnt,SMD*%
%TO.CRot,110*%
X136349489Y-137283237D03*
D11*
X137535247Y-138421318D02*
X136172691Y-138917249D01*
X135163730Y-136145155D01*
X136526286Y-135649224D01*
X137535247Y-138421318D01*
D12*
%TO.P,C2,1*%
X136614554Y-138011498D03*
D13*
%TO.P,C2,2*%
X136084424Y-136554976D03*
%TD*%
D10*
%TO.C,U3*%
%TO.CFtp,SOT-223-3_TabPin2*%
%TO.CVal,LM1117MP-5.0*%
%TO.CLbN,Package_TO_SOT_SMD*%
%TO.CMnt,SMD*%
%TO.CRot,180*%
X113000000Y-153500000D03*
D11*
X117395000Y-149905000D02*
X117395000Y-157095000D01*
X108605000Y-157095000D01*
X108605000Y-149905000D01*
X117395000Y-149905000D01*
D12*
%TO.P,U3,1,GND_1*%
X116150000Y-155800000D03*
D13*
%TO.P,U3,2,VO_2*%
X116150000Y-153500000D03*
X109850000Y-153500000D03*
%TO.P,U3,3,VI_3*%
X116150000Y-151200000D03*
%TD*%
D10*
%TO.C,*%
%TO.CMnt,Other*%
%TO.CRot,0*%
X118907959Y-127817481D03*
D14*
X118057959Y-126967481D02*
X118057959Y-128667481D01*
X119757959Y-128667481D01*
X119757959Y-126967481D01*
X118057959Y-126967481D01*
D13*
%TO.P,,0,Pin_4_4*%
X118907959Y-127817481D03*
%TD*%
D10*
%TO.C,C15*%
%TO.CFtp,C_0603_1608Metric*%
%TO.CVal,10n*%
%TO.CLbN,Capacitor_SMD*%
%TO.CMnt,SMD*%
%TO.CRot,-90*%
X105321195Y-142495546D03*
D11*
X106046195Y-141020546D02*
X106046195Y-143970546D01*
X104596195Y-143970546D01*
X104596195Y-141020546D01*
X106046195Y-141020546D01*
D12*
%TO.P,C15,1*%
X105321195Y-141720546D03*
D13*
%TO.P,C15,2*%
X105321195Y-143270546D03*
%TD*%
D10*
%TO.C,R1*%
%TO.CFtp,R_0603_1608Metric*%
%TO.CVal,1k*%
%TO.CLbN,Resistor_SMD*%
%TO.CMnt,SMD*%
%TO.CRot,90*%
X116000000Y-137500000D03*
D11*
X116725000Y-136025000D02*
X116725000Y-138975000D01*
X115275000Y-138975000D01*
X115275000Y-136025000D01*
X116725000Y-136025000D01*
D12*
%TO.P,R1,1*%
X116000000Y-138325000D03*
D13*
%TO.P,R1,2*%
X116000000Y-136675000D03*
%TD*%
D10*
%TO.C,C5*%
%TO.CFtp,C_0603_1608Metric*%
%TO.CVal,1u*%
%TO.CLbN,Capacitor_SMD*%
%TO.CMnt,SMD*%
%TO.CRot,0*%
X119500000Y-155980000D03*
D11*
X120975000Y-155255000D02*
X120975000Y-156705000D01*
X118025000Y-156705000D01*
X118025000Y-155255000D01*
X120975000Y-155255000D01*
D12*
%TO.P,C5,1*%
X118725000Y-155980000D03*
D13*
%TO.P,C5,2*%
X120275000Y-155980000D03*
%TD*%
D10*
%TO.C,R5*%
%TO.CFtp,R_0603_1608Metric*%
%TO.CVal,1k*%
%TO.CLbN,Resistor_SMD*%
%TO.CMnt,SMD*%
%TO.CRot,0*%
X125654518Y-158919398D03*
D11*
X127129518Y-158194398D02*
X127129518Y-159644398D01*
X124179518Y-159644398D01*
X124179518Y-158194398D01*
X127129518Y-158194398D01*
D12*
%TO.P,R5,1*%
X124829518Y-158919398D03*
D13*
%TO.P,R5,2*%
X126479518Y-158919398D03*
%TD*%
D10*
%TO.C,*%
%TO.CFtp,C_0603_1608Metric*%
%TO.CLbN,Capacitor_SMD*%
%TO.CMnt,SMD*%
%TO.CRot,-90*%
X122263505Y-137723387D03*
D11*
X122988505Y-136248387D02*
X122988505Y-139198387D01*
X121538505Y-139198387D01*
X121538505Y-136248387D01*
X122988505Y-136248387D01*
D12*
%TO.P,,1*%
X122263505Y-136948387D03*
D13*
%TO.P,,2*%
X122263505Y-138498387D03*
%TD*%
D10*
%TO.C,*%
%TO.CMnt,Other*%
%TO.CRot,0*%
X104883274Y-145353628D03*
D14*
X104033274Y-144503628D02*
X104033274Y-146203628D01*
X105733274Y-146203628D01*
X105733274Y-144503628D01*
X104033274Y-144503628D01*
D13*
%TO.P,,0,Pin_3_3*%
X104883274Y-145353628D03*
%TD*%
D10*
%TO.C,R12*%
%TO.CFtp,R_0603_1608Metric*%
%TO.CVal,1k*%
%TO.CLbN,Resistor_SMD*%
%TO.CMnt,SMD*%
%TO.CRot,180*%
X112196677Y-158996702D03*
D11*
X113671677Y-158271702D02*
X113671677Y-159721702D01*
X110721677Y-159721702D01*
X110721677Y-158271702D01*
X113671677Y-158271702D01*
D12*
%TO.P,R12,1*%
X113021677Y-158996702D03*
D13*
%TO.P,R12,2*%
X111371677Y-158996702D03*
%TD*%
D10*
%TO.C,*%
%TO.CFtp,C_0603_1608Metric*%
%TO.CLbN,Capacitor_SMD*%
%TO.CMnt,SMD*%
%TO.CRot,-90*%
X124863695Y-137759501D03*
D11*
X125588695Y-136284501D02*
X125588695Y-139234501D01*
X124138695Y-139234501D01*
X124138695Y-136284501D01*
X125588695Y-136284501D01*
D12*
%TO.P,,1*%
X124863695Y-136984501D03*
D13*
%TO.P,,2*%
X124863695Y-138534501D03*
%TD*%
D10*
%TO.C,J4*%
%TO.CFtp,PinHeader_1x03_P2.54mm_Vertical*%
%TO.CVal,Conn_01x03_Pin*%
%TO.CLbN,Connector_PinHeader_2.54mm*%
%TO.CMnt,TH*%
%TO.CRot,0*%
X133469356Y-140923469D03*
D11*
X135234356Y-139158469D02*
X135234356Y-147768469D01*
X131704356Y-147768469D01*
X131704356Y-139158469D01*
X135234356Y-139158469D01*
D12*
%TO.P,J4,1,Pin_1_1*%
X133469356Y-140923469D03*
D13*
%TO.P,J4,2,Pin_2_2*%
X133469356Y-143463469D03*
%TO.P,J4,3,Pin_3_3*%
X133469356Y-146003469D03*
%TD*%
D10*
%TO.C,R9*%
%TO.CFtp,R_MELF_MMB-0207*%
%TO.CVal,200R*%
%TO.CLbN,Resistor_SMD*%
%TO.CMnt,SMD*%
%TO.CRot,-90*%
X110490827Y-133462020D03*
D11*
X112035827Y-129717020D02*
X112035827Y-137207020D01*
X108945827Y-137207020D01*
X108945827Y-129717020D01*
X112035827Y-129717020D01*
D12*
%TO.P,R9,1*%
X110490827Y-131012020D03*
D13*
%TO.P,R9,2*%
X110490827Y-135912020D03*
%TD*%
D10*
%TO.C,Y1*%
%TO.CFtp,Resonator_SMD_Murata_CSTxExxV-3Pin_3.0x1.1mm*%
%TO.CVal,16MHz*%
%TO.CLbN,Crystal*%
%TO.CMnt,SMD*%
%TO.CRot,90*%
X111000000Y-147200000D03*
D11*
X112195000Y-145455000D02*
X112195000Y-148945000D01*
X109805000Y-148945000D01*
X109805000Y-145455000D01*
X112195000Y-145455000D01*
D12*
%TO.P,Y1,1,1_1*%
X111000000Y-148400000D03*
D13*
%TO.P,Y1,2,2_2*%
X111000000Y-147200000D03*
%TO.P,Y1,3,3_3*%
X111000000Y-146000000D03*
%TD*%
D10*
%TO.C,R4*%
%TO.CFtp,R_0603_1608Metric*%
%TO.CVal,1k*%
%TO.CLbN,Resistor_SMD*%
%TO.CMnt,SMD*%
%TO.CRot,0*%
X131046011Y-150297842D03*
D11*
X132521011Y-149572842D02*
X132521011Y-151022842D01*
X129571011Y-151022842D01*
X129571011Y-149572842D01*
X132521011Y-149572842D01*
D12*
%TO.P,R4,1*%
X130221011Y-150297842D03*
D13*
%TO.P,R4,2*%
X131871011Y-150297842D03*
%TD*%
D10*
%TO.C,J5*%
%TO.CFtp,PinHeader_1x04_P2.54mm_Vertical*%
%TO.CVal,SPÍD & PWR*%
%TO.CLbN,Connector_PinHeader_2.54mm*%
%TO.CMnt,TH*%
%TO.CRot,90*%
X114743561Y-162115070D03*
D11*
X124128561Y-160350070D02*
X124128561Y-163880070D01*
X112978561Y-163880070D01*
X112978561Y-160350070D01*
X124128561Y-160350070D01*
D12*
%TO.P,J5,1,Pin_1_1*%
X114743561Y-162115070D03*
D13*
%TO.P,J5,2,Pin_2_2*%
X117283561Y-162115070D03*
%TO.P,J5,3,Pin_3_3*%
X119823561Y-162115070D03*
%TO.P,J5,4,Pin_4_4*%
X122363561Y-162115070D03*
%TD*%
D10*
%TO.C,J7*%
%TO.CFtp,PinHeader_1x02_P2.54mm_Vertical*%
%TO.CVal,ENG RPM*%
%TO.CLbN,Connector_PinHeader_2.54mm*%
%TO.CMnt,TH*%
%TO.CRot,90*%
X107725000Y-127500000D03*
D11*
X112040000Y-125735000D02*
X112040000Y-129265000D01*
X105960000Y-129265000D01*
X105960000Y-125735000D01*
X112040000Y-125735000D01*
D12*
%TO.P,J7,1,Pin_1_1*%
X107725000Y-127500000D03*
D13*
%TO.P,J7,2,Pin_2_2*%
X110265000Y-127500000D03*
%TD*%
D10*
%TO.C,C6*%
%TO.CFtp,C_0603_1608Metric*%
%TO.CVal,1u*%
%TO.CLbN,Capacitor_SMD*%
%TO.CMnt,SMD*%
%TO.CRot,180*%
X114780220Y-134155998D03*
D11*
X116255220Y-133430998D02*
X116255220Y-134880998D01*
X113305220Y-134880998D01*
X113305220Y-133430998D01*
X116255220Y-133430998D01*
D12*
%TO.P,C6,1*%
X115555220Y-134155998D03*
D13*
%TO.P,C6,2*%
X114005220Y-134155998D03*
%TD*%
D10*
%TO.C,C12*%
%TO.CFtp,C_0603_1608Metric*%
%TO.CVal,100n*%
%TO.CLbN,Capacitor_SMD*%
%TO.CMnt,SMD*%
%TO.CRot,-90*%
X127367531Y-140781984D03*
D11*
X128092531Y-139306984D02*
X128092531Y-142256984D01*
X126642531Y-142256984D01*
X126642531Y-139306984D01*
X128092531Y-139306984D01*
D12*
%TO.P,C12,1*%
X127367531Y-140006984D03*
D13*
%TO.P,C12,2*%
X127367531Y-141556984D03*
%TD*%
D10*
%TO.C,C4*%
%TO.CFtp,CP_EIA-3216-10_Kemet-I*%
%TO.CVal,4u7_16V*%
%TO.CLbN,Capacitor_Tantalum_SMD*%
%TO.CMnt,SMD*%
%TO.CRot,180*%
X106027708Y-150121929D03*
D11*
X108332708Y-149076929D02*
X108332708Y-151166929D01*
X103722708Y-151166929D01*
X103722708Y-149076929D01*
X108332708Y-149076929D01*
D12*
%TO.P,C4,1*%
X107380208Y-150121929D03*
D13*
%TO.P,C4,2*%
X104675208Y-150121929D03*
%TD*%
D10*
%TO.C,R8*%
%TO.CFtp,R_0603_1608Metric*%
%TO.CVal,15k*%
%TO.CLbN,Resistor_SMD*%
%TO.CMnt,SMD*%
%TO.CRot,90*%
X107000000Y-138500000D03*
D11*
X107725000Y-137025000D02*
X107725000Y-139975000D01*
X106275000Y-139975000D01*
X106275000Y-137025000D01*
X107725000Y-137025000D01*
D12*
%TO.P,R8,1*%
X107000000Y-139325000D03*
D13*
%TO.P,R8,2*%
X107000000Y-137675000D03*
%TD*%
D10*
%TO.C,C13*%
%TO.CFtp,C_0603_1608Metric*%
%TO.CVal,100n*%
%TO.CLbN,Capacitor_SMD*%
%TO.CMnt,SMD*%
%TO.CRot,-90*%
X129867531Y-140781984D03*
D11*
X130592531Y-139306984D02*
X130592531Y-142256984D01*
X129142531Y-142256984D01*
X129142531Y-139306984D01*
X130592531Y-139306984D01*
D12*
%TO.P,C13,1*%
X129867531Y-140006984D03*
D13*
%TO.P,C13,2*%
X129867531Y-141556984D03*
%TD*%
D10*
%TO.C,*%
%TO.CMnt,Other*%
%TO.CRot,0*%
X104753173Y-139629183D03*
D14*
X103903173Y-138779183D02*
X103903173Y-140479183D01*
X105603173Y-140479183D01*
X105603173Y-138779183D01*
X103903173Y-138779183D01*
D13*
%TO.P,,0,Pin_4_4*%
X104753173Y-139629183D03*
%TD*%
D10*
%TO.C,C11*%
%TO.CFtp,C_0603_1608Metric*%
%TO.CVal,100n*%
%TO.CLbN,Capacitor_SMD*%
%TO.CMnt,SMD*%
%TO.CRot,-90*%
X121682667Y-151265817D03*
D11*
X122407667Y-149790817D02*
X122407667Y-152740817D01*
X120957667Y-152740817D01*
X120957667Y-149790817D01*
X122407667Y-149790817D01*
D12*
%TO.P,C11,1*%
X121682667Y-150490817D03*
D13*
%TO.P,C11,2*%
X121682667Y-152040817D03*
%TD*%
D10*
%TO.C,*%
%TO.CFtp,C_0603_1608Metric*%
%TO.CLbN,Capacitor_SMD*%
%TO.CMnt,SMD*%
%TO.CRot,-90*%
X124867531Y-140781984D03*
D11*
X125592531Y-139306984D02*
X125592531Y-142256984D01*
X124142531Y-142256984D01*
X124142531Y-139306984D01*
X125592531Y-139306984D01*
D12*
%TO.P,,1*%
X124867531Y-140006984D03*
D13*
%TO.P,,2*%
X124867531Y-141556984D03*
%TD*%
D10*
%TO.C,C1*%
%TO.CFtp,C_0603_1608Metric*%
%TO.CVal,1u*%
%TO.CLbN,Capacitor_SMD*%
%TO.CMnt,SMD*%
%TO.CRot,180*%
X106183060Y-147588507D03*
D11*
X107658060Y-146863507D02*
X107658060Y-148313507D01*
X104708060Y-148313507D01*
X104708060Y-146863507D01*
X107658060Y-146863507D01*
D12*
%TO.P,C1,1*%
X106958060Y-147588507D03*
D13*
%TO.P,C1,2*%
X105408060Y-147588507D03*
%TD*%
D10*
%TO.C,J3*%
%TO.CFtp,PinHeader_1x03_P2.54mm_Vertical*%
%TO.CVal,ICSP*%
%TO.CLbN,Connector_PinHeader_2.54mm*%
%TO.CMnt,TH*%
%TO.CRot,0*%
X137000000Y-140920000D03*
D11*
X138765000Y-139155000D02*
X138765000Y-147765000D01*
X135235000Y-147765000D01*
X135235000Y-139155000D01*
X138765000Y-139155000D01*
D12*
%TO.P,J3,1,Pin_1_1*%
X137000000Y-140920000D03*
D13*
%TO.P,J3,2,Pin_2_2*%
X137000000Y-143460000D03*
%TO.P,J3,3,Pin_3_3*%
X137000000Y-146000000D03*
%TD*%
D10*
%TO.C,D6*%
%TO.CFtp,D_SOD-123F*%
%TO.CVal,1N4148W*%
%TO.CLbN,Diode_SMD*%
%TO.CMnt,SMD*%
%TO.CRot,-90*%
X108500000Y-142500000D03*
D11*
X109645000Y-140305000D02*
X109645000Y-144695000D01*
X107355000Y-144695000D01*
X107355000Y-140305000D01*
X109645000Y-140305000D01*
D12*
%TO.P,D6,1,K_1*%
X108500000Y-141100000D03*
D13*
%TO.P,D6,2,A_2*%
X108500000Y-143900000D03*
%TD*%
D10*
%TO.C,J6*%
%TO.CFtp,PinHeader_1x04_P2.54mm_Vertical*%
%TO.CVal,AUX DDAA*%
%TO.CLbN,Connector_PinHeader_2.54mm*%
%TO.CMnt,TH*%
%TO.CRot,90*%
X121460000Y-127757222D03*
D11*
X130845000Y-125992222D02*
X130845000Y-129522222D01*
X119695000Y-129522222D01*
X119695000Y-125992222D01*
X130845000Y-125992222D01*
D12*
%TO.P,J6,1,Pin_1_1*%
X121460000Y-127757222D03*
D13*
%TO.P,J6,2,Pin_2_2*%
X124000000Y-127757222D03*
%TO.P,J6,3,Pin_3_3*%
X126540000Y-127757222D03*
%TO.P,J6,4,Pin_4_4*%
X129080000Y-127757222D03*
%TD*%
D10*
%TO.C,J2*%
%TO.CFtp,PinHeader_1x04_P2.54mm_Vertical*%
%TO.CVal,OLED I2C*%
%TO.CLbN,Connector_PinHeader_2.54mm*%
%TO.CMnt,TH*%
%TO.CRot,-90*%
X121540000Y-131500000D03*
D11*
X123305000Y-129735000D02*
X123305000Y-133265000D01*
X112155000Y-133265000D01*
X112155000Y-129735000D01*
X123305000Y-129735000D01*
D12*
%TO.P,J2,1,Pin_1_1*%
X121540000Y-131500000D03*
D13*
%TO.P,J2,2,Pin_2_2*%
X119000000Y-131500000D03*
%TO.P,J2,3,Pin_3_3*%
X116460000Y-131500000D03*
%TO.P,J2,4,Pin_4_4*%
X113920000Y-131500000D03*
%TD*%
D10*
%TO.C,U1*%
%TO.CFtp,QFN-32-1EP_5x5mm_P0.5mm_EP3.1x3.1mm*%
%TO.CVal,Mikroprofesor*%
%TO.CLbN,Package_DFN_QFN*%
%TO.CMnt,SMD*%
%TO.CRot,0*%
X117030000Y-145000000D03*
D11*
X119155000Y-141875000D02*
X119155000Y-142255000D01*
X119775000Y-142255000D01*
X119775000Y-142875000D01*
X120155000Y-142875000D01*
X120155000Y-147125000D01*
X119775000Y-147125000D01*
X119775000Y-147745000D01*
X119155000Y-147745000D01*
X119155000Y-148125000D01*
X114905000Y-148125000D01*
X114905000Y-147745000D01*
X114285000Y-147745000D01*
X114285000Y-147125000D01*
X113905000Y-147125000D01*
X113905000Y-142875000D01*
X114285000Y-142875000D01*
X114285000Y-142255000D01*
X114905000Y-142255000D01*
X114905000Y-141875000D01*
X119155000Y-141875000D01*
D12*
%TO.P,U1,1,PD3_1*%
X114592500Y-143250000D03*
D13*
%TO.P,U1,2,PD4_2*%
X114592500Y-143750000D03*
%TO.P,U1,3,GND_3*%
X114592500Y-144250000D03*
%TO.P,U1,4,VCC_4*%
X114592500Y-144750000D03*
%TO.P,U1,5,GND_5*%
X114592500Y-145250000D03*
%TO.P,U1,6,VCC_6*%
X114592500Y-145750000D03*
%TO.P,U1,7,XTAL1/PB6_7*%
X114592500Y-146250000D03*
%TO.P,U1,8,XTAL2/PB7_8*%
X114592500Y-146750000D03*
%TO.P,U1,9,PD5_9*%
X115280000Y-147437500D03*
%TO.P,U1,10,PD6_10*%
X115780000Y-147437500D03*
%TO.P,U1,11,PD7_11*%
X116280000Y-147437500D03*
%TO.P,U1,12,PB0_12*%
X116780000Y-147437500D03*
%TO.P,U1,13,PB1_13*%
X117280000Y-147437500D03*
%TO.P,U1,14,PB2_14*%
X117780000Y-147437500D03*
%TO.P,U1,15,PB3_15*%
X118280000Y-147437500D03*
%TO.P,U1,16,PB4_16*%
X118780000Y-147437500D03*
%TO.P,U1,17,PB5_17*%
X119467500Y-146750000D03*
%TO.P,U1,18,AVCC_18*%
X119467500Y-146250000D03*
%TO.P,U1,19,ADC6_19*%
X119467500Y-145750000D03*
%TO.P,U1,20,AREF_20*%
X119467500Y-145250000D03*
%TO.P,U1,21,GND_21*%
X119467500Y-144750000D03*
%TO.P,U1,22,ADC7_22*%
X119467500Y-144250000D03*
%TO.P,U1,23,PC0_23*%
X119467500Y-143750000D03*
%TO.P,U1,24,PC1_24*%
X119467500Y-143250000D03*
%TO.P,U1,25,PC2_25*%
X118780000Y-142562500D03*
%TO.P,U1,26,PC3_26*%
X118280000Y-142562500D03*
%TO.P,U1,27,PC4_27*%
X117780000Y-142562500D03*
%TO.P,U1,28,PC5_28*%
X117280000Y-142562500D03*
%TO.P,U1,29,~{RESET}/PC6_29*%
X116780000Y-142562500D03*
%TO.P,U1,30,PD0_30*%
X116280000Y-142562500D03*
%TO.P,U1,31,PD1_31*%
X115780000Y-142562500D03*
%TO.P,U1,32,PD2_32*%
X115280000Y-142562500D03*
%TO.P,U1,33,GND_33*%
X117030000Y-145000000D03*
%TD*%
D10*
%TO.C,*%
%TO.CFtp,C_0603_1608Metric*%
%TO.CLbN,Capacitor_SMD*%
%TO.CMnt,SMD*%
%TO.CRot,-90*%
X129865451Y-137741444D03*
D11*
X130590451Y-136266444D02*
X130590451Y-139216444D01*
X129140451Y-139216444D01*
X129140451Y-136266444D01*
X130590451Y-136266444D01*
D12*
%TO.P,,1*%
X129865451Y-136966444D03*
D13*
%TO.P,,2*%
X129865451Y-138516444D03*
%TD*%
D10*
%TO.C,*%
%TO.CMnt,Other*%
%TO.CRot,0*%
X112088713Y-162154958D03*
D14*
X111238713Y-161304958D02*
X111238713Y-163004958D01*
X112938713Y-163004958D01*
X112938713Y-161304958D01*
X111238713Y-161304958D01*
D13*
%TO.P,,0,Pin_4_4*%
X112088713Y-162154958D03*
%TD*%
D10*
%TO.C,R11*%
%TO.CFtp,R_0603_1608Metric*%
%TO.CVal,470R*%
%TO.CLbN,Resistor_SMD*%
%TO.CMnt,SMD*%
%TO.CRot,90*%
X119426516Y-151306642D03*
D11*
X120151516Y-149831642D02*
X120151516Y-152781642D01*
X118701516Y-152781642D01*
X118701516Y-149831642D01*
X120151516Y-149831642D01*
D12*
%TO.P,R11,1*%
X119426516Y-152131642D03*
D13*
%TO.P,R11,2*%
X119426516Y-150481642D03*
%TD*%
D10*
%TO.C,D7*%
%TO.CFtp,LED_0805_2012Metric*%
%TO.CVal,Yellow*%
%TO.CLbN,LED_SMD*%
%TO.CMnt,SMD*%
%TO.CRot,155*%
X108689222Y-160761800D03*
D11*
X110606660Y-160613224D02*
X109807910Y-162326145D01*
X106771783Y-160910375D01*
X107570533Y-159197454D01*
X110606660Y-160613224D01*
D12*
%TO.P,D7,1,K_1*%
X109538886Y-161158005D03*
D13*
%TO.P,D7,2,A_2*%
X107839558Y-160365595D03*
%TD*%
D10*
%TO.C,D8*%
%TO.CFtp,D_SMC_Handsoldering*%
%TO.CVal,SMCJ85CA*%
%TO.CLbN,Diode_SMD*%
%TO.CMnt,SMD*%
%TO.CRot,90*%
X99989352Y-143666218D03*
D11*
X103334352Y-136771218D02*
X103334352Y-150561218D01*
X96644352Y-150561218D01*
X96644352Y-136771218D01*
X103334352Y-136771218D01*
D12*
%TO.P,D8,1,A1_1*%
X99989352Y-148066218D03*
D13*
%TO.P,D8,2,A2_2*%
X99989352Y-139266218D03*
%TD*%
D10*
%TO.C,C3*%
%TO.CFtp,C_0603_1608Metric*%
%TO.CVal,100n*%
%TO.CLbN,Capacitor_SMD*%
%TO.CMnt,SMD*%
%TO.CRot,0*%
X123516807Y-145000000D03*
D11*
X124991807Y-144275000D02*
X124991807Y-145725000D01*
X122041807Y-145725000D01*
X122041807Y-144275000D01*
X124991807Y-144275000D01*
D12*
%TO.P,C3,1*%
X122741807Y-145000000D03*
D13*
%TO.P,C3,2*%
X124291807Y-145000000D03*
%TD*%
D10*
%TO.C,D1*%
%TO.CFtp,LED_0805_2012Metric*%
%TO.CVal,Yellow*%
%TO.CLbN,LED_SMD*%
%TO.CMnt,SMD*%
%TO.CRot,0*%
X135808666Y-148826421D03*
D11*
X137483665Y-147881421D02*
X137483665Y-149771421D01*
X134133666Y-149771420D01*
X134133666Y-147881420D01*
X137483665Y-147881421D01*
D12*
%TO.P,D1,1,K_1*%
X134871167Y-148826421D03*
D13*
%TO.P,D1,2,A_2*%
X136746165Y-148826421D03*
%TD*%
D10*
%TO.C,D2*%
%TO.CFtp,LED_0805_2012Metric*%
%TO.CVal,Green*%
%TO.CLbN,LED_SMD*%
%TO.CMnt,SMD*%
%TO.CRot,25*%
X126512120Y-161063808D03*
D11*
X128429558Y-161212383D02*
X125393429Y-162628153D01*
X124594681Y-160915232D01*
X127630810Y-159499462D01*
X128429558Y-161212383D01*
D12*
%TO.P,D2,1,K_1*%
X125662456Y-161460012D03*
D13*
%TO.P,D2,2,A_2*%
X127361784Y-160667604D03*
%TD*%
D10*
%TO.C,*%
%TO.CMnt,Other*%
%TO.CRot,0*%
X116368110Y-127803677D03*
D14*
X115518110Y-126953677D02*
X115518110Y-128653677D01*
X117218110Y-128653677D01*
X117218110Y-126953677D01*
X115518110Y-126953677D01*
D13*
%TO.P,,3,Pin_3_3*%
X116368110Y-127803677D03*
%TD*%
M02*
