%TF.GenerationSoftware,KiCad,Pcbnew,10.0.4*%
%TF.CreationDate,2026-07-07T22:15:55+02:00*%
%TF.ProjectId,Stadion_rychlomer,53746164-696f-46e5-9f72-7963686c6f6d,rev?*%
%TF.SameCoordinates,Original*%
%TF.FileFunction,Legend,Top*%
%TF.FilePolarity,Positive*%
%FSLAX46Y46*%
G04 Gerber Fmt 4.6, Leading zero omitted, Abs format (unit mm)*
G04 Created by KiCad (PCBNEW 10.0.4) date 2026-07-07 22:15:55*
%MOMM*%
%LPD*%
G01*
G04 APERTURE LIST*
%ADD10C,0.150000*%
%ADD11C,0.250000*%
%ADD12C,0.120000*%
G04 APERTURE END LIST*
D10*
X119902609Y-125151907D02*
X120378799Y-125151907D01*
X119807371Y-125437622D02*
X120140704Y-124437622D01*
X120140704Y-124437622D02*
X120474037Y-125437622D01*
X120807371Y-124437622D02*
X120807371Y-125247145D01*
X120807371Y-125247145D02*
X120854990Y-125342383D01*
X120854990Y-125342383D02*
X120902609Y-125390003D01*
X120902609Y-125390003D02*
X120997847Y-125437622D01*
X120997847Y-125437622D02*
X121188323Y-125437622D01*
X121188323Y-125437622D02*
X121283561Y-125390003D01*
X121283561Y-125390003D02*
X121331180Y-125342383D01*
X121331180Y-125342383D02*
X121378799Y-125247145D01*
X121378799Y-125247145D02*
X121378799Y-124437622D01*
X121759752Y-124437622D02*
X122426418Y-125437622D01*
X122426418Y-124437622D02*
X121759752Y-125437622D01*
X123569276Y-125437622D02*
X123569276Y-124437622D01*
X123569276Y-124437622D02*
X123807371Y-124437622D01*
X123807371Y-124437622D02*
X123950228Y-124485241D01*
X123950228Y-124485241D02*
X124045466Y-124580479D01*
X124045466Y-124580479D02*
X124093085Y-124675717D01*
X124093085Y-124675717D02*
X124140704Y-124866193D01*
X124140704Y-124866193D02*
X124140704Y-125009050D01*
X124140704Y-125009050D02*
X124093085Y-125199526D01*
X124093085Y-125199526D02*
X124045466Y-125294764D01*
X124045466Y-125294764D02*
X123950228Y-125390003D01*
X123950228Y-125390003D02*
X123807371Y-125437622D01*
X123807371Y-125437622D02*
X123569276Y-125437622D01*
X124569276Y-125437622D02*
X124569276Y-124437622D01*
X124569276Y-124437622D02*
X124807371Y-124437622D01*
X124807371Y-124437622D02*
X124950228Y-124485241D01*
X124950228Y-124485241D02*
X125045466Y-124580479D01*
X125045466Y-124580479D02*
X125093085Y-124675717D01*
X125093085Y-124675717D02*
X125140704Y-124866193D01*
X125140704Y-124866193D02*
X125140704Y-125009050D01*
X125140704Y-125009050D02*
X125093085Y-125199526D01*
X125093085Y-125199526D02*
X125045466Y-125294764D01*
X125045466Y-125294764D02*
X124950228Y-125390003D01*
X124950228Y-125390003D02*
X124807371Y-125437622D01*
X124807371Y-125437622D02*
X124569276Y-125437622D01*
X125521657Y-125151907D02*
X125997847Y-125151907D01*
X125426419Y-125437622D02*
X125759752Y-124437622D01*
X125759752Y-124437622D02*
X126093085Y-125437622D01*
X126378800Y-125151907D02*
X126854990Y-125151907D01*
X126283562Y-125437622D02*
X126616895Y-124437622D01*
X126616895Y-124437622D02*
X126950228Y-125437622D01*
X113061533Y-123526024D02*
X113322119Y-124241980D01*
X112833848Y-124014295D02*
X113549804Y-123753708D01*
X114229567Y-124925198D02*
X114066700Y-124477726D01*
X114066700Y-124477726D02*
X113602941Y-124595845D01*
X113602941Y-124595845D02*
X113663975Y-124624306D01*
X113663975Y-124624306D02*
X113741296Y-124697514D01*
X113741296Y-124697514D02*
X113822729Y-124921250D01*
X113822729Y-124921250D02*
X113810555Y-125027031D01*
X113810555Y-125027031D02*
X113782095Y-125088065D01*
X113782095Y-125088065D02*
X113708887Y-125165386D01*
X113708887Y-125165386D02*
X113485150Y-125246819D01*
X113485150Y-125246819D02*
X113379369Y-125234645D01*
X113379369Y-125234645D02*
X113318335Y-125206185D01*
X113318335Y-125206185D02*
X113241015Y-125132977D01*
X113241015Y-125132977D02*
X113159581Y-124909240D01*
X113159581Y-124909240D02*
X113171755Y-124803459D01*
X113171755Y-124803459D02*
X113200216Y-124742425D01*
X114343574Y-125238429D02*
X113517888Y-125893680D01*
X113517888Y-125893680D02*
X114571587Y-125864891D01*
D11*
X128854256Y-160962523D02*
X128354256Y-160096498D01*
X128354256Y-160096498D02*
X128684171Y-159906021D01*
X128684171Y-159906021D02*
X128790459Y-159899642D01*
X128790459Y-159899642D02*
X128855508Y-159917071D01*
X128855508Y-159917071D02*
X128944366Y-159975741D01*
X128944366Y-159975741D02*
X129015795Y-160099458D01*
X129015795Y-160099458D02*
X129022174Y-160205747D01*
X129022174Y-160205747D02*
X129004745Y-160270795D01*
X129004745Y-160270795D02*
X128946076Y-160359654D01*
X128946076Y-160359654D02*
X128616161Y-160550130D01*
X129137803Y-159644117D02*
X129844000Y-160391094D01*
X129844000Y-160391094D02*
X129651814Y-159677267D01*
X129651814Y-159677267D02*
X130173914Y-160200618D01*
X130173914Y-160200618D02*
X129880111Y-159215545D01*
X131204897Y-159605380D02*
X130678126Y-159359654D01*
X130710025Y-159891095D02*
X130210025Y-159025069D01*
X130210025Y-159025069D02*
X130539939Y-158834593D01*
X130539939Y-158834593D02*
X130646228Y-158828213D01*
X130646228Y-158828213D02*
X130711276Y-158845643D01*
X130711276Y-158845643D02*
X130800135Y-158904312D01*
X130800135Y-158904312D02*
X130871563Y-159028030D01*
X130871563Y-159028030D02*
X130877943Y-159134318D01*
X130877943Y-159134318D02*
X130860513Y-159199367D01*
X130860513Y-159199367D02*
X130801844Y-159288225D01*
X130801844Y-159288225D02*
X130471930Y-159478701D01*
X103226896Y-158419099D02*
X103316605Y-158540046D01*
X103316605Y-158540046D02*
X103511641Y-158676612D01*
X103511641Y-158676612D02*
X103616969Y-158692231D01*
X103616969Y-158692231D02*
X103683289Y-158680537D01*
X103683289Y-158680537D02*
X103776923Y-158629835D01*
X103776923Y-158629835D02*
X103831549Y-158551821D01*
X103831549Y-158551821D02*
X103847168Y-158446493D01*
X103847168Y-158446493D02*
X103835474Y-158380173D01*
X103835474Y-158380173D02*
X103784773Y-158286539D01*
X103784773Y-158286539D02*
X103656057Y-158138279D01*
X103656057Y-158138279D02*
X103605356Y-158044646D01*
X103605356Y-158044646D02*
X103593662Y-157978325D01*
X103593662Y-157978325D02*
X103609281Y-157872998D01*
X103609281Y-157872998D02*
X103663907Y-157794983D01*
X103663907Y-157794983D02*
X103757541Y-157744282D01*
X103757541Y-157744282D02*
X103823861Y-157732588D01*
X103823861Y-157732588D02*
X103929189Y-157748207D01*
X103929189Y-157748207D02*
X104124225Y-157884773D01*
X104124225Y-157884773D02*
X104213933Y-158005720D01*
X104018735Y-159031683D02*
X104592312Y-158212531D01*
X104592312Y-158212531D02*
X104904370Y-158431036D01*
X104904370Y-158431036D02*
X104955071Y-158524670D01*
X104955071Y-158524670D02*
X104966765Y-158590990D01*
X104966765Y-158590990D02*
X104951146Y-158696318D01*
X104951146Y-158696318D02*
X104869206Y-158813339D01*
X104869206Y-158813339D02*
X104775573Y-158864041D01*
X104775573Y-158864041D02*
X104709252Y-158875735D01*
X104709252Y-158875735D02*
X104603925Y-158860116D01*
X104603925Y-158860116D02*
X104291867Y-158641610D01*
X104837887Y-159605259D02*
X105411464Y-158786107D01*
X105411464Y-158786107D02*
X105606500Y-158922673D01*
X105606500Y-158922673D02*
X105696209Y-159043620D01*
X105696209Y-159043620D02*
X105719597Y-159176261D01*
X105719597Y-159176261D02*
X105703978Y-159281588D01*
X105703978Y-159281588D02*
X105633732Y-159464930D01*
X105633732Y-159464930D02*
X105551793Y-159581952D01*
X105551793Y-159581952D02*
X105403533Y-159710668D01*
X105403533Y-159710668D02*
X105309899Y-159761369D01*
X105309899Y-159761369D02*
X105177258Y-159784757D01*
X105177258Y-159784757D02*
X105032924Y-159741825D01*
X105032924Y-159741825D02*
X104837887Y-159605259D01*
D10*
X121063475Y-158501870D02*
X121063475Y-157501870D01*
X121063475Y-157501870D02*
X121301570Y-157501870D01*
X121301570Y-157501870D02*
X121444427Y-157549489D01*
X121444427Y-157549489D02*
X121539665Y-157644727D01*
X121539665Y-157644727D02*
X121587284Y-157739965D01*
X121587284Y-157739965D02*
X121634903Y-157930441D01*
X121634903Y-157930441D02*
X121634903Y-158073298D01*
X121634903Y-158073298D02*
X121587284Y-158263774D01*
X121587284Y-158263774D02*
X121539665Y-158359012D01*
X121539665Y-158359012D02*
X121444427Y-158454251D01*
X121444427Y-158454251D02*
X121301570Y-158501870D01*
X121301570Y-158501870D02*
X121063475Y-158501870D01*
X121968237Y-157501870D02*
X122587284Y-157501870D01*
X122587284Y-157501870D02*
X122253951Y-157882822D01*
X122253951Y-157882822D02*
X122396808Y-157882822D01*
X122396808Y-157882822D02*
X122492046Y-157930441D01*
X122492046Y-157930441D02*
X122539665Y-157978060D01*
X122539665Y-157978060D02*
X122587284Y-158073298D01*
X122587284Y-158073298D02*
X122587284Y-158311393D01*
X122587284Y-158311393D02*
X122539665Y-158406631D01*
X122539665Y-158406631D02*
X122492046Y-158454251D01*
X122492046Y-158454251D02*
X122396808Y-158501870D01*
X122396808Y-158501870D02*
X122111094Y-158501870D01*
X122111094Y-158501870D02*
X122015856Y-158454251D01*
X122015856Y-158454251D02*
X121968237Y-158406631D01*
X109566581Y-138981840D02*
X109518962Y-139077078D01*
X109518962Y-139077078D02*
X109423724Y-139172316D01*
X109423724Y-139172316D02*
X109280866Y-139315173D01*
X109280866Y-139315173D02*
X109233247Y-139410411D01*
X109233247Y-139410411D02*
X109233247Y-139505649D01*
X109471343Y-139458030D02*
X109423724Y-139553268D01*
X109423724Y-139553268D02*
X109328485Y-139648506D01*
X109328485Y-139648506D02*
X109138009Y-139696125D01*
X109138009Y-139696125D02*
X108804676Y-139696125D01*
X108804676Y-139696125D02*
X108614200Y-139648506D01*
X108614200Y-139648506D02*
X108518962Y-139553268D01*
X108518962Y-139553268D02*
X108471343Y-139458030D01*
X108471343Y-139458030D02*
X108471343Y-139267554D01*
X108471343Y-139267554D02*
X108518962Y-139172316D01*
X108518962Y-139172316D02*
X108614200Y-139077078D01*
X108614200Y-139077078D02*
X108804676Y-139029459D01*
X108804676Y-139029459D02*
X109138009Y-139029459D01*
X109138009Y-139029459D02*
X109328485Y-139077078D01*
X109328485Y-139077078D02*
X109423724Y-139172316D01*
X109423724Y-139172316D02*
X109471343Y-139267554D01*
X109471343Y-139267554D02*
X109471343Y-139458030D01*
X109471343Y-138077078D02*
X109471343Y-138648506D01*
X109471343Y-138362792D02*
X108471343Y-138362792D01*
X108471343Y-138362792D02*
X108614200Y-138458030D01*
X108614200Y-138458030D02*
X108709438Y-138553268D01*
X108709438Y-138553268D02*
X108757057Y-138648506D01*
X117219636Y-160164094D02*
X116886303Y-159687903D01*
X116648208Y-160164094D02*
X116648208Y-159164094D01*
X116648208Y-159164094D02*
X117029160Y-159164094D01*
X117029160Y-159164094D02*
X117124398Y-159211713D01*
X117124398Y-159211713D02*
X117172017Y-159259332D01*
X117172017Y-159259332D02*
X117219636Y-159354570D01*
X117219636Y-159354570D02*
X117219636Y-159497427D01*
X117219636Y-159497427D02*
X117172017Y-159592665D01*
X117172017Y-159592665D02*
X117124398Y-159640284D01*
X117124398Y-159640284D02*
X117029160Y-159687903D01*
X117029160Y-159687903D02*
X116648208Y-159687903D01*
X118172017Y-160164094D02*
X117600589Y-160164094D01*
X117886303Y-160164094D02*
X117886303Y-159164094D01*
X117886303Y-159164094D02*
X117791065Y-159306951D01*
X117791065Y-159306951D02*
X117695827Y-159402189D01*
X117695827Y-159402189D02*
X117600589Y-159449808D01*
X118791065Y-159164094D02*
X118886303Y-159164094D01*
X118886303Y-159164094D02*
X118981541Y-159211713D01*
X118981541Y-159211713D02*
X119029160Y-159259332D01*
X119029160Y-159259332D02*
X119076779Y-159354570D01*
X119076779Y-159354570D02*
X119124398Y-159545046D01*
X119124398Y-159545046D02*
X119124398Y-159783141D01*
X119124398Y-159783141D02*
X119076779Y-159973617D01*
X119076779Y-159973617D02*
X119029160Y-160068855D01*
X119029160Y-160068855D02*
X118981541Y-160116475D01*
X118981541Y-160116475D02*
X118886303Y-160164094D01*
X118886303Y-160164094D02*
X118791065Y-160164094D01*
X118791065Y-160164094D02*
X118695827Y-160116475D01*
X118695827Y-160116475D02*
X118648208Y-160068855D01*
X118648208Y-160068855D02*
X118600589Y-159973617D01*
X118600589Y-159973617D02*
X118552970Y-159783141D01*
X118552970Y-159783141D02*
X118552970Y-159545046D01*
X118552970Y-159545046D02*
X118600589Y-159354570D01*
X118600589Y-159354570D02*
X118648208Y-159259332D01*
X118648208Y-159259332D02*
X118695827Y-159211713D01*
X118695827Y-159211713D02*
X118791065Y-159164094D01*
X130728282Y-148265923D02*
X130775902Y-148313542D01*
X130775902Y-148313542D02*
X130823521Y-148456399D01*
X130823521Y-148456399D02*
X130823521Y-148551637D01*
X130823521Y-148551637D02*
X130775902Y-148694494D01*
X130775902Y-148694494D02*
X130680663Y-148789732D01*
X130680663Y-148789732D02*
X130585425Y-148837351D01*
X130585425Y-148837351D02*
X130394949Y-148884970D01*
X130394949Y-148884970D02*
X130252092Y-148884970D01*
X130252092Y-148884970D02*
X130061616Y-148837351D01*
X130061616Y-148837351D02*
X129966378Y-148789732D01*
X129966378Y-148789732D02*
X129871140Y-148694494D01*
X129871140Y-148694494D02*
X129823521Y-148551637D01*
X129823521Y-148551637D02*
X129823521Y-148456399D01*
X129823521Y-148456399D02*
X129871140Y-148313542D01*
X129871140Y-148313542D02*
X129918759Y-148265923D01*
X130823521Y-147313542D02*
X130823521Y-147884970D01*
X130823521Y-147599256D02*
X129823521Y-147599256D01*
X129823521Y-147599256D02*
X129966378Y-147694494D01*
X129966378Y-147694494D02*
X130061616Y-147789732D01*
X130061616Y-147789732D02*
X130109235Y-147884970D01*
X130156854Y-146456399D02*
X130823521Y-146456399D01*
X129775902Y-146694494D02*
X130490187Y-146932589D01*
X130490187Y-146932589D02*
X130490187Y-146313542D01*
X125782665Y-149275874D02*
X125687427Y-149228255D01*
X125687427Y-149228255D02*
X125592189Y-149133017D01*
X125592189Y-149133017D02*
X125449332Y-148990159D01*
X125449332Y-148990159D02*
X125354094Y-148942540D01*
X125354094Y-148942540D02*
X125258856Y-148942540D01*
X125306475Y-149180636D02*
X125211237Y-149133017D01*
X125211237Y-149133017D02*
X125115999Y-149037778D01*
X125115999Y-149037778D02*
X125068380Y-148847302D01*
X125068380Y-148847302D02*
X125068380Y-148513969D01*
X125068380Y-148513969D02*
X125115999Y-148323493D01*
X125115999Y-148323493D02*
X125211237Y-148228255D01*
X125211237Y-148228255D02*
X125306475Y-148180636D01*
X125306475Y-148180636D02*
X125496951Y-148180636D01*
X125496951Y-148180636D02*
X125592189Y-148228255D01*
X125592189Y-148228255D02*
X125687427Y-148323493D01*
X125687427Y-148323493D02*
X125735046Y-148513969D01*
X125735046Y-148513969D02*
X125735046Y-148847302D01*
X125735046Y-148847302D02*
X125687427Y-149037778D01*
X125687427Y-149037778D02*
X125592189Y-149133017D01*
X125592189Y-149133017D02*
X125496951Y-149180636D01*
X125496951Y-149180636D02*
X125306475Y-149180636D01*
X126115999Y-148275874D02*
X126163618Y-148228255D01*
X126163618Y-148228255D02*
X126258856Y-148180636D01*
X126258856Y-148180636D02*
X126496951Y-148180636D01*
X126496951Y-148180636D02*
X126592189Y-148228255D01*
X126592189Y-148228255D02*
X126639808Y-148275874D01*
X126639808Y-148275874D02*
X126687427Y-148371112D01*
X126687427Y-148371112D02*
X126687427Y-148466350D01*
X126687427Y-148466350D02*
X126639808Y-148609207D01*
X126639808Y-148609207D02*
X126068380Y-149180636D01*
X126068380Y-149180636D02*
X126687427Y-149180636D01*
X112189693Y-155197984D02*
X112189693Y-156007507D01*
X112189693Y-156007507D02*
X112237312Y-156102745D01*
X112237312Y-156102745D02*
X112284931Y-156150365D01*
X112284931Y-156150365D02*
X112380169Y-156197984D01*
X112380169Y-156197984D02*
X112570645Y-156197984D01*
X112570645Y-156197984D02*
X112665883Y-156150365D01*
X112665883Y-156150365D02*
X112713502Y-156102745D01*
X112713502Y-156102745D02*
X112761121Y-156007507D01*
X112761121Y-156007507D02*
X112761121Y-155197984D01*
X113142074Y-155197984D02*
X113761121Y-155197984D01*
X113761121Y-155197984D02*
X113427788Y-155578936D01*
X113427788Y-155578936D02*
X113570645Y-155578936D01*
X113570645Y-155578936D02*
X113665883Y-155626555D01*
X113665883Y-155626555D02*
X113713502Y-155674174D01*
X113713502Y-155674174D02*
X113761121Y-155769412D01*
X113761121Y-155769412D02*
X113761121Y-156007507D01*
X113761121Y-156007507D02*
X113713502Y-156102745D01*
X113713502Y-156102745D02*
X113665883Y-156150365D01*
X113665883Y-156150365D02*
X113570645Y-156197984D01*
X113570645Y-156197984D02*
X113284931Y-156197984D01*
X113284931Y-156197984D02*
X113189693Y-156150365D01*
X113189693Y-156150365D02*
X113142074Y-156102745D01*
X104404595Y-143177664D02*
X104452215Y-143225283D01*
X104452215Y-143225283D02*
X104499834Y-143368140D01*
X104499834Y-143368140D02*
X104499834Y-143463378D01*
X104499834Y-143463378D02*
X104452215Y-143606235D01*
X104452215Y-143606235D02*
X104356976Y-143701473D01*
X104356976Y-143701473D02*
X104261738Y-143749092D01*
X104261738Y-143749092D02*
X104071262Y-143796711D01*
X104071262Y-143796711D02*
X103928405Y-143796711D01*
X103928405Y-143796711D02*
X103737929Y-143749092D01*
X103737929Y-143749092D02*
X103642691Y-143701473D01*
X103642691Y-143701473D02*
X103547453Y-143606235D01*
X103547453Y-143606235D02*
X103499834Y-143463378D01*
X103499834Y-143463378D02*
X103499834Y-143368140D01*
X103499834Y-143368140D02*
X103547453Y-143225283D01*
X103547453Y-143225283D02*
X103595072Y-143177664D01*
X104499834Y-142225283D02*
X104499834Y-142796711D01*
X104499834Y-142510997D02*
X103499834Y-142510997D01*
X103499834Y-142510997D02*
X103642691Y-142606235D01*
X103642691Y-142606235D02*
X103737929Y-142701473D01*
X103737929Y-142701473D02*
X103785548Y-142796711D01*
X103499834Y-141320521D02*
X103499834Y-141796711D01*
X103499834Y-141796711D02*
X103976024Y-141844330D01*
X103976024Y-141844330D02*
X103928405Y-141796711D01*
X103928405Y-141796711D02*
X103880786Y-141701473D01*
X103880786Y-141701473D02*
X103880786Y-141463378D01*
X103880786Y-141463378D02*
X103928405Y-141368140D01*
X103928405Y-141368140D02*
X103976024Y-141320521D01*
X103976024Y-141320521D02*
X104071262Y-141272902D01*
X104071262Y-141272902D02*
X104309357Y-141272902D01*
X104309357Y-141272902D02*
X104404595Y-141320521D01*
X104404595Y-141320521D02*
X104452215Y-141368140D01*
X104452215Y-141368140D02*
X104499834Y-141463378D01*
X104499834Y-141463378D02*
X104499834Y-141701473D01*
X104499834Y-141701473D02*
X104452215Y-141796711D01*
X104452215Y-141796711D02*
X104404595Y-141844330D01*
X115024819Y-137666666D02*
X114548628Y-137999999D01*
X115024819Y-138238094D02*
X114024819Y-138238094D01*
X114024819Y-138238094D02*
X114024819Y-137857142D01*
X114024819Y-137857142D02*
X114072438Y-137761904D01*
X114072438Y-137761904D02*
X114120057Y-137714285D01*
X114120057Y-137714285D02*
X114215295Y-137666666D01*
X114215295Y-137666666D02*
X114358152Y-137666666D01*
X114358152Y-137666666D02*
X114453390Y-137714285D01*
X114453390Y-137714285D02*
X114501009Y-137761904D01*
X114501009Y-137761904D02*
X114548628Y-137857142D01*
X114548628Y-137857142D02*
X114548628Y-138238094D01*
X115024819Y-136714285D02*
X115024819Y-137285713D01*
X115024819Y-136999999D02*
X114024819Y-136999999D01*
X114024819Y-136999999D02*
X114167676Y-137095237D01*
X114167676Y-137095237D02*
X114262914Y-137190475D01*
X114262914Y-137190475D02*
X114310533Y-137285713D01*
X119844227Y-155066528D02*
X119796608Y-155114148D01*
X119796608Y-155114148D02*
X119653751Y-155161767D01*
X119653751Y-155161767D02*
X119558513Y-155161767D01*
X119558513Y-155161767D02*
X119415656Y-155114148D01*
X119415656Y-155114148D02*
X119320418Y-155018909D01*
X119320418Y-155018909D02*
X119272799Y-154923671D01*
X119272799Y-154923671D02*
X119225180Y-154733195D01*
X119225180Y-154733195D02*
X119225180Y-154590338D01*
X119225180Y-154590338D02*
X119272799Y-154399862D01*
X119272799Y-154399862D02*
X119320418Y-154304624D01*
X119320418Y-154304624D02*
X119415656Y-154209386D01*
X119415656Y-154209386D02*
X119558513Y-154161767D01*
X119558513Y-154161767D02*
X119653751Y-154161767D01*
X119653751Y-154161767D02*
X119796608Y-154209386D01*
X119796608Y-154209386D02*
X119844227Y-154257005D01*
X120748989Y-154161767D02*
X120272799Y-154161767D01*
X120272799Y-154161767D02*
X120225180Y-154637957D01*
X120225180Y-154637957D02*
X120272799Y-154590338D01*
X120272799Y-154590338D02*
X120368037Y-154542719D01*
X120368037Y-154542719D02*
X120606132Y-154542719D01*
X120606132Y-154542719D02*
X120701370Y-154590338D01*
X120701370Y-154590338D02*
X120748989Y-154637957D01*
X120748989Y-154637957D02*
X120796608Y-154733195D01*
X120796608Y-154733195D02*
X120796608Y-154971290D01*
X120796608Y-154971290D02*
X120748989Y-155066528D01*
X120748989Y-155066528D02*
X120701370Y-155114148D01*
X120701370Y-155114148D02*
X120606132Y-155161767D01*
X120606132Y-155161767D02*
X120368037Y-155161767D01*
X120368037Y-155161767D02*
X120272799Y-155114148D01*
X120272799Y-155114148D02*
X120225180Y-155066528D01*
X125436291Y-157966933D02*
X125102958Y-157490742D01*
X124864863Y-157966933D02*
X124864863Y-156966933D01*
X124864863Y-156966933D02*
X125245815Y-156966933D01*
X125245815Y-156966933D02*
X125341053Y-157014552D01*
X125341053Y-157014552D02*
X125388672Y-157062171D01*
X125388672Y-157062171D02*
X125436291Y-157157409D01*
X125436291Y-157157409D02*
X125436291Y-157300266D01*
X125436291Y-157300266D02*
X125388672Y-157395504D01*
X125388672Y-157395504D02*
X125341053Y-157443123D01*
X125341053Y-157443123D02*
X125245815Y-157490742D01*
X125245815Y-157490742D02*
X124864863Y-157490742D01*
X126341053Y-156966933D02*
X125864863Y-156966933D01*
X125864863Y-156966933D02*
X125817244Y-157443123D01*
X125817244Y-157443123D02*
X125864863Y-157395504D01*
X125864863Y-157395504D02*
X125960101Y-157347885D01*
X125960101Y-157347885D02*
X126198196Y-157347885D01*
X126198196Y-157347885D02*
X126293434Y-157395504D01*
X126293434Y-157395504D02*
X126341053Y-157443123D01*
X126341053Y-157443123D02*
X126388672Y-157538361D01*
X126388672Y-157538361D02*
X126388672Y-157776456D01*
X126388672Y-157776456D02*
X126341053Y-157871694D01*
X126341053Y-157871694D02*
X126293434Y-157919314D01*
X126293434Y-157919314D02*
X126198196Y-157966933D01*
X126198196Y-157966933D02*
X125960101Y-157966933D01*
X125960101Y-157966933D02*
X125864863Y-157919314D01*
X125864863Y-157919314D02*
X125817244Y-157871694D01*
X108841824Y-159157134D02*
X108508491Y-158680943D01*
X108270396Y-159157134D02*
X108270396Y-158157134D01*
X108270396Y-158157134D02*
X108651348Y-158157134D01*
X108651348Y-158157134D02*
X108746586Y-158204753D01*
X108746586Y-158204753D02*
X108794205Y-158252372D01*
X108794205Y-158252372D02*
X108841824Y-158347610D01*
X108841824Y-158347610D02*
X108841824Y-158490467D01*
X108841824Y-158490467D02*
X108794205Y-158585705D01*
X108794205Y-158585705D02*
X108746586Y-158633324D01*
X108746586Y-158633324D02*
X108651348Y-158680943D01*
X108651348Y-158680943D02*
X108270396Y-158680943D01*
X109794205Y-159157134D02*
X109222777Y-159157134D01*
X109508491Y-159157134D02*
X109508491Y-158157134D01*
X109508491Y-158157134D02*
X109413253Y-158299991D01*
X109413253Y-158299991D02*
X109318015Y-158395229D01*
X109318015Y-158395229D02*
X109222777Y-158442848D01*
X110175158Y-158252372D02*
X110222777Y-158204753D01*
X110222777Y-158204753D02*
X110318015Y-158157134D01*
X110318015Y-158157134D02*
X110556110Y-158157134D01*
X110556110Y-158157134D02*
X110651348Y-158204753D01*
X110651348Y-158204753D02*
X110698967Y-158252372D01*
X110698967Y-158252372D02*
X110746586Y-158347610D01*
X110746586Y-158347610D02*
X110746586Y-158442848D01*
X110746586Y-158442848D02*
X110698967Y-158585705D01*
X110698967Y-158585705D02*
X110127539Y-159157134D01*
X110127539Y-159157134D02*
X110746586Y-159157134D01*
X113139114Y-134750670D02*
X112662923Y-135084003D01*
X113139114Y-135322098D02*
X112139114Y-135322098D01*
X112139114Y-135322098D02*
X112139114Y-134941146D01*
X112139114Y-134941146D02*
X112186733Y-134845908D01*
X112186733Y-134845908D02*
X112234352Y-134798289D01*
X112234352Y-134798289D02*
X112329590Y-134750670D01*
X112329590Y-134750670D02*
X112472447Y-134750670D01*
X112472447Y-134750670D02*
X112567685Y-134798289D01*
X112567685Y-134798289D02*
X112615304Y-134845908D01*
X112615304Y-134845908D02*
X112662923Y-134941146D01*
X112662923Y-134941146D02*
X112662923Y-135322098D01*
X113139114Y-134274479D02*
X113139114Y-134084003D01*
X113139114Y-134084003D02*
X113091495Y-133988765D01*
X113091495Y-133988765D02*
X113043875Y-133941146D01*
X113043875Y-133941146D02*
X112901018Y-133845908D01*
X112901018Y-133845908D02*
X112710542Y-133798289D01*
X112710542Y-133798289D02*
X112329590Y-133798289D01*
X112329590Y-133798289D02*
X112234352Y-133845908D01*
X112234352Y-133845908D02*
X112186733Y-133893527D01*
X112186733Y-133893527D02*
X112139114Y-133988765D01*
X112139114Y-133988765D02*
X112139114Y-134179241D01*
X112139114Y-134179241D02*
X112186733Y-134274479D01*
X112186733Y-134274479D02*
X112234352Y-134322098D01*
X112234352Y-134322098D02*
X112329590Y-134369717D01*
X112329590Y-134369717D02*
X112567685Y-134369717D01*
X112567685Y-134369717D02*
X112662923Y-134322098D01*
X112662923Y-134322098D02*
X112710542Y-134274479D01*
X112710542Y-134274479D02*
X112758161Y-134179241D01*
X112758161Y-134179241D02*
X112758161Y-133988765D01*
X112758161Y-133988765D02*
X112710542Y-133893527D01*
X112710542Y-133893527D02*
X112662923Y-133845908D01*
X112662923Y-133845908D02*
X112567685Y-133798289D01*
X108978628Y-147676190D02*
X109454819Y-147676190D01*
X108454819Y-148009523D02*
X108978628Y-147676190D01*
X108978628Y-147676190D02*
X108454819Y-147342857D01*
X109454819Y-146485714D02*
X109454819Y-147057142D01*
X109454819Y-146771428D02*
X108454819Y-146771428D01*
X108454819Y-146771428D02*
X108597676Y-146866666D01*
X108597676Y-146866666D02*
X108692914Y-146961904D01*
X108692914Y-146961904D02*
X108740533Y-147057142D01*
X130235554Y-152200654D02*
X129902221Y-151724463D01*
X129664126Y-152200654D02*
X129664126Y-151200654D01*
X129664126Y-151200654D02*
X130045078Y-151200654D01*
X130045078Y-151200654D02*
X130140316Y-151248273D01*
X130140316Y-151248273D02*
X130187935Y-151295892D01*
X130187935Y-151295892D02*
X130235554Y-151391130D01*
X130235554Y-151391130D02*
X130235554Y-151533987D01*
X130235554Y-151533987D02*
X130187935Y-151629225D01*
X130187935Y-151629225D02*
X130140316Y-151676844D01*
X130140316Y-151676844D02*
X130045078Y-151724463D01*
X130045078Y-151724463D02*
X129664126Y-151724463D01*
X131092697Y-151533987D02*
X131092697Y-152200654D01*
X130854602Y-151153035D02*
X130616507Y-151867320D01*
X130616507Y-151867320D02*
X131235554Y-151867320D01*
X114847371Y-165042270D02*
X114990228Y-165089889D01*
X114990228Y-165089889D02*
X115228323Y-165089889D01*
X115228323Y-165089889D02*
X115323561Y-165042270D01*
X115323561Y-165042270D02*
X115371180Y-164994650D01*
X115371180Y-164994650D02*
X115418799Y-164899412D01*
X115418799Y-164899412D02*
X115418799Y-164804174D01*
X115418799Y-164804174D02*
X115371180Y-164708936D01*
X115371180Y-164708936D02*
X115323561Y-164661317D01*
X115323561Y-164661317D02*
X115228323Y-164613698D01*
X115228323Y-164613698D02*
X115037847Y-164566079D01*
X115037847Y-164566079D02*
X114942609Y-164518460D01*
X114942609Y-164518460D02*
X114894990Y-164470841D01*
X114894990Y-164470841D02*
X114847371Y-164375603D01*
X114847371Y-164375603D02*
X114847371Y-164280365D01*
X114847371Y-164280365D02*
X114894990Y-164185127D01*
X114894990Y-164185127D02*
X114942609Y-164137508D01*
X114942609Y-164137508D02*
X115037847Y-164089889D01*
X115037847Y-164089889D02*
X115275942Y-164089889D01*
X115275942Y-164089889D02*
X115418799Y-164137508D01*
X115847371Y-165089889D02*
X115847371Y-164089889D01*
X115847371Y-164089889D02*
X116228323Y-164089889D01*
X116228323Y-164089889D02*
X116323561Y-164137508D01*
X116323561Y-164137508D02*
X116371180Y-164185127D01*
X116371180Y-164185127D02*
X116418799Y-164280365D01*
X116418799Y-164280365D02*
X116418799Y-164423222D01*
X116418799Y-164423222D02*
X116371180Y-164518460D01*
X116371180Y-164518460D02*
X116323561Y-164566079D01*
X116323561Y-164566079D02*
X116228323Y-164613698D01*
X116228323Y-164613698D02*
X115847371Y-164613698D01*
X116847371Y-165089889D02*
X116847371Y-164089889D01*
X116942609Y-163708936D02*
X116799752Y-163851793D01*
X117323561Y-165089889D02*
X117323561Y-164089889D01*
X117323561Y-164089889D02*
X117561656Y-164089889D01*
X117561656Y-164089889D02*
X117704513Y-164137508D01*
X117704513Y-164137508D02*
X117799751Y-164232746D01*
X117799751Y-164232746D02*
X117847370Y-164327984D01*
X117847370Y-164327984D02*
X117894989Y-164518460D01*
X117894989Y-164518460D02*
X117894989Y-164661317D01*
X117894989Y-164661317D02*
X117847370Y-164851793D01*
X117847370Y-164851793D02*
X117799751Y-164947031D01*
X117799751Y-164947031D02*
X117704513Y-165042270D01*
X117704513Y-165042270D02*
X117561656Y-165089889D01*
X117561656Y-165089889D02*
X117323561Y-165089889D01*
X119894990Y-165089889D02*
X119847371Y-165089889D01*
X119847371Y-165089889D02*
X119752132Y-165042270D01*
X119752132Y-165042270D02*
X119609275Y-164899412D01*
X119609275Y-164899412D02*
X119371180Y-164613698D01*
X119371180Y-164613698D02*
X119275942Y-164470841D01*
X119275942Y-164470841D02*
X119228323Y-164327984D01*
X119228323Y-164327984D02*
X119228323Y-164232746D01*
X119228323Y-164232746D02*
X119275942Y-164137508D01*
X119275942Y-164137508D02*
X119371180Y-164089889D01*
X119371180Y-164089889D02*
X119418799Y-164089889D01*
X119418799Y-164089889D02*
X119514037Y-164137508D01*
X119514037Y-164137508D02*
X119561656Y-164232746D01*
X119561656Y-164232746D02*
X119561656Y-164280365D01*
X119561656Y-164280365D02*
X119514037Y-164375603D01*
X119514037Y-164375603D02*
X119466418Y-164423222D01*
X119466418Y-164423222D02*
X119180704Y-164613698D01*
X119180704Y-164613698D02*
X119133085Y-164661317D01*
X119133085Y-164661317D02*
X119085466Y-164756555D01*
X119085466Y-164756555D02*
X119085466Y-164899412D01*
X119085466Y-164899412D02*
X119133085Y-164994650D01*
X119133085Y-164994650D02*
X119180704Y-165042270D01*
X119180704Y-165042270D02*
X119275942Y-165089889D01*
X119275942Y-165089889D02*
X119418799Y-165089889D01*
X119418799Y-165089889D02*
X119514037Y-165042270D01*
X119514037Y-165042270D02*
X119561656Y-164994650D01*
X119561656Y-164994650D02*
X119704513Y-164804174D01*
X119704513Y-164804174D02*
X119752132Y-164661317D01*
X119752132Y-164661317D02*
X119752132Y-164566079D01*
X121085466Y-165089889D02*
X121085466Y-164089889D01*
X121085466Y-164089889D02*
X121466418Y-164089889D01*
X121466418Y-164089889D02*
X121561656Y-164137508D01*
X121561656Y-164137508D02*
X121609275Y-164185127D01*
X121609275Y-164185127D02*
X121656894Y-164280365D01*
X121656894Y-164280365D02*
X121656894Y-164423222D01*
X121656894Y-164423222D02*
X121609275Y-164518460D01*
X121609275Y-164518460D02*
X121561656Y-164566079D01*
X121561656Y-164566079D02*
X121466418Y-164613698D01*
X121466418Y-164613698D02*
X121085466Y-164613698D01*
X121990228Y-164089889D02*
X122228323Y-165089889D01*
X122228323Y-165089889D02*
X122418799Y-164375603D01*
X122418799Y-164375603D02*
X122609275Y-165089889D01*
X122609275Y-165089889D02*
X122847371Y-164089889D01*
X123799751Y-165089889D02*
X123466418Y-164613698D01*
X123228323Y-165089889D02*
X123228323Y-164089889D01*
X123228323Y-164089889D02*
X123609275Y-164089889D01*
X123609275Y-164089889D02*
X123704513Y-164137508D01*
X123704513Y-164137508D02*
X123752132Y-164185127D01*
X123752132Y-164185127D02*
X123799751Y-164280365D01*
X123799751Y-164280365D02*
X123799751Y-164423222D01*
X123799751Y-164423222D02*
X123752132Y-164518460D01*
X123752132Y-164518460D02*
X123704513Y-164566079D01*
X123704513Y-164566079D02*
X123609275Y-164613698D01*
X123609275Y-164613698D02*
X123228323Y-164613698D01*
X107014336Y-129485202D02*
X107014336Y-130199487D01*
X107014336Y-130199487D02*
X106966717Y-130342344D01*
X106966717Y-130342344D02*
X106871479Y-130437583D01*
X106871479Y-130437583D02*
X106728622Y-130485202D01*
X106728622Y-130485202D02*
X106633384Y-130485202D01*
X107395289Y-129485202D02*
X108061955Y-129485202D01*
X108061955Y-129485202D02*
X107633384Y-130485202D01*
X100838236Y-132563073D02*
X101073938Y-132327371D01*
X101545343Y-132596745D02*
X101208625Y-132933462D01*
X101208625Y-132933462D02*
X100501518Y-132226355D01*
X100501518Y-132226355D02*
X100838236Y-131889638D01*
X101848388Y-132293699D02*
X101141282Y-131586592D01*
X101141282Y-131586592D02*
X102252449Y-131889638D01*
X102252449Y-131889638D02*
X101545343Y-131182531D01*
X102286121Y-130509096D02*
X102185106Y-130542768D01*
X102185106Y-130542768D02*
X102084091Y-130643783D01*
X102084091Y-130643783D02*
X102016747Y-130778470D01*
X102016747Y-130778470D02*
X102016747Y-130913157D01*
X102016747Y-130913157D02*
X102050419Y-131014172D01*
X102050419Y-131014172D02*
X102151434Y-131182531D01*
X102151434Y-131182531D02*
X102252449Y-131283546D01*
X102252449Y-131283546D02*
X102420808Y-131384562D01*
X102420808Y-131384562D02*
X102521823Y-131418233D01*
X102521823Y-131418233D02*
X102656510Y-131418233D01*
X102656510Y-131418233D02*
X102791197Y-131350890D01*
X102791197Y-131350890D02*
X102858541Y-131283546D01*
X102858541Y-131283546D02*
X102925884Y-131148859D01*
X102925884Y-131148859D02*
X102925884Y-131081516D01*
X102925884Y-131081516D02*
X102690182Y-130845814D01*
X102690182Y-130845814D02*
X102555495Y-130980501D01*
X104239083Y-129903004D02*
X103666663Y-129801989D01*
X103835022Y-130307065D02*
X103127915Y-129599959D01*
X103127915Y-129599959D02*
X103397289Y-129330585D01*
X103397289Y-129330585D02*
X103498304Y-129296913D01*
X103498304Y-129296913D02*
X103565648Y-129296913D01*
X103565648Y-129296913D02*
X103666663Y-129330585D01*
X103666663Y-129330585D02*
X103767678Y-129431600D01*
X103767678Y-129431600D02*
X103801350Y-129532615D01*
X103801350Y-129532615D02*
X103801350Y-129599959D01*
X103801350Y-129599959D02*
X103767678Y-129700974D01*
X103767678Y-129700974D02*
X103498304Y-129970348D01*
X104542129Y-129599959D02*
X103835022Y-128892852D01*
X103835022Y-128892852D02*
X104104396Y-128623478D01*
X104104396Y-128623478D02*
X104205411Y-128589806D01*
X104205411Y-128589806D02*
X104272755Y-128589806D01*
X104272755Y-128589806D02*
X104373770Y-128623478D01*
X104373770Y-128623478D02*
X104474785Y-128724493D01*
X104474785Y-128724493D02*
X104508457Y-128825508D01*
X104508457Y-128825508D02*
X104508457Y-128892852D01*
X104508457Y-128892852D02*
X104474785Y-128993867D01*
X104474785Y-128993867D02*
X104205411Y-129263241D01*
X105249235Y-128892852D02*
X104542129Y-128185745D01*
X104542129Y-128185745D02*
X105282907Y-128455119D01*
X105282907Y-128455119D02*
X105013533Y-127714340D01*
X105013533Y-127714340D02*
X105720640Y-128421447D01*
X117237220Y-134554438D02*
X117189601Y-134602058D01*
X117189601Y-134602058D02*
X117046744Y-134649677D01*
X117046744Y-134649677D02*
X116951506Y-134649677D01*
X116951506Y-134649677D02*
X116808649Y-134602058D01*
X116808649Y-134602058D02*
X116713411Y-134506819D01*
X116713411Y-134506819D02*
X116665792Y-134411581D01*
X116665792Y-134411581D02*
X116618173Y-134221105D01*
X116618173Y-134221105D02*
X116618173Y-134078248D01*
X116618173Y-134078248D02*
X116665792Y-133887772D01*
X116665792Y-133887772D02*
X116713411Y-133792534D01*
X116713411Y-133792534D02*
X116808649Y-133697296D01*
X116808649Y-133697296D02*
X116951506Y-133649677D01*
X116951506Y-133649677D02*
X117046744Y-133649677D01*
X117046744Y-133649677D02*
X117189601Y-133697296D01*
X117189601Y-133697296D02*
X117237220Y-133744915D01*
X118094363Y-133649677D02*
X117903887Y-133649677D01*
X117903887Y-133649677D02*
X117808649Y-133697296D01*
X117808649Y-133697296D02*
X117761030Y-133744915D01*
X117761030Y-133744915D02*
X117665792Y-133887772D01*
X117665792Y-133887772D02*
X117618173Y-134078248D01*
X117618173Y-134078248D02*
X117618173Y-134459200D01*
X117618173Y-134459200D02*
X117665792Y-134554438D01*
X117665792Y-134554438D02*
X117713411Y-134602058D01*
X117713411Y-134602058D02*
X117808649Y-134649677D01*
X117808649Y-134649677D02*
X117999125Y-134649677D01*
X117999125Y-134649677D02*
X118094363Y-134602058D01*
X118094363Y-134602058D02*
X118141982Y-134554438D01*
X118141982Y-134554438D02*
X118189601Y-134459200D01*
X118189601Y-134459200D02*
X118189601Y-134221105D01*
X118189601Y-134221105D02*
X118141982Y-134125867D01*
X118141982Y-134125867D02*
X118094363Y-134078248D01*
X118094363Y-134078248D02*
X117999125Y-134030629D01*
X117999125Y-134030629D02*
X117808649Y-134030629D01*
X117808649Y-134030629D02*
X117713411Y-134078248D01*
X117713411Y-134078248D02*
X117665792Y-134125867D01*
X117665792Y-134125867D02*
X117618173Y-134221105D01*
X105861041Y-152231509D02*
X105813422Y-152279129D01*
X105813422Y-152279129D02*
X105670565Y-152326748D01*
X105670565Y-152326748D02*
X105575327Y-152326748D01*
X105575327Y-152326748D02*
X105432470Y-152279129D01*
X105432470Y-152279129D02*
X105337232Y-152183890D01*
X105337232Y-152183890D02*
X105289613Y-152088652D01*
X105289613Y-152088652D02*
X105241994Y-151898176D01*
X105241994Y-151898176D02*
X105241994Y-151755319D01*
X105241994Y-151755319D02*
X105289613Y-151564843D01*
X105289613Y-151564843D02*
X105337232Y-151469605D01*
X105337232Y-151469605D02*
X105432470Y-151374367D01*
X105432470Y-151374367D02*
X105575327Y-151326748D01*
X105575327Y-151326748D02*
X105670565Y-151326748D01*
X105670565Y-151326748D02*
X105813422Y-151374367D01*
X105813422Y-151374367D02*
X105861041Y-151421986D01*
X106718184Y-151660081D02*
X106718184Y-152326748D01*
X106480089Y-151279129D02*
X106241994Y-151993414D01*
X106241994Y-151993414D02*
X106861041Y-151993414D01*
X106721093Y-136771121D02*
X106387760Y-136294930D01*
X106149665Y-136771121D02*
X106149665Y-135771121D01*
X106149665Y-135771121D02*
X106530617Y-135771121D01*
X106530617Y-135771121D02*
X106625855Y-135818740D01*
X106625855Y-135818740D02*
X106673474Y-135866359D01*
X106673474Y-135866359D02*
X106721093Y-135961597D01*
X106721093Y-135961597D02*
X106721093Y-136104454D01*
X106721093Y-136104454D02*
X106673474Y-136199692D01*
X106673474Y-136199692D02*
X106625855Y-136247311D01*
X106625855Y-136247311D02*
X106530617Y-136294930D01*
X106530617Y-136294930D02*
X106149665Y-136294930D01*
X107292522Y-136199692D02*
X107197284Y-136152073D01*
X107197284Y-136152073D02*
X107149665Y-136104454D01*
X107149665Y-136104454D02*
X107102046Y-136009216D01*
X107102046Y-136009216D02*
X107102046Y-135961597D01*
X107102046Y-135961597D02*
X107149665Y-135866359D01*
X107149665Y-135866359D02*
X107197284Y-135818740D01*
X107197284Y-135818740D02*
X107292522Y-135771121D01*
X107292522Y-135771121D02*
X107482998Y-135771121D01*
X107482998Y-135771121D02*
X107578236Y-135818740D01*
X107578236Y-135818740D02*
X107625855Y-135866359D01*
X107625855Y-135866359D02*
X107673474Y-135961597D01*
X107673474Y-135961597D02*
X107673474Y-136009216D01*
X107673474Y-136009216D02*
X107625855Y-136104454D01*
X107625855Y-136104454D02*
X107578236Y-136152073D01*
X107578236Y-136152073D02*
X107482998Y-136199692D01*
X107482998Y-136199692D02*
X107292522Y-136199692D01*
X107292522Y-136199692D02*
X107197284Y-136247311D01*
X107197284Y-136247311D02*
X107149665Y-136294930D01*
X107149665Y-136294930D02*
X107102046Y-136390168D01*
X107102046Y-136390168D02*
X107102046Y-136580644D01*
X107102046Y-136580644D02*
X107149665Y-136675882D01*
X107149665Y-136675882D02*
X107197284Y-136723502D01*
X107197284Y-136723502D02*
X107292522Y-136771121D01*
X107292522Y-136771121D02*
X107482998Y-136771121D01*
X107482998Y-136771121D02*
X107578236Y-136723502D01*
X107578236Y-136723502D02*
X107625855Y-136675882D01*
X107625855Y-136675882D02*
X107673474Y-136580644D01*
X107673474Y-136580644D02*
X107673474Y-136390168D01*
X107673474Y-136390168D02*
X107625855Y-136294930D01*
X107625855Y-136294930D02*
X107578236Y-136247311D01*
X107578236Y-136247311D02*
X107482998Y-136199692D01*
X120667335Y-149253323D02*
X120619716Y-149300943D01*
X120619716Y-149300943D02*
X120476859Y-149348562D01*
X120476859Y-149348562D02*
X120381621Y-149348562D01*
X120381621Y-149348562D02*
X120238764Y-149300943D01*
X120238764Y-149300943D02*
X120143526Y-149205704D01*
X120143526Y-149205704D02*
X120095907Y-149110466D01*
X120095907Y-149110466D02*
X120048288Y-148919990D01*
X120048288Y-148919990D02*
X120048288Y-148777133D01*
X120048288Y-148777133D02*
X120095907Y-148586657D01*
X120095907Y-148586657D02*
X120143526Y-148491419D01*
X120143526Y-148491419D02*
X120238764Y-148396181D01*
X120238764Y-148396181D02*
X120381621Y-148348562D01*
X120381621Y-148348562D02*
X120476859Y-148348562D01*
X120476859Y-148348562D02*
X120619716Y-148396181D01*
X120619716Y-148396181D02*
X120667335Y-148443800D01*
X121619716Y-149348562D02*
X121048288Y-149348562D01*
X121334002Y-149348562D02*
X121334002Y-148348562D01*
X121334002Y-148348562D02*
X121238764Y-148491419D01*
X121238764Y-148491419D02*
X121143526Y-148586657D01*
X121143526Y-148586657D02*
X121048288Y-148634276D01*
X122572097Y-149348562D02*
X122000669Y-149348562D01*
X122286383Y-149348562D02*
X122286383Y-148348562D01*
X122286383Y-148348562D02*
X122191145Y-148491419D01*
X122191145Y-148491419D02*
X122095907Y-148586657D01*
X122095907Y-148586657D02*
X122000669Y-148634276D01*
X104471222Y-147831739D02*
X104518842Y-147879358D01*
X104518842Y-147879358D02*
X104566461Y-148022215D01*
X104566461Y-148022215D02*
X104566461Y-148117453D01*
X104566461Y-148117453D02*
X104518842Y-148260310D01*
X104518842Y-148260310D02*
X104423603Y-148355548D01*
X104423603Y-148355548D02*
X104328365Y-148403167D01*
X104328365Y-148403167D02*
X104137889Y-148450786D01*
X104137889Y-148450786D02*
X103995032Y-148450786D01*
X103995032Y-148450786D02*
X103804556Y-148403167D01*
X103804556Y-148403167D02*
X103709318Y-148355548D01*
X103709318Y-148355548D02*
X103614080Y-148260310D01*
X103614080Y-148260310D02*
X103566461Y-148117453D01*
X103566461Y-148117453D02*
X103566461Y-148022215D01*
X103566461Y-148022215D02*
X103614080Y-147879358D01*
X103614080Y-147879358D02*
X103661699Y-147831739D01*
X104566461Y-146879358D02*
X104566461Y-147450786D01*
X104566461Y-147165072D02*
X103566461Y-147165072D01*
X103566461Y-147165072D02*
X103709318Y-147260310D01*
X103709318Y-147260310D02*
X103804556Y-147355548D01*
X103804556Y-147355548D02*
X103852175Y-147450786D01*
X132456644Y-138741611D02*
X132456644Y-137741611D01*
X133504262Y-138646372D02*
X133456643Y-138693992D01*
X133456643Y-138693992D02*
X133313786Y-138741611D01*
X133313786Y-138741611D02*
X133218548Y-138741611D01*
X133218548Y-138741611D02*
X133075691Y-138693992D01*
X133075691Y-138693992D02*
X132980453Y-138598753D01*
X132980453Y-138598753D02*
X132932834Y-138503515D01*
X132932834Y-138503515D02*
X132885215Y-138313039D01*
X132885215Y-138313039D02*
X132885215Y-138170182D01*
X132885215Y-138170182D02*
X132932834Y-137979706D01*
X132932834Y-137979706D02*
X132980453Y-137884468D01*
X132980453Y-137884468D02*
X133075691Y-137789230D01*
X133075691Y-137789230D02*
X133218548Y-137741611D01*
X133218548Y-137741611D02*
X133313786Y-137741611D01*
X133313786Y-137741611D02*
X133456643Y-137789230D01*
X133456643Y-137789230D02*
X133504262Y-137836849D01*
X133885215Y-138693992D02*
X134028072Y-138741611D01*
X134028072Y-138741611D02*
X134266167Y-138741611D01*
X134266167Y-138741611D02*
X134361405Y-138693992D01*
X134361405Y-138693992D02*
X134409024Y-138646372D01*
X134409024Y-138646372D02*
X134456643Y-138551134D01*
X134456643Y-138551134D02*
X134456643Y-138455896D01*
X134456643Y-138455896D02*
X134409024Y-138360658D01*
X134409024Y-138360658D02*
X134361405Y-138313039D01*
X134361405Y-138313039D02*
X134266167Y-138265420D01*
X134266167Y-138265420D02*
X134075691Y-138217801D01*
X134075691Y-138217801D02*
X133980453Y-138170182D01*
X133980453Y-138170182D02*
X133932834Y-138122563D01*
X133932834Y-138122563D02*
X133885215Y-138027325D01*
X133885215Y-138027325D02*
X133885215Y-137932087D01*
X133885215Y-137932087D02*
X133932834Y-137836849D01*
X133932834Y-137836849D02*
X133980453Y-137789230D01*
X133980453Y-137789230D02*
X134075691Y-137741611D01*
X134075691Y-137741611D02*
X134313786Y-137741611D01*
X134313786Y-137741611D02*
X134456643Y-137789230D01*
X134885215Y-138741611D02*
X134885215Y-137741611D01*
X134885215Y-137741611D02*
X135266167Y-137741611D01*
X135266167Y-137741611D02*
X135361405Y-137789230D01*
X135361405Y-137789230D02*
X135409024Y-137836849D01*
X135409024Y-137836849D02*
X135456643Y-137932087D01*
X135456643Y-137932087D02*
X135456643Y-138074944D01*
X135456643Y-138074944D02*
X135409024Y-138170182D01*
X135409024Y-138170182D02*
X135361405Y-138217801D01*
X135361405Y-138217801D02*
X135266167Y-138265420D01*
X135266167Y-138265420D02*
X134885215Y-138265420D01*
X107682082Y-145898997D02*
X107682082Y-144898997D01*
X107682082Y-144898997D02*
X107920177Y-144898997D01*
X107920177Y-144898997D02*
X108063034Y-144946616D01*
X108063034Y-144946616D02*
X108158272Y-145041854D01*
X108158272Y-145041854D02*
X108205891Y-145137092D01*
X108205891Y-145137092D02*
X108253510Y-145327568D01*
X108253510Y-145327568D02*
X108253510Y-145470425D01*
X108253510Y-145470425D02*
X108205891Y-145660901D01*
X108205891Y-145660901D02*
X108158272Y-145756139D01*
X108158272Y-145756139D02*
X108063034Y-145851378D01*
X108063034Y-145851378D02*
X107920177Y-145898997D01*
X107920177Y-145898997D02*
X107682082Y-145898997D01*
X109110653Y-144898997D02*
X108920177Y-144898997D01*
X108920177Y-144898997D02*
X108824939Y-144946616D01*
X108824939Y-144946616D02*
X108777320Y-144994235D01*
X108777320Y-144994235D02*
X108682082Y-145137092D01*
X108682082Y-145137092D02*
X108634463Y-145327568D01*
X108634463Y-145327568D02*
X108634463Y-145708520D01*
X108634463Y-145708520D02*
X108682082Y-145803758D01*
X108682082Y-145803758D02*
X108729701Y-145851378D01*
X108729701Y-145851378D02*
X108824939Y-145898997D01*
X108824939Y-145898997D02*
X109015415Y-145898997D01*
X109015415Y-145898997D02*
X109110653Y-145851378D01*
X109110653Y-145851378D02*
X109158272Y-145803758D01*
X109158272Y-145803758D02*
X109205891Y-145708520D01*
X109205891Y-145708520D02*
X109205891Y-145470425D01*
X109205891Y-145470425D02*
X109158272Y-145375187D01*
X109158272Y-145375187D02*
X109110653Y-145327568D01*
X109110653Y-145327568D02*
X109015415Y-145279949D01*
X109015415Y-145279949D02*
X108824939Y-145279949D01*
X108824939Y-145279949D02*
X108729701Y-145327568D01*
X108729701Y-145327568D02*
X108682082Y-145375187D01*
X108682082Y-145375187D02*
X108634463Y-145470425D01*
X126954819Y-130333333D02*
X127669104Y-130333333D01*
X127669104Y-130333333D02*
X127811961Y-130380952D01*
X127811961Y-130380952D02*
X127907200Y-130476190D01*
X127907200Y-130476190D02*
X127954819Y-130619047D01*
X127954819Y-130619047D02*
X127954819Y-130714285D01*
X126954819Y-129428571D02*
X126954819Y-129619047D01*
X126954819Y-129619047D02*
X127002438Y-129714285D01*
X127002438Y-129714285D02*
X127050057Y-129761904D01*
X127050057Y-129761904D02*
X127192914Y-129857142D01*
X127192914Y-129857142D02*
X127383390Y-129904761D01*
X127383390Y-129904761D02*
X127764342Y-129904761D01*
X127764342Y-129904761D02*
X127859580Y-129857142D01*
X127859580Y-129857142D02*
X127907200Y-129809523D01*
X127907200Y-129809523D02*
X127954819Y-129714285D01*
X127954819Y-129714285D02*
X127954819Y-129523809D01*
X127954819Y-129523809D02*
X127907200Y-129428571D01*
X127907200Y-129428571D02*
X127859580Y-129380952D01*
X127859580Y-129380952D02*
X127764342Y-129333333D01*
X127764342Y-129333333D02*
X127526247Y-129333333D01*
X127526247Y-129333333D02*
X127431009Y-129380952D01*
X127431009Y-129380952D02*
X127383390Y-129428571D01*
X127383390Y-129428571D02*
X127335771Y-129523809D01*
X127335771Y-129523809D02*
X127335771Y-129714285D01*
X127335771Y-129714285D02*
X127383390Y-129809523D01*
X127383390Y-129809523D02*
X127431009Y-129857142D01*
X127431009Y-129857142D02*
X127526247Y-129904761D01*
X123374819Y-131833333D02*
X124089104Y-131833333D01*
X124089104Y-131833333D02*
X124231961Y-131880952D01*
X124231961Y-131880952D02*
X124327200Y-131976190D01*
X124327200Y-131976190D02*
X124374819Y-132119047D01*
X124374819Y-132119047D02*
X124374819Y-132214285D01*
X123470057Y-131404761D02*
X123422438Y-131357142D01*
X123422438Y-131357142D02*
X123374819Y-131261904D01*
X123374819Y-131261904D02*
X123374819Y-131023809D01*
X123374819Y-131023809D02*
X123422438Y-130928571D01*
X123422438Y-130928571D02*
X123470057Y-130880952D01*
X123470057Y-130880952D02*
X123565295Y-130833333D01*
X123565295Y-130833333D02*
X123660533Y-130833333D01*
X123660533Y-130833333D02*
X123803390Y-130880952D01*
X123803390Y-130880952D02*
X124374819Y-131452380D01*
X124374819Y-131452380D02*
X124374819Y-130833333D01*
X118727117Y-151873734D02*
X118250926Y-152207067D01*
X118727117Y-152445162D02*
X117727117Y-152445162D01*
X117727117Y-152445162D02*
X117727117Y-152064210D01*
X117727117Y-152064210D02*
X117774736Y-151968972D01*
X117774736Y-151968972D02*
X117822355Y-151921353D01*
X117822355Y-151921353D02*
X117917593Y-151873734D01*
X117917593Y-151873734D02*
X118060450Y-151873734D01*
X118060450Y-151873734D02*
X118155688Y-151921353D01*
X118155688Y-151921353D02*
X118203307Y-151968972D01*
X118203307Y-151968972D02*
X118250926Y-152064210D01*
X118250926Y-152064210D02*
X118250926Y-152445162D01*
X118727117Y-150921353D02*
X118727117Y-151492781D01*
X118727117Y-151207067D02*
X117727117Y-151207067D01*
X117727117Y-151207067D02*
X117869974Y-151302305D01*
X117869974Y-151302305D02*
X117965212Y-151397543D01*
X117965212Y-151397543D02*
X118012831Y-151492781D01*
X118727117Y-149968972D02*
X118727117Y-150540400D01*
X118727117Y-150254686D02*
X117727117Y-150254686D01*
X117727117Y-150254686D02*
X117869974Y-150349924D01*
X117869974Y-150349924D02*
X117965212Y-150445162D01*
X117965212Y-150445162D02*
X118012831Y-150540400D01*
X102444171Y-144304312D02*
X101444171Y-144304312D01*
X101444171Y-144304312D02*
X101444171Y-144066217D01*
X101444171Y-144066217D02*
X101491790Y-143923360D01*
X101491790Y-143923360D02*
X101587028Y-143828122D01*
X101587028Y-143828122D02*
X101682266Y-143780503D01*
X101682266Y-143780503D02*
X101872742Y-143732884D01*
X101872742Y-143732884D02*
X102015599Y-143732884D01*
X102015599Y-143732884D02*
X102206075Y-143780503D01*
X102206075Y-143780503D02*
X102301313Y-143828122D01*
X102301313Y-143828122D02*
X102396552Y-143923360D01*
X102396552Y-143923360D02*
X102444171Y-144066217D01*
X102444171Y-144066217D02*
X102444171Y-144304312D01*
X101872742Y-143161455D02*
X101825123Y-143256693D01*
X101825123Y-143256693D02*
X101777504Y-143304312D01*
X101777504Y-143304312D02*
X101682266Y-143351931D01*
X101682266Y-143351931D02*
X101634647Y-143351931D01*
X101634647Y-143351931D02*
X101539409Y-143304312D01*
X101539409Y-143304312D02*
X101491790Y-143256693D01*
X101491790Y-143256693D02*
X101444171Y-143161455D01*
X101444171Y-143161455D02*
X101444171Y-142970979D01*
X101444171Y-142970979D02*
X101491790Y-142875741D01*
X101491790Y-142875741D02*
X101539409Y-142828122D01*
X101539409Y-142828122D02*
X101634647Y-142780503D01*
X101634647Y-142780503D02*
X101682266Y-142780503D01*
X101682266Y-142780503D02*
X101777504Y-142828122D01*
X101777504Y-142828122D02*
X101825123Y-142875741D01*
X101825123Y-142875741D02*
X101872742Y-142970979D01*
X101872742Y-142970979D02*
X101872742Y-143161455D01*
X101872742Y-143161455D02*
X101920361Y-143256693D01*
X101920361Y-143256693D02*
X101967980Y-143304312D01*
X101967980Y-143304312D02*
X102063218Y-143351931D01*
X102063218Y-143351931D02*
X102253694Y-143351931D01*
X102253694Y-143351931D02*
X102348932Y-143304312D01*
X102348932Y-143304312D02*
X102396552Y-143256693D01*
X102396552Y-143256693D02*
X102444171Y-143161455D01*
X102444171Y-143161455D02*
X102444171Y-142970979D01*
X102444171Y-142970979D02*
X102396552Y-142875741D01*
X102396552Y-142875741D02*
X102348932Y-142828122D01*
X102348932Y-142828122D02*
X102253694Y-142780503D01*
X102253694Y-142780503D02*
X102063218Y-142780503D01*
X102063218Y-142780503D02*
X101967980Y-142828122D01*
X101967980Y-142828122D02*
X101920361Y-142875741D01*
X101920361Y-142875741D02*
X101872742Y-142970979D01*
X123350140Y-143929580D02*
X123302521Y-143977200D01*
X123302521Y-143977200D02*
X123159664Y-144024819D01*
X123159664Y-144024819D02*
X123064426Y-144024819D01*
X123064426Y-144024819D02*
X122921569Y-143977200D01*
X122921569Y-143977200D02*
X122826331Y-143881961D01*
X122826331Y-143881961D02*
X122778712Y-143786723D01*
X122778712Y-143786723D02*
X122731093Y-143596247D01*
X122731093Y-143596247D02*
X122731093Y-143453390D01*
X122731093Y-143453390D02*
X122778712Y-143262914D01*
X122778712Y-143262914D02*
X122826331Y-143167676D01*
X122826331Y-143167676D02*
X122921569Y-143072438D01*
X122921569Y-143072438D02*
X123064426Y-143024819D01*
X123064426Y-143024819D02*
X123159664Y-143024819D01*
X123159664Y-143024819D02*
X123302521Y-143072438D01*
X123302521Y-143072438D02*
X123350140Y-143120057D01*
X123683474Y-143024819D02*
X124302521Y-143024819D01*
X124302521Y-143024819D02*
X123969188Y-143405771D01*
X123969188Y-143405771D02*
X124112045Y-143405771D01*
X124112045Y-143405771D02*
X124207283Y-143453390D01*
X124207283Y-143453390D02*
X124254902Y-143501009D01*
X124254902Y-143501009D02*
X124302521Y-143596247D01*
X124302521Y-143596247D02*
X124302521Y-143834342D01*
X124302521Y-143834342D02*
X124254902Y-143929580D01*
X124254902Y-143929580D02*
X124207283Y-143977200D01*
X124207283Y-143977200D02*
X124112045Y-144024819D01*
X124112045Y-144024819D02*
X123826331Y-144024819D01*
X123826331Y-144024819D02*
X123731093Y-143977200D01*
X123731093Y-143977200D02*
X123683474Y-143929580D01*
%TO.C,D3*%
D12*
X117807500Y-157245000D02*
X117807500Y-158715000D01*
X117807500Y-158715000D02*
X120092500Y-158715000D01*
X120092500Y-157245000D02*
X117807500Y-157245000D01*
%TO.C,Q1*%
X109915000Y-138475000D02*
X109915000Y-142805000D01*
X110115000Y-138475000D02*
X109915000Y-138475000D01*
X112615000Y-143175000D02*
X112815000Y-143175000D01*
X112815000Y-138475000D02*
X112615000Y-138475000D01*
X112815000Y-143175000D02*
X112815000Y-138475000D01*
X110115000Y-143175000D02*
X110115000Y-143455000D01*
X109835000Y-143175000D01*
X110115000Y-143175000D01*
G36*
X110115000Y-143455000D02*
G01*
X109835000Y-143175000D01*
X110115000Y-143175000D01*
X110115000Y-143455000D01*
G37*
%TO.C,*%
X121767076Y-140610856D02*
X121767076Y-140892016D01*
X122787076Y-140610856D02*
X122787076Y-140892016D01*
%TO.C,R10*%
X114937742Y-158477500D02*
X115412258Y-158477500D01*
X114937742Y-159522500D02*
X115412258Y-159522500D01*
%TO.C,*%
X126863601Y-137600864D02*
X126863601Y-137882024D01*
X127883601Y-137600864D02*
X127883601Y-137882024D01*
%TO.C,C14*%
X132359420Y-147990000D02*
X132640580Y-147990000D01*
X132359420Y-149010000D02*
X132640580Y-149010000D01*
%TO.C,Q2*%
X123527904Y-152515817D02*
X123527904Y-152715817D01*
X123527904Y-152715817D02*
X128227904Y-152715817D01*
X128227904Y-149815817D02*
X123897904Y-149815817D01*
X128227904Y-150015817D02*
X128227904Y-149815817D01*
X128227904Y-152715817D02*
X128227904Y-152515817D01*
X123527904Y-150015817D02*
X123247904Y-150015817D01*
X123527904Y-149735817D01*
X123527904Y-150015817D01*
G36*
X123527904Y-150015817D02*
G01*
X123247904Y-150015817D01*
X123527904Y-149735817D01*
X123527904Y-150015817D01*
G37*
%TO.C,C2*%
X135918326Y-137589769D02*
X135822165Y-137325565D01*
X136876813Y-137240909D02*
X136780652Y-136976705D01*
%TO.C,U3*%
X111090000Y-150090000D02*
X111090000Y-151350000D01*
X111090000Y-156910000D02*
X111090000Y-155650000D01*
X114850000Y-150090000D02*
X111090000Y-150090000D01*
X114850000Y-156910000D02*
X111090000Y-156910000D01*
X116130000Y-156810000D02*
X116370000Y-157140000D01*
X115890000Y-157140000D01*
X116130000Y-156810000D01*
G36*
X116370000Y-157140000D02*
G01*
X115890000Y-157140000D01*
X116130000Y-156810000D01*
X116370000Y-157140000D01*
G37*
%TO.C,C15*%
X104811195Y-142354966D02*
X104811195Y-142636126D01*
X105831195Y-142354966D02*
X105831195Y-142636126D01*
%TO.C,R1*%
X115477500Y-137737258D02*
X115477500Y-137262742D01*
X116522500Y-137737258D02*
X116522500Y-137262742D01*
%TO.C,C5*%
X119359420Y-155470000D02*
X119640580Y-155470000D01*
X119359420Y-156490000D02*
X119640580Y-156490000D01*
%TO.C,R5*%
X125417260Y-158396898D02*
X125891776Y-158396898D01*
X125417260Y-159441898D02*
X125891776Y-159441898D01*
%TO.C,*%
X121753505Y-137582807D02*
X121753505Y-137863967D01*
X122773505Y-137582807D02*
X122773505Y-137863967D01*
%TO.C,R12*%
X112433935Y-158474202D02*
X111959419Y-158474202D01*
X112433935Y-159519202D02*
X111959419Y-159519202D01*
%TO.C,*%
X124353695Y-137618921D02*
X124353695Y-137900081D01*
X125373695Y-137618921D02*
X125373695Y-137900081D01*
%TO.C,J4*%
X132089356Y-139543469D02*
X133469356Y-139543469D01*
X132089356Y-140923469D02*
X132089356Y-139543469D01*
X132089356Y-142193469D02*
X132089356Y-147383469D01*
X132089356Y-142193469D02*
X134849356Y-142193469D01*
X132089356Y-147383469D02*
X134849356Y-147383469D01*
X134849356Y-142193469D02*
X134849356Y-147383469D01*
%TO.C,R9*%
X109290827Y-134662020D02*
X109290827Y-132262020D01*
X111690827Y-134662020D02*
X111690827Y-132262020D01*
%TO.C,Y1*%
X109800000Y-145400000D02*
X111800000Y-145400000D01*
X109800000Y-146200000D02*
X109800000Y-145400000D01*
X109800000Y-149000000D02*
X109800000Y-148000000D01*
X109800000Y-149200000D02*
X111800000Y-149200000D01*
X111800000Y-145400000D02*
X112200000Y-145400000D01*
X111800000Y-149000000D02*
X109800000Y-149000000D01*
X111800000Y-149000000D02*
X112200000Y-149000000D01*
X111800000Y-149200000D02*
X112200000Y-149200000D01*
X112200000Y-145400000D02*
X112200000Y-146200000D01*
X112200000Y-148000000D02*
X112200000Y-149000000D01*
X112200000Y-148000000D02*
X112600000Y-148000000D01*
%TO.C,R4*%
X130808753Y-149775342D02*
X131283269Y-149775342D01*
X130808753Y-150820342D02*
X131283269Y-150820342D01*
%TO.C,J5*%
X113363561Y-163495070D02*
X113363561Y-162115070D01*
X114743561Y-163495070D02*
X113363561Y-163495070D01*
X116013561Y-160735070D02*
X123743561Y-160735070D01*
X116013561Y-163495070D02*
X116013561Y-160735070D01*
X116013561Y-163495070D02*
X123743561Y-163495070D01*
X123743561Y-163495070D02*
X123743561Y-160735070D01*
%TO.C,J7*%
X106345000Y-128880000D02*
X106345000Y-127500000D01*
X107725000Y-128880000D02*
X106345000Y-128880000D01*
X108995000Y-126120000D02*
X111645000Y-126120000D01*
X108995000Y-128880000D02*
X108995000Y-126120000D01*
X108995000Y-128880000D02*
X111645000Y-128880000D01*
X111645000Y-128880000D02*
X111645000Y-126120000D01*
%TO.C,C6*%
X114920800Y-133645998D02*
X114639640Y-133645998D01*
X114920800Y-134665998D02*
X114639640Y-134665998D01*
%TO.C,C12*%
X126857531Y-140641404D02*
X126857531Y-140922564D01*
X127877531Y-140641404D02*
X127877531Y-140922564D01*
%TO.C,C4*%
X104427708Y-151076929D02*
X108347708Y-151076929D01*
X108347708Y-149166929D02*
X104427708Y-149166929D01*
X108347708Y-151076929D02*
X108347708Y-149166929D01*
%TO.C,R8*%
X106477500Y-138737258D02*
X106477500Y-138262742D01*
X107522500Y-138737258D02*
X107522500Y-138262742D01*
%TO.C,C13*%
X129357531Y-140641404D02*
X129357531Y-140922564D01*
X130377531Y-140641404D02*
X130377531Y-140922564D01*
%TO.C,C11*%
X121172667Y-151125237D02*
X121172667Y-151406397D01*
X122192667Y-151125237D02*
X122192667Y-151406397D01*
%TO.C,*%
X124357531Y-140641404D02*
X124357531Y-140922564D01*
X125377531Y-140641404D02*
X125377531Y-140922564D01*
%TO.C,C1*%
X106323640Y-147078507D02*
X106042480Y-147078507D01*
X106323640Y-148098507D02*
X106042480Y-148098507D01*
%TO.C,J3*%
X135620000Y-139540000D02*
X137000000Y-139540000D01*
X135620000Y-140920000D02*
X135620000Y-139540000D01*
X135620000Y-142190000D02*
X135620000Y-147380000D01*
X135620000Y-142190000D02*
X138380000Y-142190000D01*
X135620000Y-147380000D02*
X138380000Y-147380000D01*
X138380000Y-142190000D02*
X138380000Y-147380000D01*
%TO.C,D6*%
X107500000Y-140290000D02*
X107500000Y-144150000D01*
X109500000Y-140290000D02*
X107500000Y-140290000D01*
X109500000Y-140290000D02*
X109500000Y-144150000D01*
%TO.C,J6*%
X120080000Y-129137222D02*
X120080000Y-127757222D01*
X121460000Y-129137222D02*
X120080000Y-129137222D01*
X122730000Y-126377222D02*
X130460000Y-126377222D01*
X122730000Y-129137222D02*
X122730000Y-126377222D01*
X122730000Y-129137222D02*
X130460000Y-129137222D01*
X130460000Y-129137222D02*
X130460000Y-126377222D01*
%TO.C,J2*%
X112540000Y-130120000D02*
X112540000Y-132880000D01*
X120270000Y-130120000D02*
X112540000Y-130120000D01*
X120270000Y-130120000D02*
X120270000Y-132880000D01*
X120270000Y-132880000D02*
X112540000Y-132880000D01*
X121540000Y-130120000D02*
X122920000Y-130120000D01*
X122920000Y-130120000D02*
X122920000Y-131500000D01*
%TO.C,U1*%
X114420000Y-142390000D02*
X114895000Y-142390000D01*
X114420000Y-142865000D02*
X114420000Y-142390000D01*
X114420000Y-147610000D02*
X114420000Y-147135000D01*
X114895000Y-147610000D02*
X114420000Y-147610000D01*
X119165000Y-142390000D02*
X119640000Y-142390000D01*
X119640000Y-142390000D02*
X119640000Y-142865000D01*
X119640000Y-147135000D02*
X119640000Y-147610000D01*
X119640000Y-147610000D02*
X119165000Y-147610000D01*
X113890000Y-143250000D02*
X113560000Y-143490000D01*
X113560000Y-143010000D01*
X113890000Y-143250000D01*
G36*
X113890000Y-143250000D02*
G01*
X113560000Y-143490000D01*
X113560000Y-143010000D01*
X113890000Y-143250000D01*
G37*
%TO.C,*%
X129355451Y-137600864D02*
X129355451Y-137882024D01*
X130375451Y-137600864D02*
X130375451Y-137882024D01*
%TO.C,R11*%
X118904016Y-151543900D02*
X118904016Y-151069384D01*
X119949016Y-151543900D02*
X119949016Y-151069384D01*
%TO.C,D7*%
X107377201Y-161209237D02*
X109810637Y-162343968D01*
X109810637Y-162343968D02*
X110622064Y-160603857D01*
X110622064Y-160603857D02*
X108188626Y-159469127D01*
%TO.C,D8*%
X96739352Y-150576218D02*
X96739352Y-139266218D01*
X103239352Y-150576218D02*
X96739352Y-150576218D01*
X103239352Y-150576218D02*
X103239352Y-139266218D01*
%TO.C,C3*%
X123376227Y-144490000D02*
X123657387Y-144490000D01*
X123376227Y-145510000D02*
X123657387Y-145510000D01*
%TO.C,D1*%
X134123666Y-147866422D02*
X134123666Y-149786420D01*
X134123666Y-149786420D02*
X136808666Y-149786422D01*
X136808667Y-147866421D02*
X134123666Y-147866422D01*
%TO.C,D2*%
X124579279Y-160905865D02*
X125390705Y-162645976D01*
X125390705Y-162645976D02*
X127824141Y-161511247D01*
X127012714Y-159771136D02*
X124579279Y-160905865D01*
%TD*%
M02*
