%TF.GenerationSoftware,KiCad,Pcbnew,10.0.4*%
%TF.CreationDate,2026-07-07T22:15:54+02:00*%
%TF.ProjectId,Stadion_rychlomer,53746164-696f-46e5-9f72-7963686c6f6d,rev?*%
%TF.SameCoordinates,Original*%
%TF.FileFunction,Copper,L3,Inr*%
%TF.FilePolarity,Positive*%
%FSLAX46Y46*%
G04 Gerber Fmt 4.6, Leading zero omitted, Abs format (unit mm)*
G04 Created by KiCad (PCBNEW 10.0.4) date 2026-07-07 22:15:54*
%MOMM*%
%LPD*%
G01*
G04 APERTURE LIST*
%TA.AperFunction,ComponentPad*%
%ADD10C,1.700000*%
%TD*%
%TA.AperFunction,ComponentPad*%
%ADD11R,1.700000X1.700000*%
%TD*%
%TA.AperFunction,ViaPad*%
%ADD12C,0.600000*%
%TD*%
%TA.AperFunction,Conductor*%
%ADD13C,0.500000*%
%TD*%
%TA.AperFunction,Conductor*%
%ADD14C,0.200000*%
%TD*%
G04 APERTURE END LIST*
D10*
%TO.N,GND*%
%TO.C,*%
X118907959Y-127817481D03*
%TD*%
%TO.N,+5V*%
%TO.C,*%
X104883274Y-145353628D03*
%TD*%
D11*
%TO.N,/D12{slash}MISO_*%
%TO.C,J4*%
X133469356Y-140923469D03*
D10*
%TO.N,/D13{slash}SCK_*%
X133469356Y-143463469D03*
%TO.N,/RESET_*%
X133469356Y-146003469D03*
%TD*%
D11*
%TO.N,/D2_SPD*%
%TO.C,J5*%
X114743561Y-162115070D03*
D10*
%TO.N,+5V*%
X117283561Y-162115070D03*
%TO.N,VBUS*%
X119823561Y-162115070D03*
%TO.N,GND*%
X122363561Y-162115070D03*
%TD*%
D11*
%TO.N,/D3_ENG_RPM*%
%TO.C,J7*%
X107725000Y-127500000D03*
D10*
%TO.N,GND*%
X110265000Y-127500000D03*
%TD*%
%TO.N,GND*%
%TO.C,*%
X104753173Y-139629183D03*
%TD*%
D11*
%TO.N,+5V*%
%TO.C,J3*%
X137000000Y-140920000D03*
D10*
%TO.N,/D11{slash}MOSI_*%
X137000000Y-143460000D03*
%TO.N,GND*%
X137000000Y-146000000D03*
%TD*%
D11*
%TO.N,/D4_AUX*%
%TO.C,J6*%
X121460000Y-127757222D03*
D10*
%TO.N,/D5_AUX*%
X124000000Y-127757222D03*
%TO.N,/A1_AUX*%
X126540000Y-127757222D03*
%TO.N,/A0_AUX*%
X129080000Y-127757222D03*
%TD*%
D11*
%TO.N,/I2C_SDA*%
%TO.C,J2*%
X121540000Y-131500000D03*
D10*
%TO.N,/I2C_SCL*%
X119000000Y-131500000D03*
%TO.N,+5V*%
X116460000Y-131500000D03*
%TO.N,GND*%
X113920000Y-131500000D03*
%TD*%
%TO.N,GND*%
%TO.C,*%
X112088713Y-162154958D03*
%TD*%
%TO.N,+5V*%
%TO.C,*%
X116368110Y-127803677D03*
%TD*%
D12*
%TO.N,+5V*%
X113050000Y-153500000D03*
%TO.N,GND*%
X127367531Y-141556984D03*
X104675208Y-150121929D03*
X100000000Y-147000000D03*
X112000000Y-143000000D03*
X124867531Y-141556984D03*
X116840735Y-145189265D03*
%TO.N,+5V*%
X124863695Y-136984501D03*
X127373601Y-136966444D03*
X120600000Y-146000000D03*
X107839558Y-160365595D03*
X116000000Y-136500000D03*
X122263505Y-136948387D03*
X129865451Y-136966444D03*
X112667452Y-144629212D03*
%TO.N,/D2_SPD*%
X119426516Y-150481642D03*
%TO.N,/RESET_*%
X116000000Y-139500000D03*
%TO.N,/D12{slash}MISO_*%
X122000000Y-147500000D03*
%TO.N,/D11{slash}MOSI_*%
X128500000Y-148500000D03*
%TO.N,/D4_AUX*%
X111000000Y-141500000D03*
%TO.N,/D5_AUX*%
X115500000Y-149000000D03*
X125000000Y-140000000D03*
%TO.N,/I2C_SDA*%
X117000000Y-140500000D03*
%TO.N,Net-(U1-PD2)*%
X128052904Y-150630817D03*
X115000000Y-141500000D03*
%TD*%
%TO.N,+5V*%
D13*
X113731372Y-143565292D02*
X113731372Y-138768628D01*
D14*
X116317950Y-136182050D02*
X116000000Y-136500000D01*
D13*
X118900691Y-136182050D02*
X116317950Y-136182050D01*
D14*
X110568249Y-158446449D02*
X113125000Y-155889698D01*
D13*
X116460000Y-159224698D02*
X116460000Y-161291509D01*
D14*
X113125000Y-146000000D02*
X120600000Y-146000000D01*
D13*
X113731372Y-138768628D02*
X116000000Y-136500000D01*
D14*
X133046444Y-136966444D02*
X137000000Y-140920000D01*
X107839558Y-160365595D02*
X109758704Y-158446449D01*
X129865451Y-136966444D02*
X133046444Y-136966444D01*
X109758704Y-158446449D02*
X110568249Y-158446449D01*
D13*
X112667452Y-144629212D02*
X113731372Y-143565292D01*
X112667452Y-144629212D02*
X113125000Y-145086760D01*
X118900691Y-136182050D02*
X119685085Y-136966444D01*
X119685085Y-136966444D02*
X129865451Y-136966444D01*
X113125000Y-155889698D02*
X116460000Y-159224698D01*
X113125000Y-145086760D02*
X113125000Y-155889698D01*
X116460000Y-161291509D02*
X117283561Y-162115070D01*
%TO.N,/D12{slash}MISO_*%
D14*
X122000000Y-147500000D02*
X126842650Y-147500000D01*
X133462650Y-140880000D02*
X133500000Y-140880000D01*
X126842650Y-147500000D02*
X133462650Y-140880000D01*
%TO.N,/D11{slash}MOSI_*%
X135248715Y-147406196D02*
X135248715Y-145211285D01*
X128500000Y-148500000D02*
X134154911Y-148500000D01*
X135248715Y-145211285D02*
X137000000Y-143460000D01*
X134154911Y-148500000D02*
X135248715Y-147406196D01*
%TO.N,/D4_AUX*%
X116673654Y-134500000D02*
X122000000Y-134500000D01*
X111000000Y-141500000D02*
X111000000Y-140173654D01*
X123500000Y-133000000D02*
X123500000Y-129540000D01*
X122000000Y-134500000D02*
X123500000Y-133000000D01*
X111000000Y-140173654D02*
X116673654Y-134500000D01*
X123500000Y-129540000D02*
X121460000Y-127500000D01*
%TO.N,/D5_AUX*%
X120000000Y-148000000D02*
X121458713Y-146541287D01*
X121458713Y-145103657D02*
X123541237Y-143021133D01*
X115500000Y-149000000D02*
X116500000Y-148000000D01*
X116500000Y-148000000D02*
X120000000Y-148000000D01*
X121458713Y-146541287D02*
X121458713Y-145103657D01*
X123541237Y-141458763D02*
X125000000Y-140000000D01*
X123541237Y-143021133D02*
X123541237Y-141458763D01*
%TD*%
M02*
