%TF.GenerationSoftware,KiCad,Pcbnew,10.0.4*%
%TF.CreationDate,2026-07-07T22:15:54+02:00*%
%TF.ProjectId,Stadion_rychlomer,53746164-696f-46e5-9f72-7963686c6f6d,rev?*%
%TF.SameCoordinates,Original*%
%TF.FileFunction,Copper,L4,Bot*%
%TF.FilePolarity,Positive*%
%FSLAX46Y46*%
G04 Gerber Fmt 4.6, Leading zero omitted, Abs format (unit mm)*
G04 Created by KiCad (PCBNEW 10.0.4) date 2026-07-07 22:15:54*
%MOMM*%
%LPD*%
G01*
G04 APERTURE LIST*
%TA.AperFunction,ComponentPad*%
%ADD10C,1.700000*%
%TD*%
%TA.AperFunction,ComponentPad*%
%ADD11R,1.700000X1.700000*%
%TD*%
%TA.AperFunction,ViaPad*%
%ADD12C,0.600000*%
%TD*%
%TA.AperFunction,Conductor*%
%ADD13C,0.200000*%
%TD*%
G04 APERTURE END LIST*
D10*
%TO.P,,0,Pin_4_4*%
%TO.N,GND*%
X118907959Y-127817481D03*
%TD*%
%TO.P,,0,Pin_3_3*%
%TO.N,+5V*%
X104883274Y-145353628D03*
%TD*%
D11*
%TO.P,J4,1,Pin_1_1*%
%TO.N,/D12{slash}MISO_*%
X133469356Y-140923469D03*
D10*
%TO.P,J4,2,Pin_2_2*%
%TO.N,/D13{slash}SCK_*%
X133469356Y-143463469D03*
%TO.P,J4,3,Pin_3_3*%
%TO.N,/RESET_*%
X133469356Y-146003469D03*
%TD*%
D11*
%TO.P,J5,1,Pin_1_1*%
%TO.N,/D2_SPD*%
X114743561Y-162115070D03*
D10*
%TO.P,J5,2,Pin_2_2*%
%TO.N,+5V*%
X117283561Y-162115070D03*
%TO.P,J5,3,Pin_3_3*%
%TO.N,VBUS*%
X119823561Y-162115070D03*
%TO.P,J5,4,Pin_4_4*%
%TO.N,GND*%
X122363561Y-162115070D03*
%TD*%
D11*
%TO.P,J7,1,Pin_1_1*%
%TO.N,/D3_ENG_RPM*%
X107725000Y-127500000D03*
D10*
%TO.P,J7,2,Pin_2_2*%
%TO.N,GND*%
X110265000Y-127500000D03*
%TD*%
%TO.P,,0,Pin_4_4*%
%TO.N,GND*%
X104753173Y-139629183D03*
%TD*%
D11*
%TO.P,J3,1,Pin_1_1*%
%TO.N,+5V*%
X137000000Y-140920000D03*
D10*
%TO.P,J3,2,Pin_2_2*%
%TO.N,/D11{slash}MOSI_*%
X137000000Y-143460000D03*
%TO.P,J3,3,Pin_3_3*%
%TO.N,GND*%
X137000000Y-146000000D03*
%TD*%
D11*
%TO.P,J6,1,Pin_1_1*%
%TO.N,/D4_AUX*%
X121460000Y-127757222D03*
D10*
%TO.P,J6,2,Pin_2_2*%
%TO.N,/D5_AUX*%
X124000000Y-127757222D03*
%TO.P,J6,3,Pin_3_3*%
%TO.N,/A1_AUX*%
X126540000Y-127757222D03*
%TO.P,J6,4,Pin_4_4*%
%TO.N,/A0_AUX*%
X129080000Y-127757222D03*
%TD*%
D11*
%TO.P,J2,1,Pin_1_1*%
%TO.N,/I2C_SDA*%
X121540000Y-131500000D03*
D10*
%TO.P,J2,2,Pin_2_2*%
%TO.N,/I2C_SCL*%
X119000000Y-131500000D03*
%TO.P,J2,3,Pin_3_3*%
%TO.N,+5V*%
X116460000Y-131500000D03*
%TO.P,J2,4,Pin_4_4*%
%TO.N,GND*%
X113920000Y-131500000D03*
%TD*%
%TO.P,,0,Pin_4_4*%
%TO.N,GND*%
X112088713Y-162154958D03*
%TD*%
%TO.P,,3,Pin_3_3*%
%TO.N,+5V*%
X116368110Y-127803677D03*
%TD*%
D12*
%TO.N,+5V*%
X113050000Y-153500000D03*
%TO.N,GND*%
X127367531Y-141556984D03*
X104675208Y-150121929D03*
X100000000Y-147000000D03*
X112000000Y-143000000D03*
X124867531Y-141556984D03*
X116840735Y-145189265D03*
%TO.N,+5V*%
X124863695Y-136984501D03*
X127373601Y-136966444D03*
X120600000Y-146000000D03*
X107839558Y-160365595D03*
X116000000Y-136500000D03*
X122263505Y-136948387D03*
X129865451Y-136966444D03*
X112667452Y-144629212D03*
%TO.N,/D2_SPD*%
X119426516Y-150481642D03*
%TO.N,/RESET_*%
X116000000Y-139500000D03*
%TO.N,/D12{slash}MISO_*%
X122000000Y-147500000D03*
%TO.N,/D11{slash}MOSI_*%
X128500000Y-148500000D03*
%TO.N,/D4_AUX*%
X111000000Y-141500000D03*
%TO.N,/D5_AUX*%
X115500000Y-149000000D03*
X125000000Y-140000000D03*
%TO.N,/I2C_SDA*%
X117000000Y-140500000D03*
%TO.N,Net-(U1-PD2)*%
X128052904Y-150630817D03*
X115000000Y-141500000D03*
%TD*%
%TO.N,/D2_SPD*%
D13*
X119426516Y-150573484D02*
X119426516Y-150481642D01*
X113920000Y-161980000D02*
X113920000Y-156080000D01*
X113920000Y-156080000D02*
X119426516Y-150573484D01*
%TO.N,/RESET_*%
X123151471Y-147500000D02*
X131960000Y-147500000D01*
X116000000Y-140348529D02*
X123151471Y-147500000D01*
X131960000Y-147500000D02*
X133500000Y-145960000D01*
X116000000Y-139500000D02*
X116000000Y-140348529D01*
%TO.N,/I2C_SDA*%
X121500000Y-131500000D02*
X121540000Y-131500000D01*
X117000000Y-136000000D02*
X121500000Y-131500000D01*
X117000000Y-140500000D02*
X117000000Y-136000000D01*
%TO.N,Net-(U1-PD2)*%
X122099532Y-149225211D02*
X126725211Y-149225211D01*
X115000000Y-141500000D02*
X115000000Y-142125679D01*
X126725211Y-149225211D02*
X128052904Y-150552904D01*
X115000000Y-142125679D02*
X122099532Y-149225211D01*
X128052904Y-150552904D02*
X128052904Y-150630817D01*
%TD*%
M02*
