%TF.GenerationSoftware,KiCad,Pcbnew,10.0.4*%
%TF.CreationDate,2026-07-07T22:15:54+02:00*%
%TF.ProjectId,Stadion_rychlomer,53746164-696f-46e5-9f72-7963686c6f6d,rev?*%
%TF.SameCoordinates,Original*%
%TF.FileFunction,Copper,L2,Inr*%
%TF.FilePolarity,Positive*%
%FSLAX46Y46*%
G04 Gerber Fmt 4.6, Leading zero omitted, Abs format (unit mm)*
G04 Created by KiCad (PCBNEW 10.0.4) date 2026-07-07 22:15:54*
%MOMM*%
%LPD*%
G01*
G04 APERTURE LIST*
%TA.AperFunction,ComponentPad*%
%ADD10C,1.700000*%
%TD*%
%TA.AperFunction,ComponentPad*%
%ADD11R,1.700000X1.700000*%
%TD*%
%TA.AperFunction,ViaPad*%
%ADD12C,0.600000*%
%TD*%
%TA.AperFunction,Conductor*%
%ADD13C,0.200000*%
%TD*%
%TA.AperFunction,Conductor*%
%ADD14C,1.000000*%
%TD*%
G04 APERTURE END LIST*
D10*
%TO.N,GND*%
%TO.C,*%
X118907959Y-127817481D03*
%TD*%
%TO.N,+5V*%
%TO.C,*%
X104883274Y-145353628D03*
%TD*%
D11*
%TO.N,/D12{slash}MISO_*%
%TO.C,J4*%
X133469356Y-140923469D03*
D10*
%TO.N,/D13{slash}SCK_*%
X133469356Y-143463469D03*
%TO.N,/RESET_*%
X133469356Y-146003469D03*
%TD*%
D11*
%TO.N,/D2_SPD*%
%TO.C,J5*%
X114743561Y-162115070D03*
D10*
%TO.N,+5V*%
X117283561Y-162115070D03*
%TO.N,VBUS*%
X119823561Y-162115070D03*
%TO.N,GND*%
X122363561Y-162115070D03*
%TD*%
D11*
%TO.N,/D3_ENG_RPM*%
%TO.C,J7*%
X107725000Y-127500000D03*
D10*
%TO.N,GND*%
X110265000Y-127500000D03*
%TD*%
%TO.N,GND*%
%TO.C,*%
X104753173Y-139629183D03*
%TD*%
D11*
%TO.N,+5V*%
%TO.C,J3*%
X137000000Y-140920000D03*
D10*
%TO.N,/D11{slash}MOSI_*%
X137000000Y-143460000D03*
%TO.N,GND*%
X137000000Y-146000000D03*
%TD*%
D11*
%TO.N,/D4_AUX*%
%TO.C,J6*%
X121460000Y-127757222D03*
D10*
%TO.N,/D5_AUX*%
X124000000Y-127757222D03*
%TO.N,/A1_AUX*%
X126540000Y-127757222D03*
%TO.N,/A0_AUX*%
X129080000Y-127757222D03*
%TD*%
D11*
%TO.N,/I2C_SDA*%
%TO.C,J2*%
X121540000Y-131500000D03*
D10*
%TO.N,/I2C_SCL*%
X119000000Y-131500000D03*
%TO.N,+5V*%
X116460000Y-131500000D03*
%TO.N,GND*%
X113920000Y-131500000D03*
%TD*%
%TO.N,GND*%
%TO.C,*%
X112088713Y-162154958D03*
%TD*%
%TO.N,+5V*%
%TO.C,*%
X116368110Y-127803677D03*
%TD*%
D12*
%TO.N,+5V*%
X113050000Y-153500000D03*
%TO.N,GND*%
X127367531Y-141556984D03*
X104675208Y-150121929D03*
X100000000Y-147000000D03*
X112000000Y-143000000D03*
X124867531Y-141556984D03*
X116840735Y-145189265D03*
%TO.N,+5V*%
X124863695Y-136984501D03*
X127373601Y-136966444D03*
X120600000Y-146000000D03*
X107839558Y-160365595D03*
X116000000Y-136500000D03*
X122263505Y-136948387D03*
X129865451Y-136966444D03*
X112667452Y-144629212D03*
%TO.N,/D2_SPD*%
X119426516Y-150481642D03*
%TO.N,/RESET_*%
X116000000Y-139500000D03*
%TO.N,/D12{slash}MISO_*%
X122000000Y-147500000D03*
%TO.N,/D11{slash}MOSI_*%
X128500000Y-148500000D03*
%TO.N,/D4_AUX*%
X111000000Y-141500000D03*
%TO.N,/D5_AUX*%
X115500000Y-149000000D03*
X125000000Y-140000000D03*
%TO.N,/I2C_SDA*%
X117000000Y-140500000D03*
%TO.N,Net-(U1-PD2)*%
X128052904Y-150630817D03*
X115000000Y-141500000D03*
%TD*%
%TO.N,+5V*%
D13*
X129847394Y-136948387D02*
X129865451Y-136966444D01*
D14*
X122263505Y-136948387D02*
X129847394Y-136948387D01*
%TD*%
%TA.AperFunction,Conductor*%
%TO.N,GND*%
G36*
X119150190Y-122541710D02*
G01*
X119155277Y-122542026D01*
X120035824Y-122614990D01*
X120040838Y-122615509D01*
X120917643Y-122724803D01*
X120922714Y-122725541D01*
X121794209Y-122870968D01*
X121799218Y-122871911D01*
X122663965Y-123053230D01*
X122668932Y-123054379D01*
X123339237Y-123224123D01*
X123525448Y-123271278D01*
X123530391Y-123272639D01*
X124377216Y-123524750D01*
X124382046Y-123526298D01*
X125032794Y-123749700D01*
X125217722Y-123813186D01*
X125222534Y-123814950D01*
X125402718Y-123885258D01*
X126045634Y-124136125D01*
X126050332Y-124138070D01*
X126515767Y-124342229D01*
X126859483Y-124492997D01*
X126864104Y-124495138D01*
X127657931Y-124883217D01*
X127662371Y-124885502D01*
X128439477Y-125306050D01*
X128443921Y-125308576D01*
X129202927Y-125760845D01*
X129207271Y-125763557D01*
X129946982Y-126246834D01*
X129951147Y-126249680D01*
X130670232Y-126763096D01*
X130674340Y-126766160D01*
X131371564Y-127308832D01*
X131375543Y-127312063D01*
X131744423Y-127624488D01*
X132026634Y-127863509D01*
X132049742Y-127883080D01*
X132053584Y-127886472D01*
X132703640Y-128484890D01*
X132707338Y-128488439D01*
X133332068Y-129113169D01*
X133335617Y-129116867D01*
X133934035Y-129766923D01*
X133937427Y-129770765D01*
X134508444Y-130444964D01*
X134511675Y-130448943D01*
X135054347Y-131146167D01*
X135057409Y-131150273D01*
X135570820Y-131869350D01*
X135573680Y-131873536D01*
X135752807Y-132147709D01*
X136056948Y-132613232D01*
X136059662Y-132617580D01*
X136511931Y-133376586D01*
X136514463Y-133381042D01*
X136934995Y-134158118D01*
X136937299Y-134162595D01*
X137119706Y-134535712D01*
X137325355Y-134956374D01*
X137327510Y-134961024D01*
X137682429Y-135770157D01*
X137684390Y-135774892D01*
X138005557Y-136597973D01*
X138007321Y-136602785D01*
X138294201Y-137438436D01*
X138295765Y-137443317D01*
X138547868Y-138290117D01*
X138549229Y-138295059D01*
X138766125Y-139151562D01*
X138767280Y-139156555D01*
X138948593Y-140021275D01*
X138949541Y-140026312D01*
X139094965Y-140897792D01*
X139095704Y-140902864D01*
X139204993Y-141779627D01*
X139205521Y-141784725D01*
X139278479Y-142665211D01*
X139278797Y-142670327D01*
X139315310Y-143553109D01*
X139315416Y-143558233D01*
X139315416Y-144441766D01*
X139315310Y-144446890D01*
X139278797Y-145329672D01*
X139278479Y-145334788D01*
X139205521Y-146215274D01*
X139204993Y-146220372D01*
X139095704Y-147097135D01*
X139094965Y-147102207D01*
X138949541Y-147973687D01*
X138948593Y-147978724D01*
X138767280Y-148843444D01*
X138766125Y-148848437D01*
X138549229Y-149704940D01*
X138547868Y-149709882D01*
X138295765Y-150556682D01*
X138294201Y-150561563D01*
X138007321Y-151397214D01*
X138005557Y-151402026D01*
X137684390Y-152225107D01*
X137682429Y-152229842D01*
X137327510Y-153038975D01*
X137325354Y-153043625D01*
X137064927Y-153576337D01*
X137017800Y-153627920D01*
X136950266Y-153645834D01*
X136883767Y-153624393D01*
X136839417Y-153570404D01*
X136833756Y-153553982D01*
X136802174Y-153436113D01*
X136731917Y-153266498D01*
X136714365Y-153224123D01*
X136714362Y-153224117D01*
X136714360Y-153224112D01*
X136599627Y-153025388D01*
X136599624Y-153025385D01*
X136599623Y-153025382D01*
X136459934Y-152843338D01*
X136459927Y-152843330D01*
X136297686Y-152681089D01*
X136297677Y-152681081D01*
X136115633Y-152541392D01*
X135916906Y-152426657D01*
X135916892Y-152426650D01*
X135704903Y-152338842D01*
X135483254Y-152279452D01*
X135445231Y-152274446D01*
X135255757Y-152249500D01*
X135255750Y-152249500D01*
X135026282Y-152249500D01*
X135026274Y-152249500D01*
X134809731Y-152278009D01*
X134798778Y-152279452D01*
X134705092Y-152304554D01*
X134577128Y-152338842D01*
X134365139Y-152426650D01*
X134365125Y-152426657D01*
X134166398Y-152541392D01*
X133984354Y-152681081D01*
X133822097Y-152843338D01*
X133682408Y-153025382D01*
X133567673Y-153224109D01*
X133567666Y-153224123D01*
X133479858Y-153436112D01*
X133420469Y-153657759D01*
X133420467Y-153657770D01*
X133390516Y-153885258D01*
X133390516Y-154114741D01*
X133410923Y-154269737D01*
X133420468Y-154342238D01*
X133433638Y-154391389D01*
X133479858Y-154563887D01*
X133567666Y-154775876D01*
X133567673Y-154775890D01*
X133682408Y-154974617D01*
X133822097Y-155156661D01*
X133822105Y-155156670D01*
X133984346Y-155318911D01*
X133984354Y-155318918D01*
X134166398Y-155458607D01*
X134166401Y-155458608D01*
X134166404Y-155458611D01*
X134365128Y-155573344D01*
X134365133Y-155573346D01*
X134365139Y-155573349D01*
X134456496Y-155611190D01*
X134577129Y-155661158D01*
X134798778Y-155720548D01*
X135026282Y-155750500D01*
X135026289Y-155750500D01*
X135255743Y-155750500D01*
X135255750Y-155750500D01*
X135483254Y-155720548D01*
X135601034Y-155688989D01*
X135670880Y-155690652D01*
X135728743Y-155729814D01*
X135756247Y-155794043D01*
X135744661Y-155862945D01*
X135736933Y-155876585D01*
X135573688Y-156126451D01*
X135570804Y-156130672D01*
X135431716Y-156325478D01*
X135057411Y-156849724D01*
X135054347Y-156853832D01*
X134511675Y-157551056D01*
X134508444Y-157555035D01*
X133937427Y-158229234D01*
X133934035Y-158233076D01*
X133335617Y-158883132D01*
X133332068Y-158886830D01*
X132707338Y-159511560D01*
X132703640Y-159515109D01*
X132053584Y-160113527D01*
X132049742Y-160116919D01*
X131375543Y-160687936D01*
X131371564Y-160691167D01*
X130674340Y-161233839D01*
X130670232Y-161236903D01*
X130208307Y-161566711D01*
X129951180Y-161750296D01*
X129946960Y-161753180D01*
X129207275Y-162236440D01*
X129202927Y-162239154D01*
X128443921Y-162691423D01*
X128439465Y-162693955D01*
X128027180Y-162917073D01*
X127662409Y-163114477D01*
X127657893Y-163116801D01*
X127236897Y-163322614D01*
X126864133Y-163504847D01*
X126859483Y-163507002D01*
X126050350Y-163861921D01*
X126045615Y-163863882D01*
X125222534Y-164185049D01*
X125217722Y-164186813D01*
X124382071Y-164473693D01*
X124377190Y-164475257D01*
X123530390Y-164727360D01*
X123525448Y-164728721D01*
X122668945Y-164945617D01*
X122663952Y-164946772D01*
X121799232Y-165128085D01*
X121794195Y-165129033D01*
X120922715Y-165274457D01*
X120917643Y-165275196D01*
X120040880Y-165384485D01*
X120035782Y-165385013D01*
X119155296Y-165457971D01*
X119150180Y-165458289D01*
X118267399Y-165494802D01*
X118262275Y-165494908D01*
X117378741Y-165494908D01*
X117373617Y-165494802D01*
X116490835Y-165458289D01*
X116485719Y-165457971D01*
X115605233Y-165385013D01*
X115600135Y-165384485D01*
X114723372Y-165275196D01*
X114718300Y-165274457D01*
X113846820Y-165129033D01*
X113841783Y-165128085D01*
X112977063Y-164946772D01*
X112972070Y-164945617D01*
X112115567Y-164728721D01*
X112110625Y-164727360D01*
X111263825Y-164475257D01*
X111258944Y-164473693D01*
X110423293Y-164186813D01*
X110418481Y-164185049D01*
X109595400Y-163863882D01*
X109590665Y-163861921D01*
X108781532Y-163507002D01*
X108776882Y-163504847D01*
X107983103Y-163116791D01*
X107978626Y-163114487D01*
X107201550Y-162693955D01*
X107197094Y-162691423D01*
X106438088Y-162239154D01*
X106433740Y-162236440D01*
X106297834Y-162147648D01*
X106146399Y-162048711D01*
X110738713Y-162048711D01*
X110738713Y-162261204D01*
X110771955Y-162471085D01*
X110771955Y-162471088D01*
X110837617Y-162673175D01*
X110934088Y-162862508D01*
X110973441Y-162916674D01*
X111605750Y-162284366D01*
X111622788Y-162347951D01*
X111688614Y-162461965D01*
X111781706Y-162555057D01*
X111895720Y-162620883D01*
X111959303Y-162637920D01*
X111326995Y-163270227D01*
X111326995Y-163270228D01*
X111381162Y-163309582D01*
X111570495Y-163406053D01*
X111772583Y-163471715D01*
X111982467Y-163504958D01*
X112194959Y-163504958D01*
X112404840Y-163471715D01*
X112404843Y-163471715D01*
X112606930Y-163406053D01*
X112796267Y-163309580D01*
X112850429Y-163270228D01*
X112850430Y-163270228D01*
X112218121Y-162637920D01*
X112281706Y-162620883D01*
X112395720Y-162555057D01*
X112488812Y-162461965D01*
X112554638Y-162347951D01*
X112571675Y-162284367D01*
X113203983Y-162916675D01*
X113260972Y-162912190D01*
X113261356Y-162917073D01*
X113294894Y-162914048D01*
X113356828Y-162946388D01*
X113391447Y-163007079D01*
X113394081Y-163022428D01*
X113399470Y-163072553D01*
X113449763Y-163207398D01*
X113449767Y-163207405D01*
X113536013Y-163322614D01*
X113536016Y-163322617D01*
X113651225Y-163408863D01*
X113651232Y-163408867D01*
X113786078Y-163459161D01*
X113786077Y-163459161D01*
X113793005Y-163459905D01*
X113845688Y-163465570D01*
X115641433Y-163465569D01*
X115701044Y-163459161D01*
X115835892Y-163408866D01*
X115951107Y-163322616D01*
X116037357Y-163207401D01*
X116086371Y-163075986D01*
X116128242Y-163020054D01*
X116193706Y-162995636D01*
X116261979Y-163010487D01*
X116290234Y-163031639D01*
X116403774Y-163145179D01*
X116575740Y-163270118D01*
X116575742Y-163270119D01*
X116575745Y-163270121D01*
X116765149Y-163366627D01*
X116967318Y-163432316D01*
X117177274Y-163465570D01*
X117177275Y-163465570D01*
X117389847Y-163465570D01*
X117389848Y-163465570D01*
X117599804Y-163432316D01*
X117801973Y-163366627D01*
X117991377Y-163270121D01*
X118077699Y-163207405D01*
X118163347Y-163145179D01*
X118163349Y-163145176D01*
X118163353Y-163145174D01*
X118313665Y-162994862D01*
X118313667Y-162994858D01*
X118313670Y-162994856D01*
X118438609Y-162822890D01*
X118438608Y-162822890D01*
X118438612Y-162822886D01*
X118443075Y-162814124D01*
X118491049Y-162763329D01*
X118558869Y-162746533D01*
X118625005Y-162769069D01*
X118664047Y-162814126D01*
X118668512Y-162822890D01*
X118793451Y-162994856D01*
X118943774Y-163145179D01*
X119115740Y-163270118D01*
X119115742Y-163270119D01*
X119115745Y-163270121D01*
X119305149Y-163366627D01*
X119507318Y-163432316D01*
X119717274Y-163465570D01*
X119717275Y-163465570D01*
X119929847Y-163465570D01*
X119929848Y-163465570D01*
X120139804Y-163432316D01*
X120341973Y-163366627D01*
X120531377Y-163270121D01*
X120617699Y-163207405D01*
X120703347Y-163145179D01*
X120703349Y-163145176D01*
X120703353Y-163145174D01*
X120853665Y-162994862D01*
X120853667Y-162994858D01*
X120853670Y-162994856D01*
X120939451Y-162876787D01*
X120978612Y-162822886D01*
X120983354Y-162813578D01*
X121031324Y-162762781D01*
X121099144Y-162745981D01*
X121165280Y-162768515D01*
X121204324Y-162813570D01*
X121208934Y-162822617D01*
X121248289Y-162876786D01*
X121880598Y-162244478D01*
X121897636Y-162308063D01*
X121963462Y-162422077D01*
X122056554Y-162515169D01*
X122170568Y-162580995D01*
X122234151Y-162598032D01*
X121601843Y-163230339D01*
X121601843Y-163230340D01*
X121656010Y-163269694D01*
X121845343Y-163366165D01*
X122047431Y-163431827D01*
X122257315Y-163465070D01*
X122469807Y-163465070D01*
X122679688Y-163431827D01*
X122679691Y-163431827D01*
X122881778Y-163366165D01*
X123071115Y-163269692D01*
X123125277Y-163230340D01*
X123125278Y-163230340D01*
X122492969Y-162598032D01*
X122556554Y-162580995D01*
X122670568Y-162515169D01*
X122763660Y-162422077D01*
X122829486Y-162308063D01*
X122846523Y-162244479D01*
X123478831Y-162876787D01*
X123478831Y-162876786D01*
X123518183Y-162822624D01*
X123614656Y-162633287D01*
X123680318Y-162431200D01*
X123680318Y-162431197D01*
X123713561Y-162221316D01*
X123713561Y-162008823D01*
X123680318Y-161798942D01*
X123680318Y-161798939D01*
X123614656Y-161596852D01*
X123518185Y-161407519D01*
X123478831Y-161353352D01*
X123478830Y-161353352D01*
X122846523Y-161985660D01*
X122829486Y-161922077D01*
X122763660Y-161808063D01*
X122670568Y-161714971D01*
X122556554Y-161649145D01*
X122492970Y-161632107D01*
X123125277Y-160999798D01*
X123071111Y-160960445D01*
X122881778Y-160863974D01*
X122679690Y-160798312D01*
X122469807Y-160765070D01*
X122257315Y-160765070D01*
X122047433Y-160798312D01*
X122047430Y-160798312D01*
X121845343Y-160863974D01*
X121656000Y-160960450D01*
X121601843Y-160999797D01*
X121601843Y-160999798D01*
X122234152Y-161632107D01*
X122170568Y-161649145D01*
X122056554Y-161714971D01*
X121963462Y-161808063D01*
X121897636Y-161922077D01*
X121880598Y-161985661D01*
X121248289Y-161353352D01*
X121248288Y-161353352D01*
X121208941Y-161407510D01*
X121208937Y-161407516D01*
X121204321Y-161416575D01*
X121156342Y-161467367D01*
X121088520Y-161484157D01*
X121022387Y-161461613D01*
X120983355Y-161416563D01*
X120978612Y-161407254D01*
X120978610Y-161407251D01*
X120978609Y-161407249D01*
X120853670Y-161235283D01*
X120703347Y-161084960D01*
X120531381Y-160960021D01*
X120341975Y-160863514D01*
X120341974Y-160863513D01*
X120341973Y-160863513D01*
X120139804Y-160797824D01*
X120139802Y-160797823D01*
X120139801Y-160797823D01*
X119978518Y-160772278D01*
X119929848Y-160764570D01*
X119717274Y-160764570D01*
X119668603Y-160772278D01*
X119507321Y-160797823D01*
X119305146Y-160863514D01*
X119115740Y-160960021D01*
X118943774Y-161084960D01*
X118793451Y-161235283D01*
X118668510Y-161407252D01*
X118664045Y-161416016D01*
X118616070Y-161466812D01*
X118548249Y-161483606D01*
X118482114Y-161461068D01*
X118443077Y-161416016D01*
X118438611Y-161407252D01*
X118313670Y-161235283D01*
X118163347Y-161084960D01*
X117991381Y-160960021D01*
X117801975Y-160863514D01*
X117801974Y-160863513D01*
X117801973Y-160863513D01*
X117599804Y-160797824D01*
X117599802Y-160797823D01*
X117599801Y-160797823D01*
X117438518Y-160772278D01*
X117389848Y-160764570D01*
X117177274Y-160764570D01*
X117128603Y-160772278D01*
X116967321Y-160797823D01*
X116765146Y-160863514D01*
X116575740Y-160960021D01*
X116403776Y-161084959D01*
X116290234Y-161198501D01*
X116228911Y-161231985D01*
X116159219Y-161227001D01*
X116103286Y-161185129D01*
X116086371Y-161154152D01*
X116037358Y-161022741D01*
X116037354Y-161022734D01*
X115951108Y-160907525D01*
X115951105Y-160907522D01*
X115835896Y-160821276D01*
X115835889Y-160821272D01*
X115701043Y-160770978D01*
X115701044Y-160770978D01*
X115641444Y-160764571D01*
X115641442Y-160764570D01*
X115641434Y-160764570D01*
X115641425Y-160764570D01*
X113845690Y-160764570D01*
X113845684Y-160764571D01*
X113786077Y-160770978D01*
X113651232Y-160821272D01*
X113651225Y-160821276D01*
X113536016Y-160907522D01*
X113536013Y-160907525D01*
X113449767Y-161022734D01*
X113449763Y-161022741D01*
X113399469Y-161157587D01*
X113393062Y-161217186D01*
X113393061Y-161217205D01*
X113393061Y-161273978D01*
X113373376Y-161341017D01*
X113320572Y-161386772D01*
X113259332Y-161397596D01*
X113203983Y-161393240D01*
X112571675Y-162025548D01*
X112554638Y-161961965D01*
X112488812Y-161847951D01*
X112395720Y-161754859D01*
X112281706Y-161689033D01*
X112218122Y-161671995D01*
X112850429Y-161039686D01*
X112796263Y-161000333D01*
X112606930Y-160903862D01*
X112404842Y-160838200D01*
X112194959Y-160804958D01*
X111982467Y-160804958D01*
X111772585Y-160838200D01*
X111772582Y-160838200D01*
X111570495Y-160903862D01*
X111381152Y-161000338D01*
X111326995Y-161039685D01*
X111326995Y-161039686D01*
X111959304Y-161671995D01*
X111895720Y-161689033D01*
X111781706Y-161754859D01*
X111688614Y-161847951D01*
X111622788Y-161961965D01*
X111605750Y-162025549D01*
X110973441Y-161393240D01*
X110973440Y-161393240D01*
X110934093Y-161447397D01*
X110837617Y-161636740D01*
X110771955Y-161838827D01*
X110771955Y-161838830D01*
X110738713Y-162048711D01*
X106146399Y-162048711D01*
X105839113Y-161847951D01*
X105694044Y-161753172D01*
X105689858Y-161750312D01*
X104970781Y-161236901D01*
X104966675Y-161233839D01*
X104269451Y-160691167D01*
X104265472Y-160687936D01*
X103896323Y-160375283D01*
X103791790Y-160286748D01*
X107039058Y-160286748D01*
X107039058Y-160444441D01*
X107069819Y-160599084D01*
X107069822Y-160599096D01*
X107130160Y-160744767D01*
X107130167Y-160744780D01*
X107217768Y-160875883D01*
X107217771Y-160875887D01*
X107329265Y-160987381D01*
X107329269Y-160987384D01*
X107460372Y-161074985D01*
X107460385Y-161074992D01*
X107606056Y-161135330D01*
X107606061Y-161135332D01*
X107717944Y-161157587D01*
X107760711Y-161166094D01*
X107760714Y-161166095D01*
X107760716Y-161166095D01*
X107918402Y-161166095D01*
X107918403Y-161166094D01*
X108073055Y-161135332D01*
X108218737Y-161074989D01*
X108349847Y-160987384D01*
X108461347Y-160875884D01*
X108548952Y-160744774D01*
X108609295Y-160599092D01*
X108640058Y-160444437D01*
X108640058Y-160286753D01*
X108640058Y-160286750D01*
X108640057Y-160286748D01*
X108609295Y-160132098D01*
X108601603Y-160113527D01*
X108548955Y-159986422D01*
X108548948Y-159986409D01*
X108461347Y-159855306D01*
X108461344Y-159855302D01*
X108349850Y-159743808D01*
X108349846Y-159743805D01*
X108218743Y-159656204D01*
X108218730Y-159656197D01*
X108073059Y-159595859D01*
X108073047Y-159595856D01*
X107918403Y-159565095D01*
X107918400Y-159565095D01*
X107760716Y-159565095D01*
X107760713Y-159565095D01*
X107606068Y-159595856D01*
X107606056Y-159595859D01*
X107460385Y-159656197D01*
X107460372Y-159656204D01*
X107329269Y-159743805D01*
X107329265Y-159743808D01*
X107217771Y-159855302D01*
X107217768Y-159855306D01*
X107130167Y-159986409D01*
X107130160Y-159986422D01*
X107069822Y-160132093D01*
X107069819Y-160132105D01*
X107039058Y-160286748D01*
X103791790Y-160286748D01*
X103591273Y-160116919D01*
X103587431Y-160113527D01*
X103449351Y-159986416D01*
X102937375Y-159515109D01*
X102933677Y-159511560D01*
X102308947Y-158886830D01*
X102305398Y-158883132D01*
X101706980Y-158233076D01*
X101703588Y-158229234D01*
X101132571Y-157555035D01*
X101129340Y-157551056D01*
X100586668Y-156853832D01*
X100583604Y-156849724D01*
X100565678Y-156824617D01*
X100070188Y-156130639D01*
X100067327Y-156126451D01*
X99904082Y-155876585D01*
X99883895Y-155809696D01*
X99903075Y-155742510D01*
X99955533Y-155696360D01*
X100024615Y-155685897D01*
X100039971Y-155688986D01*
X100157762Y-155720548D01*
X100385266Y-155750500D01*
X100385273Y-155750500D01*
X100614727Y-155750500D01*
X100614734Y-155750500D01*
X100730506Y-155735258D01*
X104420008Y-155735258D01*
X104420008Y-155964741D01*
X104441299Y-156126451D01*
X104449960Y-156192238D01*
X104485661Y-156325478D01*
X104509350Y-156413887D01*
X104597158Y-156625876D01*
X104597165Y-156625890D01*
X104711900Y-156824617D01*
X104851589Y-157006661D01*
X104851597Y-157006670D01*
X105013838Y-157168911D01*
X105013846Y-157168918D01*
X105195890Y-157308607D01*
X105195893Y-157308608D01*
X105195896Y-157308611D01*
X105394620Y-157423344D01*
X105394625Y-157423346D01*
X105394631Y-157423349D01*
X105466341Y-157453052D01*
X105606621Y-157511158D01*
X105828270Y-157570548D01*
X106055774Y-157600500D01*
X106055781Y-157600500D01*
X106285235Y-157600500D01*
X106285242Y-157600500D01*
X106512746Y-157570548D01*
X106734395Y-157511158D01*
X106946396Y-157423344D01*
X107145120Y-157308611D01*
X107327169Y-157168919D01*
X107327173Y-157168914D01*
X107327178Y-157168911D01*
X107489419Y-157006670D01*
X107489422Y-157006665D01*
X107489427Y-157006661D01*
X107629119Y-156824612D01*
X107743852Y-156625888D01*
X107831666Y-156413887D01*
X107891056Y-156192238D01*
X107921008Y-155964734D01*
X107921008Y-155735266D01*
X107921007Y-155735258D01*
X127720008Y-155735258D01*
X127720008Y-155964741D01*
X127741299Y-156126451D01*
X127749960Y-156192238D01*
X127785661Y-156325478D01*
X127809350Y-156413887D01*
X127897158Y-156625876D01*
X127897165Y-156625890D01*
X128011900Y-156824617D01*
X128151589Y-157006661D01*
X128151597Y-157006670D01*
X128313838Y-157168911D01*
X128313846Y-157168918D01*
X128495890Y-157308607D01*
X128495893Y-157308608D01*
X128495896Y-157308611D01*
X128694620Y-157423344D01*
X128694625Y-157423346D01*
X128694631Y-157423349D01*
X128766341Y-157453052D01*
X128906621Y-157511158D01*
X129128270Y-157570548D01*
X129355774Y-157600500D01*
X129355781Y-157600500D01*
X129585235Y-157600500D01*
X129585242Y-157600500D01*
X129812746Y-157570548D01*
X130034395Y-157511158D01*
X130246396Y-157423344D01*
X130445120Y-157308611D01*
X130627169Y-157168919D01*
X130627173Y-157168914D01*
X130627178Y-157168911D01*
X130789419Y-157006670D01*
X130789422Y-157006665D01*
X130789427Y-157006661D01*
X130929119Y-156824612D01*
X131043852Y-156625888D01*
X131131666Y-156413887D01*
X131191056Y-156192238D01*
X131221008Y-155964734D01*
X131221008Y-155735266D01*
X131191056Y-155507762D01*
X131131666Y-155286113D01*
X131062077Y-155118111D01*
X131043857Y-155074123D01*
X131043854Y-155074117D01*
X131043852Y-155074112D01*
X130929119Y-154875388D01*
X130929116Y-154875385D01*
X130929115Y-154875382D01*
X130789426Y-154693338D01*
X130789419Y-154693330D01*
X130627178Y-154531089D01*
X130627169Y-154531081D01*
X130445125Y-154391392D01*
X130246398Y-154276657D01*
X130246384Y-154276650D01*
X130034395Y-154188842D01*
X129812746Y-154129452D01*
X129774723Y-154124446D01*
X129585249Y-154099500D01*
X129585242Y-154099500D01*
X129355774Y-154099500D01*
X129355766Y-154099500D01*
X129139223Y-154128009D01*
X129128270Y-154129452D01*
X129034584Y-154154554D01*
X128906620Y-154188842D01*
X128694631Y-154276650D01*
X128694617Y-154276657D01*
X128495890Y-154391392D01*
X128313846Y-154531081D01*
X128151589Y-154693338D01*
X128011900Y-154875382D01*
X127897165Y-155074109D01*
X127897158Y-155074123D01*
X127809350Y-155286112D01*
X127749961Y-155507759D01*
X127749959Y-155507770D01*
X127720008Y-155735258D01*
X107921007Y-155735258D01*
X107891056Y-155507762D01*
X107831666Y-155286113D01*
X107762077Y-155118111D01*
X107743857Y-155074123D01*
X107743854Y-155074117D01*
X107743852Y-155074112D01*
X107629119Y-154875388D01*
X107629116Y-154875385D01*
X107629115Y-154875382D01*
X107489426Y-154693338D01*
X107489419Y-154693330D01*
X107327178Y-154531089D01*
X107327169Y-154531081D01*
X107145125Y-154391392D01*
X106946398Y-154276657D01*
X106946384Y-154276650D01*
X106734395Y-154188842D01*
X106512746Y-154129452D01*
X106474723Y-154124446D01*
X106285249Y-154099500D01*
X106285242Y-154099500D01*
X106055774Y-154099500D01*
X106055766Y-154099500D01*
X105839223Y-154128009D01*
X105828270Y-154129452D01*
X105734584Y-154154554D01*
X105606620Y-154188842D01*
X105394631Y-154276650D01*
X105394617Y-154276657D01*
X105195890Y-154391392D01*
X105013846Y-154531081D01*
X104851589Y-154693338D01*
X104711900Y-154875382D01*
X104597165Y-155074109D01*
X104597158Y-155074123D01*
X104509350Y-155286112D01*
X104449961Y-155507759D01*
X104449959Y-155507770D01*
X104420008Y-155735258D01*
X100730506Y-155735258D01*
X100842238Y-155720548D01*
X101063887Y-155661158D01*
X101275888Y-155573344D01*
X101474612Y-155458611D01*
X101656661Y-155318919D01*
X101656665Y-155318914D01*
X101656670Y-155318911D01*
X101818911Y-155156670D01*
X101818914Y-155156665D01*
X101818919Y-155156661D01*
X101958611Y-154974612D01*
X102073344Y-154775888D01*
X102161158Y-154563887D01*
X102220548Y-154342238D01*
X102250500Y-154114734D01*
X102250500Y-153885266D01*
X102220548Y-153657762D01*
X102161158Y-153436113D01*
X102154961Y-153421153D01*
X112249500Y-153421153D01*
X112249500Y-153578846D01*
X112280261Y-153733489D01*
X112280264Y-153733501D01*
X112340602Y-153879172D01*
X112340609Y-153879185D01*
X112428210Y-154010288D01*
X112428213Y-154010292D01*
X112539707Y-154121786D01*
X112539711Y-154121789D01*
X112670814Y-154209390D01*
X112670827Y-154209397D01*
X112816498Y-154269735D01*
X112816503Y-154269737D01*
X112968634Y-154299998D01*
X112971153Y-154300499D01*
X112971156Y-154300500D01*
X112971158Y-154300500D01*
X113128844Y-154300500D01*
X113128845Y-154300499D01*
X113283497Y-154269737D01*
X113429179Y-154209394D01*
X113560289Y-154121789D01*
X113671789Y-154010289D01*
X113759394Y-153879179D01*
X113819737Y-153733497D01*
X113850500Y-153578842D01*
X113850500Y-153421158D01*
X113850500Y-153421155D01*
X113850499Y-153421153D01*
X113850395Y-153420629D01*
X113819737Y-153266503D01*
X113802177Y-153224109D01*
X113759397Y-153120827D01*
X113759390Y-153120814D01*
X113671789Y-152989711D01*
X113671786Y-152989707D01*
X113560292Y-152878213D01*
X113560288Y-152878210D01*
X113429185Y-152790609D01*
X113429172Y-152790602D01*
X113283501Y-152730264D01*
X113283489Y-152730261D01*
X113128845Y-152699500D01*
X113128842Y-152699500D01*
X112971158Y-152699500D01*
X112971155Y-152699500D01*
X112816510Y-152730261D01*
X112816498Y-152730264D01*
X112670827Y-152790602D01*
X112670814Y-152790609D01*
X112539711Y-152878210D01*
X112539707Y-152878213D01*
X112428213Y-152989707D01*
X112428210Y-152989711D01*
X112340609Y-153120814D01*
X112340602Y-153120827D01*
X112280264Y-153266498D01*
X112280261Y-153266510D01*
X112249500Y-153421153D01*
X102154961Y-153421153D01*
X102073344Y-153224112D01*
X101958611Y-153025388D01*
X101958608Y-153025385D01*
X101958607Y-153025382D01*
X101818918Y-152843338D01*
X101818911Y-152843330D01*
X101656670Y-152681089D01*
X101656661Y-152681081D01*
X101474617Y-152541392D01*
X101275890Y-152426657D01*
X101275876Y-152426650D01*
X101063887Y-152338842D01*
X100842238Y-152279452D01*
X100804215Y-152274446D01*
X100614741Y-152249500D01*
X100614734Y-152249500D01*
X100385266Y-152249500D01*
X100385258Y-152249500D01*
X100168715Y-152278009D01*
X100157762Y-152279452D01*
X100064076Y-152304554D01*
X99936112Y-152338842D01*
X99724123Y-152426650D01*
X99724109Y-152426657D01*
X99525382Y-152541392D01*
X99343338Y-152681081D01*
X99181081Y-152843338D01*
X99041392Y-153025382D01*
X98926657Y-153224109D01*
X98926650Y-153224123D01*
X98838842Y-153436112D01*
X98807263Y-153553970D01*
X98770898Y-153613631D01*
X98708051Y-153644160D01*
X98638676Y-153635865D01*
X98584798Y-153591380D01*
X98576088Y-153576337D01*
X98315661Y-153043625D01*
X98313505Y-153038975D01*
X98164597Y-152699500D01*
X97958578Y-152229824D01*
X97956625Y-152225107D01*
X97635458Y-151402026D01*
X97633694Y-151397214D01*
X97545772Y-151141106D01*
X97346806Y-150561538D01*
X97345258Y-150556708D01*
X97299436Y-150402795D01*
X118626016Y-150402795D01*
X118626016Y-150560488D01*
X118656777Y-150715131D01*
X118656780Y-150715143D01*
X118717118Y-150860814D01*
X118717125Y-150860827D01*
X118804726Y-150991930D01*
X118804729Y-150991934D01*
X118916223Y-151103428D01*
X118916227Y-151103431D01*
X119047330Y-151191032D01*
X119047343Y-151191039D01*
X119193014Y-151251377D01*
X119193019Y-151251379D01*
X119347669Y-151282141D01*
X119347672Y-151282142D01*
X119347674Y-151282142D01*
X119505360Y-151282142D01*
X119505361Y-151282141D01*
X119660013Y-151251379D01*
X119805695Y-151191036D01*
X119936805Y-151103431D01*
X120048305Y-150991931D01*
X120135910Y-150860821D01*
X120196253Y-150715139D01*
X120227016Y-150560484D01*
X120227016Y-150551970D01*
X127252404Y-150551970D01*
X127252404Y-150709663D01*
X127283165Y-150864306D01*
X127283168Y-150864318D01*
X127343506Y-151009989D01*
X127343513Y-151010002D01*
X127431114Y-151141105D01*
X127431117Y-151141109D01*
X127542611Y-151252603D01*
X127542615Y-151252606D01*
X127673718Y-151340207D01*
X127673731Y-151340214D01*
X127819402Y-151400552D01*
X127819407Y-151400554D01*
X127974057Y-151431316D01*
X127974060Y-151431317D01*
X127974062Y-151431317D01*
X128131748Y-151431317D01*
X128131749Y-151431316D01*
X128286401Y-151400554D01*
X128432083Y-151340211D01*
X128563193Y-151252606D01*
X128674693Y-151141106D01*
X128762298Y-151009996D01*
X128769780Y-150991934D01*
X128822639Y-150864318D01*
X128822641Y-150864314D01*
X128853404Y-150709659D01*
X128853404Y-150551975D01*
X128853404Y-150551972D01*
X128853403Y-150551970D01*
X128822642Y-150397327D01*
X128822641Y-150397320D01*
X128822639Y-150397315D01*
X128762301Y-150251644D01*
X128762294Y-150251631D01*
X128674693Y-150120528D01*
X128674690Y-150120524D01*
X128563196Y-150009030D01*
X128563192Y-150009027D01*
X128432089Y-149921426D01*
X128432076Y-149921419D01*
X128286405Y-149861081D01*
X128286393Y-149861078D01*
X128131749Y-149830317D01*
X128131746Y-149830317D01*
X127974062Y-149830317D01*
X127974059Y-149830317D01*
X127819414Y-149861078D01*
X127819402Y-149861081D01*
X127673731Y-149921419D01*
X127673718Y-149921426D01*
X127542615Y-150009027D01*
X127542611Y-150009030D01*
X127431117Y-150120524D01*
X127431114Y-150120528D01*
X127343513Y-150251631D01*
X127343506Y-150251644D01*
X127283168Y-150397315D01*
X127283165Y-150397327D01*
X127252404Y-150551970D01*
X120227016Y-150551970D01*
X120227016Y-150402800D01*
X120227016Y-150402797D01*
X120227015Y-150402795D01*
X120196949Y-150251644D01*
X120196253Y-150248145D01*
X120143393Y-150120528D01*
X120135913Y-150102469D01*
X120135906Y-150102456D01*
X120048305Y-149971353D01*
X120048302Y-149971349D01*
X119936808Y-149859855D01*
X119936804Y-149859852D01*
X119805701Y-149772251D01*
X119805688Y-149772244D01*
X119660017Y-149711906D01*
X119660005Y-149711903D01*
X119505361Y-149681142D01*
X119505358Y-149681142D01*
X119347674Y-149681142D01*
X119347671Y-149681142D01*
X119193026Y-149711903D01*
X119193014Y-149711906D01*
X119047343Y-149772244D01*
X119047330Y-149772251D01*
X118916227Y-149859852D01*
X118916223Y-149859855D01*
X118804729Y-149971349D01*
X118804726Y-149971353D01*
X118717125Y-150102456D01*
X118717118Y-150102469D01*
X118656780Y-150248140D01*
X118656777Y-150248152D01*
X118626016Y-150402795D01*
X97299436Y-150402795D01*
X97093147Y-149709882D01*
X97091786Y-149704940D01*
X96981577Y-149269735D01*
X96893304Y-148921153D01*
X114699500Y-148921153D01*
X114699500Y-149078846D01*
X114730261Y-149233489D01*
X114730264Y-149233501D01*
X114790602Y-149379172D01*
X114790609Y-149379185D01*
X114878210Y-149510288D01*
X114878213Y-149510292D01*
X114989707Y-149621786D01*
X114989711Y-149621789D01*
X115120814Y-149709390D01*
X115120827Y-149709397D01*
X115266498Y-149769735D01*
X115266503Y-149769737D01*
X115421153Y-149800499D01*
X115421156Y-149800500D01*
X115421158Y-149800500D01*
X115578844Y-149800500D01*
X115578845Y-149800499D01*
X115733497Y-149769737D01*
X115846166Y-149723067D01*
X115879172Y-149709397D01*
X115879172Y-149709396D01*
X115879179Y-149709394D01*
X116010289Y-149621789D01*
X116121789Y-149510289D01*
X116209394Y-149379179D01*
X116269737Y-149233497D01*
X116300500Y-149078842D01*
X116300500Y-148921158D01*
X116300500Y-148921155D01*
X116300499Y-148921153D01*
X116285541Y-148845956D01*
X116269737Y-148766503D01*
X116256062Y-148733489D01*
X116209397Y-148620827D01*
X116209390Y-148620814D01*
X116121789Y-148489711D01*
X116121786Y-148489707D01*
X116053232Y-148421153D01*
X127699500Y-148421153D01*
X127699500Y-148578846D01*
X127730261Y-148733489D01*
X127730264Y-148733501D01*
X127790602Y-148879172D01*
X127790609Y-148879185D01*
X127878210Y-149010288D01*
X127878213Y-149010292D01*
X127989707Y-149121786D01*
X127989711Y-149121789D01*
X128120814Y-149209390D01*
X128120827Y-149209397D01*
X128266498Y-149269735D01*
X128266503Y-149269737D01*
X128421153Y-149300499D01*
X128421156Y-149300500D01*
X128421158Y-149300500D01*
X128578844Y-149300500D01*
X128578845Y-149300499D01*
X128733497Y-149269737D01*
X128879179Y-149209394D01*
X129010289Y-149121789D01*
X129121789Y-149010289D01*
X129209394Y-148879179D01*
X129269737Y-148733497D01*
X129300500Y-148578842D01*
X129300500Y-148421158D01*
X129300500Y-148421155D01*
X129300499Y-148421153D01*
X129274531Y-148290606D01*
X129269737Y-148266503D01*
X129269735Y-148266498D01*
X129209397Y-148120827D01*
X129209390Y-148120814D01*
X129121789Y-147989711D01*
X129121786Y-147989707D01*
X129010292Y-147878213D01*
X129010288Y-147878210D01*
X128879185Y-147790609D01*
X128879172Y-147790602D01*
X128733501Y-147730264D01*
X128733489Y-147730261D01*
X128578845Y-147699500D01*
X128578842Y-147699500D01*
X128421158Y-147699500D01*
X128421155Y-147699500D01*
X128266510Y-147730261D01*
X128266498Y-147730264D01*
X128120827Y-147790602D01*
X128120814Y-147790609D01*
X127989711Y-147878210D01*
X127989707Y-147878213D01*
X127878213Y-147989707D01*
X127878210Y-147989711D01*
X127790609Y-148120814D01*
X127790602Y-148120827D01*
X127730264Y-148266498D01*
X127730261Y-148266510D01*
X127699500Y-148421153D01*
X116053232Y-148421153D01*
X116010292Y-148378213D01*
X116010288Y-148378210D01*
X115879185Y-148290609D01*
X115879172Y-148290602D01*
X115733501Y-148230264D01*
X115733489Y-148230261D01*
X115578845Y-148199500D01*
X115578842Y-148199500D01*
X115421158Y-148199500D01*
X115421155Y-148199500D01*
X115266510Y-148230261D01*
X115266498Y-148230264D01*
X115120827Y-148290602D01*
X115120814Y-148290609D01*
X114989711Y-148378210D01*
X114989707Y-148378213D01*
X114878213Y-148489707D01*
X114878210Y-148489711D01*
X114790609Y-148620814D01*
X114790602Y-148620827D01*
X114730264Y-148766498D01*
X114730261Y-148766510D01*
X114699500Y-148921153D01*
X96893304Y-148921153D01*
X96874887Y-148848424D01*
X96873735Y-148843444D01*
X96857601Y-148766498D01*
X96692419Y-147978710D01*
X96691474Y-147973687D01*
X96675704Y-147879185D01*
X96599272Y-147421153D01*
X121199500Y-147421153D01*
X121199500Y-147578846D01*
X121230261Y-147733489D01*
X121230264Y-147733501D01*
X121290602Y-147879172D01*
X121290609Y-147879185D01*
X121378210Y-148010288D01*
X121378213Y-148010292D01*
X121489707Y-148121786D01*
X121489711Y-148121789D01*
X121620814Y-148209390D01*
X121620827Y-148209397D01*
X121758683Y-148266498D01*
X121766503Y-148269737D01*
X121921153Y-148300499D01*
X121921156Y-148300500D01*
X121921158Y-148300500D01*
X122078844Y-148300500D01*
X122078845Y-148300499D01*
X122089179Y-148298443D01*
X122114287Y-148293450D01*
X122114292Y-148293449D01*
X122199800Y-148276439D01*
X122233497Y-148269737D01*
X122379179Y-148209394D01*
X122510289Y-148121789D01*
X122621789Y-148010289D01*
X122709394Y-147879179D01*
X122769737Y-147733497D01*
X122800500Y-147578842D01*
X122800500Y-147421158D01*
X122800500Y-147421155D01*
X122800499Y-147421153D01*
X122786346Y-147350000D01*
X122769737Y-147266503D01*
X122763355Y-147251095D01*
X122709397Y-147120827D01*
X122709390Y-147120814D01*
X122621789Y-146989711D01*
X122621786Y-146989707D01*
X122510292Y-146878213D01*
X122510288Y-146878210D01*
X122379185Y-146790609D01*
X122379172Y-146790602D01*
X122233501Y-146730264D01*
X122233489Y-146730261D01*
X122078845Y-146699500D01*
X122078842Y-146699500D01*
X121921158Y-146699500D01*
X121921155Y-146699500D01*
X121766510Y-146730261D01*
X121766498Y-146730264D01*
X121620827Y-146790602D01*
X121620814Y-146790609D01*
X121489711Y-146878210D01*
X121489707Y-146878213D01*
X121378213Y-146989707D01*
X121378210Y-146989711D01*
X121290609Y-147120814D01*
X121290602Y-147120827D01*
X121230264Y-147266498D01*
X121230261Y-147266510D01*
X121199500Y-147421153D01*
X96599272Y-147421153D01*
X96587399Y-147350000D01*
X96546050Y-147102207D01*
X96545311Y-147097135D01*
X96530751Y-146980330D01*
X96436017Y-146220330D01*
X96435498Y-146215316D01*
X96362534Y-145334769D01*
X96362218Y-145329673D01*
X96360811Y-145295648D01*
X96358813Y-145247341D01*
X103532774Y-145247341D01*
X103532774Y-145459915D01*
X103566028Y-145669871D01*
X103610586Y-145807007D01*
X103631718Y-145872042D01*
X103728225Y-146061448D01*
X103853164Y-146233414D01*
X104003487Y-146383737D01*
X104175453Y-146508676D01*
X104175455Y-146508677D01*
X104175458Y-146508679D01*
X104364862Y-146605185D01*
X104567031Y-146670874D01*
X104776987Y-146704128D01*
X104776988Y-146704128D01*
X104989560Y-146704128D01*
X104989561Y-146704128D01*
X105199517Y-146670874D01*
X105401686Y-146605185D01*
X105591090Y-146508679D01*
X105740539Y-146400099D01*
X105763060Y-146383737D01*
X105763062Y-146383734D01*
X105763066Y-146383732D01*
X105913378Y-146233420D01*
X105913380Y-146233416D01*
X105913383Y-146233414D01*
X106038322Y-146061448D01*
X106038321Y-146061448D01*
X106038325Y-146061444D01*
X106109807Y-145921153D01*
X119799500Y-145921153D01*
X119799500Y-146078846D01*
X119830261Y-146233489D01*
X119830264Y-146233501D01*
X119890602Y-146379172D01*
X119890609Y-146379185D01*
X119978210Y-146510288D01*
X119978213Y-146510292D01*
X120089707Y-146621786D01*
X120089711Y-146621789D01*
X120220814Y-146709390D01*
X120220827Y-146709397D01*
X120347138Y-146761716D01*
X120366503Y-146769737D01*
X120521153Y-146800499D01*
X120521156Y-146800500D01*
X120521158Y-146800500D01*
X120678844Y-146800500D01*
X120678845Y-146800499D01*
X120833497Y-146769737D01*
X120979179Y-146709394D01*
X121110289Y-146621789D01*
X121221789Y-146510289D01*
X121309394Y-146379179D01*
X121369737Y-146233497D01*
X121400500Y-146078842D01*
X121400500Y-145921158D01*
X121400500Y-145921155D01*
X121400499Y-145921153D01*
X121369738Y-145766510D01*
X121369737Y-145766503D01*
X121369735Y-145766498D01*
X121309397Y-145620827D01*
X121309390Y-145620814D01*
X121221789Y-145489711D01*
X121221786Y-145489707D01*
X121110292Y-145378213D01*
X121110288Y-145378210D01*
X120979185Y-145290609D01*
X120979172Y-145290602D01*
X120833501Y-145230264D01*
X120833489Y-145230261D01*
X120678845Y-145199500D01*
X120678842Y-145199500D01*
X120521158Y-145199500D01*
X120521155Y-145199500D01*
X120366510Y-145230261D01*
X120366498Y-145230264D01*
X120220827Y-145290602D01*
X120220814Y-145290609D01*
X120089711Y-145378210D01*
X120089707Y-145378213D01*
X119978213Y-145489707D01*
X119978210Y-145489711D01*
X119890609Y-145620814D01*
X119890602Y-145620827D01*
X119830264Y-145766498D01*
X119830261Y-145766510D01*
X119799500Y-145921153D01*
X106109807Y-145921153D01*
X106134831Y-145872040D01*
X106200520Y-145669871D01*
X106233774Y-145459915D01*
X106233774Y-145247341D01*
X106200520Y-145037385D01*
X106134831Y-144835216D01*
X106038325Y-144645812D01*
X106035382Y-144641762D01*
X106017511Y-144617163D01*
X105968980Y-144550365D01*
X111866952Y-144550365D01*
X111866952Y-144708058D01*
X111897713Y-144862701D01*
X111897716Y-144862713D01*
X111958054Y-145008384D01*
X111958061Y-145008397D01*
X112045662Y-145139500D01*
X112045665Y-145139504D01*
X112157159Y-145250998D01*
X112157163Y-145251001D01*
X112288266Y-145338602D01*
X112288279Y-145338609D01*
X112383893Y-145378213D01*
X112433955Y-145398949D01*
X112588605Y-145429711D01*
X112588608Y-145429712D01*
X112588610Y-145429712D01*
X112746296Y-145429712D01*
X112746297Y-145429711D01*
X112900949Y-145398949D01*
X113046631Y-145338606D01*
X113177741Y-145251001D01*
X113289241Y-145139501D01*
X113376846Y-145008391D01*
X113437189Y-144862709D01*
X113467952Y-144708054D01*
X113467952Y-144550370D01*
X113467952Y-144550367D01*
X113467951Y-144550365D01*
X113452728Y-144473836D01*
X113437189Y-144395715D01*
X113407287Y-144323524D01*
X113376849Y-144250039D01*
X113376842Y-144250026D01*
X113289241Y-144118923D01*
X113289238Y-144118919D01*
X113177744Y-144007425D01*
X113177740Y-144007422D01*
X113046637Y-143919821D01*
X113046624Y-143919814D01*
X112900953Y-143859476D01*
X112900941Y-143859473D01*
X112746297Y-143828712D01*
X112746294Y-143828712D01*
X112588610Y-143828712D01*
X112588607Y-143828712D01*
X112433962Y-143859473D01*
X112433950Y-143859476D01*
X112288279Y-143919814D01*
X112288266Y-143919821D01*
X112157163Y-144007422D01*
X112157159Y-144007425D01*
X112045665Y-144118919D01*
X112045662Y-144118923D01*
X111958061Y-144250026D01*
X111958054Y-144250039D01*
X111897716Y-144395710D01*
X111897713Y-144395722D01*
X111866952Y-144550365D01*
X105968980Y-144550365D01*
X105913383Y-144473841D01*
X105763060Y-144323518D01*
X105591094Y-144198579D01*
X105401688Y-144102072D01*
X105401687Y-144102071D01*
X105401686Y-144102071D01*
X105199517Y-144036382D01*
X105199515Y-144036381D01*
X105199514Y-144036381D01*
X105016672Y-144007422D01*
X104989561Y-144003128D01*
X104776987Y-144003128D01*
X104749876Y-144007422D01*
X104567034Y-144036381D01*
X104364859Y-144102072D01*
X104175453Y-144198579D01*
X104003487Y-144323518D01*
X103853164Y-144473841D01*
X103728225Y-144645807D01*
X103631718Y-144835213D01*
X103566027Y-145037388D01*
X103549854Y-145139500D01*
X103532774Y-145247341D01*
X96358813Y-145247341D01*
X96325706Y-144446890D01*
X96325600Y-144441766D01*
X96325600Y-143558233D01*
X96325706Y-143553109D01*
X96342493Y-143147229D01*
X96362219Y-142670305D01*
X96362536Y-142665211D01*
X96367488Y-142605450D01*
X96435498Y-141784678D01*
X96436017Y-141779673D01*
X96480706Y-141421153D01*
X110199500Y-141421153D01*
X110199500Y-141578846D01*
X110230261Y-141733489D01*
X110230264Y-141733501D01*
X110290602Y-141879172D01*
X110290609Y-141879185D01*
X110378210Y-142010288D01*
X110378213Y-142010292D01*
X110489707Y-142121786D01*
X110489711Y-142121789D01*
X110620814Y-142209390D01*
X110620827Y-142209397D01*
X110761247Y-142267560D01*
X110766503Y-142269737D01*
X110921153Y-142300499D01*
X110921156Y-142300500D01*
X110921158Y-142300500D01*
X111078844Y-142300500D01*
X111078845Y-142300499D01*
X111233497Y-142269737D01*
X111379179Y-142209394D01*
X111510289Y-142121789D01*
X111621789Y-142010289D01*
X111709394Y-141879179D01*
X111769737Y-141733497D01*
X111800500Y-141578842D01*
X111800500Y-141421158D01*
X111800500Y-141421155D01*
X111800499Y-141421153D01*
X114199500Y-141421153D01*
X114199500Y-141578846D01*
X114230261Y-141733489D01*
X114230264Y-141733501D01*
X114290602Y-141879172D01*
X114290609Y-141879185D01*
X114378210Y-142010288D01*
X114378213Y-142010292D01*
X114489707Y-142121786D01*
X114489711Y-142121789D01*
X114620814Y-142209390D01*
X114620827Y-142209397D01*
X114761247Y-142267560D01*
X114766503Y-142269737D01*
X114921153Y-142300499D01*
X114921156Y-142300500D01*
X114921158Y-142300500D01*
X115078844Y-142300500D01*
X115078845Y-142300499D01*
X115233497Y-142269737D01*
X115379179Y-142209394D01*
X115510289Y-142121789D01*
X115621789Y-142010289D01*
X115709394Y-141879179D01*
X115769737Y-141733497D01*
X115800500Y-141578842D01*
X115800500Y-141421158D01*
X115800500Y-141421155D01*
X115800499Y-141421153D01*
X115769738Y-141266510D01*
X115769737Y-141266503D01*
X115709794Y-141121786D01*
X115709397Y-141120827D01*
X115709390Y-141120814D01*
X115621789Y-140989711D01*
X115621786Y-140989707D01*
X115510292Y-140878213D01*
X115510288Y-140878210D01*
X115379185Y-140790609D01*
X115379172Y-140790602D01*
X115233501Y-140730264D01*
X115233489Y-140730261D01*
X115078845Y-140699500D01*
X115078842Y-140699500D01*
X114921158Y-140699500D01*
X114921155Y-140699500D01*
X114766510Y-140730261D01*
X114766498Y-140730264D01*
X114620827Y-140790602D01*
X114620814Y-140790609D01*
X114489711Y-140878210D01*
X114489707Y-140878213D01*
X114378213Y-140989707D01*
X114378210Y-140989711D01*
X114290609Y-141120814D01*
X114290602Y-141120827D01*
X114230264Y-141266498D01*
X114230261Y-141266510D01*
X114199500Y-141421153D01*
X111800499Y-141421153D01*
X111769738Y-141266510D01*
X111769737Y-141266503D01*
X111709794Y-141121786D01*
X111709397Y-141120827D01*
X111709390Y-141120814D01*
X111621789Y-140989711D01*
X111621786Y-140989707D01*
X111510292Y-140878213D01*
X111510288Y-140878210D01*
X111379185Y-140790609D01*
X111379172Y-140790602D01*
X111233501Y-140730264D01*
X111233489Y-140730261D01*
X111078845Y-140699500D01*
X111078842Y-140699500D01*
X110921158Y-140699500D01*
X110921155Y-140699500D01*
X110766510Y-140730261D01*
X110766498Y-140730264D01*
X110620827Y-140790602D01*
X110620814Y-140790609D01*
X110489711Y-140878210D01*
X110489707Y-140878213D01*
X110378213Y-140989707D01*
X110378210Y-140989711D01*
X110290609Y-141120814D01*
X110290602Y-141120827D01*
X110230264Y-141266498D01*
X110230261Y-141266510D01*
X110199500Y-141421153D01*
X96480706Y-141421153D01*
X96545311Y-140902857D01*
X96546050Y-140897792D01*
X96562286Y-140800499D01*
X96691478Y-140026289D01*
X96692417Y-140021298D01*
X96796913Y-139522936D01*
X103403173Y-139522936D01*
X103403173Y-139735429D01*
X103436415Y-139945310D01*
X103436415Y-139945313D01*
X103502077Y-140147400D01*
X103598548Y-140336733D01*
X103637901Y-140390899D01*
X104270210Y-139758591D01*
X104287248Y-139822176D01*
X104353074Y-139936190D01*
X104446166Y-140029282D01*
X104560180Y-140095108D01*
X104623763Y-140112145D01*
X103991455Y-140744452D01*
X103991455Y-140744453D01*
X104045622Y-140783807D01*
X104234955Y-140880278D01*
X104437043Y-140945940D01*
X104646927Y-140979183D01*
X104859419Y-140979183D01*
X105069300Y-140945940D01*
X105069303Y-140945940D01*
X105271390Y-140880278D01*
X105460727Y-140783805D01*
X105514889Y-140744453D01*
X105514890Y-140744453D01*
X104882581Y-140112145D01*
X104946166Y-140095108D01*
X105060180Y-140029282D01*
X105153272Y-139936190D01*
X105219098Y-139822176D01*
X105236135Y-139758592D01*
X105868443Y-140390900D01*
X105868443Y-140390899D01*
X105907795Y-140336737D01*
X106004268Y-140147400D01*
X106069930Y-139945313D01*
X106069930Y-139945310D01*
X106103173Y-139735429D01*
X106103173Y-139522937D01*
X106089160Y-139434464D01*
X106087052Y-139421153D01*
X115199500Y-139421153D01*
X115199500Y-139578846D01*
X115230261Y-139733489D01*
X115230264Y-139733501D01*
X115290602Y-139879172D01*
X115290609Y-139879185D01*
X115378210Y-140010288D01*
X115378213Y-140010292D01*
X115489707Y-140121786D01*
X115489711Y-140121789D01*
X115620814Y-140209390D01*
X115620827Y-140209397D01*
X115758683Y-140266498D01*
X115766503Y-140269737D01*
X115921153Y-140300499D01*
X115921156Y-140300500D01*
X116075500Y-140300500D01*
X116142539Y-140320185D01*
X116188294Y-140372989D01*
X116199500Y-140424500D01*
X116199500Y-140578846D01*
X116230261Y-140733489D01*
X116230264Y-140733501D01*
X116290602Y-140879172D01*
X116290609Y-140879185D01*
X116378210Y-141010288D01*
X116378213Y-141010292D01*
X116489707Y-141121786D01*
X116489711Y-141121789D01*
X116620814Y-141209390D01*
X116620827Y-141209397D01*
X116758683Y-141266498D01*
X116766503Y-141269737D01*
X116921153Y-141300499D01*
X116921156Y-141300500D01*
X116921158Y-141300500D01*
X117078844Y-141300500D01*
X117078845Y-141300499D01*
X117233497Y-141269737D01*
X117379179Y-141209394D01*
X117510289Y-141121789D01*
X117621789Y-141010289D01*
X117709394Y-140879179D01*
X117769737Y-140733497D01*
X117800500Y-140578842D01*
X117800500Y-140421158D01*
X117800500Y-140421155D01*
X117800499Y-140421153D01*
X117792148Y-140379172D01*
X117769737Y-140266503D01*
X117746080Y-140209390D01*
X117709397Y-140120827D01*
X117709390Y-140120814D01*
X117621790Y-139989712D01*
X117621784Y-139989705D01*
X117553232Y-139921153D01*
X124199500Y-139921153D01*
X124199500Y-140078846D01*
X124230261Y-140233489D01*
X124230264Y-140233501D01*
X124290602Y-140379172D01*
X124290609Y-140379185D01*
X124378210Y-140510288D01*
X124378213Y-140510292D01*
X124489707Y-140621786D01*
X124489711Y-140621789D01*
X124620814Y-140709390D01*
X124620827Y-140709397D01*
X124731675Y-140755311D01*
X124766503Y-140769737D01*
X124921153Y-140800499D01*
X124921156Y-140800500D01*
X124921158Y-140800500D01*
X125078844Y-140800500D01*
X125078845Y-140800499D01*
X125233497Y-140769737D01*
X125379179Y-140709394D01*
X125510289Y-140621789D01*
X125621789Y-140510289D01*
X125709394Y-140379179D01*
X125769737Y-140233497D01*
X125800500Y-140078842D01*
X125800500Y-140025604D01*
X132118856Y-140025604D01*
X132118856Y-141821339D01*
X132118857Y-141821345D01*
X132125264Y-141880952D01*
X132175558Y-142015797D01*
X132175562Y-142015804D01*
X132261808Y-142131013D01*
X132261811Y-142131016D01*
X132377020Y-142217262D01*
X132377027Y-142217266D01*
X132508438Y-142266279D01*
X132564372Y-142308150D01*
X132588789Y-142373614D01*
X132573938Y-142441887D01*
X132552787Y-142470142D01*
X132439245Y-142583684D01*
X132314307Y-142755648D01*
X132217800Y-142945054D01*
X132152109Y-143147229D01*
X132118856Y-143357182D01*
X132118856Y-143569755D01*
X132151560Y-143776243D01*
X132152110Y-143779712D01*
X132216672Y-143978414D01*
X132217800Y-143981883D01*
X132314307Y-144171289D01*
X132439246Y-144343255D01*
X132589569Y-144493578D01*
X132761538Y-144618519D01*
X132770302Y-144622985D01*
X132821098Y-144670960D01*
X132837892Y-144738781D01*
X132815354Y-144804916D01*
X132770302Y-144843953D01*
X132761538Y-144848418D01*
X132589569Y-144973359D01*
X132439246Y-145123682D01*
X132314307Y-145295648D01*
X132217800Y-145485054D01*
X132152109Y-145687229D01*
X132118856Y-145897182D01*
X132118856Y-146109755D01*
X132151542Y-146316130D01*
X132152110Y-146319712D01*
X132216608Y-146518217D01*
X132217800Y-146521883D01*
X132314307Y-146711289D01*
X132439246Y-146883255D01*
X132589569Y-147033578D01*
X132761535Y-147158517D01*
X132761537Y-147158518D01*
X132761540Y-147158520D01*
X132950944Y-147255026D01*
X133153113Y-147320715D01*
X133363069Y-147353969D01*
X133363070Y-147353969D01*
X133575642Y-147353969D01*
X133575643Y-147353969D01*
X133785599Y-147320715D01*
X133987768Y-147255026D01*
X134177172Y-147158520D01*
X134199145Y-147142555D01*
X134349142Y-147033578D01*
X134349144Y-147033575D01*
X134349148Y-147033573D01*
X134499460Y-146883261D01*
X134499462Y-146883257D01*
X134499465Y-146883255D01*
X134624404Y-146711289D01*
X134624403Y-146711289D01*
X134624407Y-146711285D01*
X134720913Y-146521881D01*
X134786602Y-146319712D01*
X134819856Y-146109756D01*
X134819856Y-145897182D01*
X134786602Y-145687226D01*
X134720913Y-145485057D01*
X134624407Y-145295653D01*
X134624405Y-145295650D01*
X134624404Y-145295648D01*
X134499465Y-145123682D01*
X134349142Y-144973359D01*
X134177176Y-144848420D01*
X134176471Y-144848060D01*
X134168410Y-144843954D01*
X134117615Y-144795981D01*
X134100819Y-144728161D01*
X134123355Y-144662025D01*
X134168410Y-144622984D01*
X134177172Y-144618520D01*
X134199145Y-144602555D01*
X134349142Y-144493578D01*
X134349144Y-144493575D01*
X134349148Y-144493573D01*
X134499460Y-144343261D01*
X134499462Y-144343257D01*
X134499465Y-144343255D01*
X134624404Y-144171289D01*
X134624403Y-144171289D01*
X134624407Y-144171285D01*
X134720913Y-143981881D01*
X134786602Y-143779712D01*
X134819856Y-143569756D01*
X134819856Y-143357182D01*
X134786602Y-143147226D01*
X134720913Y-142945057D01*
X134624407Y-142755653D01*
X134624405Y-142755650D01*
X134624404Y-142755648D01*
X134499465Y-142583682D01*
X134385925Y-142470142D01*
X134352440Y-142408819D01*
X134357424Y-142339127D01*
X134399296Y-142283194D01*
X134430271Y-142266279D01*
X134561687Y-142217265D01*
X134676902Y-142131015D01*
X134763152Y-142015800D01*
X134813447Y-141880952D01*
X134819856Y-141821342D01*
X134819855Y-140025597D01*
X134819660Y-140023786D01*
X134819483Y-140022135D01*
X135649500Y-140022135D01*
X135649500Y-141817870D01*
X135649501Y-141817876D01*
X135655908Y-141877483D01*
X135706202Y-142012328D01*
X135706206Y-142012335D01*
X135792452Y-142127544D01*
X135792455Y-142127547D01*
X135907664Y-142213793D01*
X135907671Y-142213797D01*
X136039082Y-142262810D01*
X136095016Y-142304681D01*
X136119433Y-142370145D01*
X136104582Y-142438418D01*
X136083431Y-142466673D01*
X135969889Y-142580215D01*
X135844951Y-142752179D01*
X135748444Y-142941585D01*
X135682753Y-143143760D01*
X135682204Y-143147229D01*
X135649500Y-143353713D01*
X135649500Y-143566287D01*
X135682754Y-143776243D01*
X135729403Y-143919814D01*
X135748444Y-143978414D01*
X135844951Y-144167820D01*
X135969890Y-144339786D01*
X136120213Y-144490109D01*
X136292179Y-144615048D01*
X136292181Y-144615049D01*
X136292184Y-144615051D01*
X136301493Y-144619794D01*
X136352290Y-144667766D01*
X136369087Y-144735587D01*
X136346552Y-144801722D01*
X136301505Y-144840760D01*
X136292446Y-144845376D01*
X136292440Y-144845380D01*
X136238282Y-144884727D01*
X136238282Y-144884728D01*
X136870591Y-145517037D01*
X136807007Y-145534075D01*
X136692993Y-145599901D01*
X136599901Y-145692993D01*
X136534075Y-145807007D01*
X136517037Y-145870590D01*
X135884728Y-145238282D01*
X135884727Y-145238282D01*
X135845380Y-145292439D01*
X135748904Y-145481782D01*
X135683242Y-145683869D01*
X135683242Y-145683872D01*
X135650000Y-145893753D01*
X135650000Y-146106246D01*
X135683242Y-146316127D01*
X135683242Y-146316130D01*
X135748904Y-146518217D01*
X135845375Y-146707550D01*
X135884728Y-146761716D01*
X136517037Y-146129408D01*
X136534075Y-146192993D01*
X136599901Y-146307007D01*
X136692993Y-146400099D01*
X136807007Y-146465925D01*
X136870590Y-146482962D01*
X136238282Y-147115269D01*
X136238282Y-147115270D01*
X136292449Y-147154624D01*
X136481782Y-147251095D01*
X136683870Y-147316757D01*
X136893754Y-147350000D01*
X137106246Y-147350000D01*
X137316127Y-147316757D01*
X137316130Y-147316757D01*
X137518217Y-147251095D01*
X137707554Y-147154622D01*
X137761716Y-147115270D01*
X137761717Y-147115270D01*
X137129408Y-146482962D01*
X137192993Y-146465925D01*
X137307007Y-146400099D01*
X137400099Y-146307007D01*
X137465925Y-146192993D01*
X137482962Y-146129408D01*
X138115270Y-146761717D01*
X138115270Y-146761716D01*
X138154622Y-146707554D01*
X138251095Y-146518217D01*
X138316757Y-146316130D01*
X138316757Y-146316127D01*
X138350000Y-146106246D01*
X138350000Y-145893753D01*
X138316757Y-145683872D01*
X138316757Y-145683869D01*
X138251095Y-145481782D01*
X138154624Y-145292449D01*
X138115270Y-145238282D01*
X138115269Y-145238282D01*
X137482962Y-145870590D01*
X137465925Y-145807007D01*
X137400099Y-145692993D01*
X137307007Y-145599901D01*
X137192993Y-145534075D01*
X137129409Y-145517037D01*
X137761716Y-144884728D01*
X137707547Y-144845373D01*
X137707547Y-144845372D01*
X137698500Y-144840763D01*
X137647706Y-144792788D01*
X137630912Y-144724966D01*
X137653451Y-144658832D01*
X137698508Y-144619793D01*
X137707816Y-144615051D01*
X137796849Y-144550365D01*
X137879786Y-144490109D01*
X137879788Y-144490106D01*
X137879792Y-144490104D01*
X138030104Y-144339792D01*
X138030106Y-144339788D01*
X138030109Y-144339786D01*
X138155048Y-144167820D01*
X138155047Y-144167820D01*
X138155051Y-144167816D01*
X138251557Y-143978412D01*
X138317246Y-143776243D01*
X138350500Y-143566287D01*
X138350500Y-143353713D01*
X138317246Y-143143757D01*
X138251557Y-142941588D01*
X138155051Y-142752184D01*
X138155049Y-142752181D01*
X138155048Y-142752179D01*
X138030109Y-142580213D01*
X137916569Y-142466673D01*
X137883084Y-142405350D01*
X137888068Y-142335658D01*
X137929940Y-142279725D01*
X137960915Y-142262810D01*
X138092331Y-142213796D01*
X138207546Y-142127546D01*
X138293796Y-142012331D01*
X138344091Y-141877483D01*
X138350500Y-141817873D01*
X138350499Y-140022128D01*
X138344091Y-139962517D01*
X138337674Y-139945313D01*
X138293797Y-139827671D01*
X138293793Y-139827664D01*
X138207547Y-139712455D01*
X138207544Y-139712452D01*
X138092335Y-139626206D01*
X138092328Y-139626202D01*
X137957482Y-139575908D01*
X137957483Y-139575908D01*
X137897883Y-139569501D01*
X137897881Y-139569500D01*
X137897873Y-139569500D01*
X137897864Y-139569500D01*
X136102129Y-139569500D01*
X136102123Y-139569501D01*
X136042516Y-139575908D01*
X135907671Y-139626202D01*
X135907664Y-139626206D01*
X135792455Y-139712452D01*
X135792452Y-139712455D01*
X135706206Y-139827664D01*
X135706202Y-139827671D01*
X135655908Y-139962517D01*
X135649501Y-140022116D01*
X135649501Y-140022123D01*
X135649500Y-140022135D01*
X134819483Y-140022135D01*
X134813447Y-139965985D01*
X134763153Y-139831140D01*
X134763149Y-139831133D01*
X134676903Y-139715924D01*
X134676900Y-139715921D01*
X134561691Y-139629675D01*
X134561684Y-139629671D01*
X134426838Y-139579377D01*
X134426839Y-139579377D01*
X134367239Y-139572970D01*
X134367237Y-139572969D01*
X134367229Y-139572969D01*
X134367220Y-139572969D01*
X132571485Y-139572969D01*
X132571479Y-139572970D01*
X132511872Y-139579377D01*
X132377027Y-139629671D01*
X132377020Y-139629675D01*
X132261811Y-139715921D01*
X132261808Y-139715924D01*
X132175562Y-139831133D01*
X132175558Y-139831140D01*
X132125264Y-139965986D01*
X132118857Y-140025585D01*
X132118856Y-140025604D01*
X125800500Y-140025604D01*
X125800500Y-139921158D01*
X125800500Y-139921155D01*
X125800499Y-139921153D01*
X125791957Y-139878210D01*
X125769737Y-139766503D01*
X125756062Y-139733489D01*
X125709397Y-139620827D01*
X125709390Y-139620814D01*
X125621789Y-139489711D01*
X125621786Y-139489707D01*
X125510292Y-139378213D01*
X125510288Y-139378210D01*
X125379185Y-139290609D01*
X125379172Y-139290602D01*
X125233501Y-139230264D01*
X125233489Y-139230261D01*
X125078845Y-139199500D01*
X125078842Y-139199500D01*
X124921158Y-139199500D01*
X124921155Y-139199500D01*
X124766510Y-139230261D01*
X124766498Y-139230264D01*
X124620827Y-139290602D01*
X124620814Y-139290609D01*
X124489711Y-139378210D01*
X124489707Y-139378213D01*
X124378213Y-139489707D01*
X124378210Y-139489711D01*
X124290609Y-139620814D01*
X124290602Y-139620827D01*
X124230264Y-139766498D01*
X124230261Y-139766510D01*
X124199500Y-139921153D01*
X117553232Y-139921153D01*
X117510292Y-139878213D01*
X117510288Y-139878210D01*
X117379185Y-139790609D01*
X117379172Y-139790602D01*
X117233501Y-139730264D01*
X117233489Y-139730261D01*
X117078845Y-139699500D01*
X117078842Y-139699500D01*
X116924500Y-139699500D01*
X116857461Y-139679815D01*
X116811706Y-139627011D01*
X116800500Y-139575500D01*
X116800500Y-139421155D01*
X116800499Y-139421153D01*
X116774531Y-139290606D01*
X116769737Y-139266503D01*
X116769735Y-139266498D01*
X116709397Y-139120827D01*
X116709390Y-139120814D01*
X116621789Y-138989711D01*
X116621786Y-138989707D01*
X116510292Y-138878213D01*
X116510288Y-138878210D01*
X116379185Y-138790609D01*
X116379172Y-138790602D01*
X116233501Y-138730264D01*
X116233489Y-138730261D01*
X116078845Y-138699500D01*
X116078842Y-138699500D01*
X115921158Y-138699500D01*
X115921155Y-138699500D01*
X115766510Y-138730261D01*
X115766498Y-138730264D01*
X115620827Y-138790602D01*
X115620814Y-138790609D01*
X115489711Y-138878210D01*
X115489707Y-138878213D01*
X115378213Y-138989707D01*
X115378210Y-138989711D01*
X115290609Y-139120814D01*
X115290602Y-139120827D01*
X115230264Y-139266498D01*
X115230261Y-139266510D01*
X115199500Y-139421153D01*
X106087052Y-139421153D01*
X106069930Y-139313055D01*
X106069930Y-139313052D01*
X106004268Y-139110965D01*
X105907797Y-138921632D01*
X105868443Y-138867465D01*
X105868442Y-138867465D01*
X105236135Y-139499773D01*
X105219098Y-139436190D01*
X105153272Y-139322176D01*
X105060180Y-139229084D01*
X104946166Y-139163258D01*
X104882582Y-139146220D01*
X105514889Y-138513911D01*
X105460723Y-138474558D01*
X105271390Y-138378087D01*
X105069302Y-138312425D01*
X104859419Y-138279183D01*
X104646927Y-138279183D01*
X104437045Y-138312425D01*
X104437042Y-138312425D01*
X104234955Y-138378087D01*
X104045612Y-138474563D01*
X103991455Y-138513910D01*
X103991455Y-138513911D01*
X104623764Y-139146220D01*
X104560180Y-139163258D01*
X104446166Y-139229084D01*
X104353074Y-139322176D01*
X104287248Y-139436190D01*
X104270210Y-139499774D01*
X103637901Y-138867465D01*
X103637900Y-138867465D01*
X103598553Y-138921622D01*
X103502077Y-139110965D01*
X103436415Y-139313052D01*
X103436415Y-139313055D01*
X103403173Y-139522936D01*
X96796913Y-139522936D01*
X96873740Y-139156531D01*
X96874884Y-139151586D01*
X97091788Y-138295048D01*
X97093147Y-138290117D01*
X97171906Y-138025571D01*
X97345262Y-137443277D01*
X97346801Y-137438475D01*
X97633696Y-136602777D01*
X97635458Y-136597973D01*
X97642922Y-136578846D01*
X97704454Y-136421153D01*
X115199500Y-136421153D01*
X115199500Y-136578846D01*
X115230261Y-136733489D01*
X115230264Y-136733501D01*
X115290602Y-136879172D01*
X115290609Y-136879185D01*
X115378210Y-137010288D01*
X115378213Y-137010292D01*
X115489707Y-137121786D01*
X115489711Y-137121789D01*
X115620814Y-137209390D01*
X115620827Y-137209397D01*
X115766498Y-137269735D01*
X115766503Y-137269737D01*
X115921153Y-137300499D01*
X115921156Y-137300500D01*
X115921158Y-137300500D01*
X116078844Y-137300500D01*
X116078845Y-137300499D01*
X116233497Y-137269737D01*
X116379179Y-137209394D01*
X116510289Y-137121789D01*
X116585148Y-137046930D01*
X121263004Y-137046930D01*
X121301452Y-137240216D01*
X121301455Y-137240226D01*
X121376869Y-137422294D01*
X121376876Y-137422307D01*
X121486365Y-137586168D01*
X121486368Y-137586172D01*
X121625719Y-137725523D01*
X121625723Y-137725526D01*
X121789584Y-137835015D01*
X121789597Y-137835022D01*
X121971665Y-137910436D01*
X121971670Y-137910438D01*
X121971674Y-137910438D01*
X121971675Y-137910439D01*
X122164961Y-137948887D01*
X122164964Y-137948887D01*
X129945937Y-137948887D01*
X130075976Y-137923019D01*
X130139229Y-137910438D01*
X130321308Y-137835019D01*
X130485176Y-137725526D01*
X130624533Y-137586169D01*
X130734026Y-137422301D01*
X130809445Y-137240222D01*
X130847894Y-137046928D01*
X130847894Y-136849846D01*
X130847894Y-136849843D01*
X130809446Y-136656557D01*
X130809445Y-136656556D01*
X130809445Y-136656552D01*
X130785181Y-136597973D01*
X130734029Y-136474479D01*
X130734022Y-136474466D01*
X130624533Y-136310605D01*
X130624530Y-136310601D01*
X130485179Y-136171250D01*
X130485175Y-136171247D01*
X130321314Y-136061758D01*
X130321301Y-136061751D01*
X130139233Y-135986337D01*
X130139223Y-135986334D01*
X129945937Y-135947887D01*
X129945935Y-135947887D01*
X122164964Y-135947887D01*
X122164962Y-135947887D01*
X121971675Y-135986334D01*
X121971665Y-135986337D01*
X121789597Y-136061751D01*
X121789584Y-136061758D01*
X121625723Y-136171247D01*
X121625719Y-136171250D01*
X121486368Y-136310601D01*
X121486365Y-136310605D01*
X121376876Y-136474466D01*
X121376869Y-136474479D01*
X121301455Y-136656547D01*
X121301452Y-136656557D01*
X121263005Y-136849843D01*
X121263005Y-136849846D01*
X121263005Y-137046928D01*
X121263005Y-137046930D01*
X121263004Y-137046930D01*
X116585148Y-137046930D01*
X116621789Y-137010289D01*
X116709394Y-136879179D01*
X116721544Y-136849846D01*
X116743723Y-136796302D01*
X116769735Y-136733501D01*
X116769737Y-136733497D01*
X116800500Y-136578842D01*
X116800500Y-136421158D01*
X116800500Y-136421155D01*
X116800499Y-136421153D01*
X116778509Y-136310605D01*
X116769737Y-136266503D01*
X116764635Y-136254186D01*
X116709397Y-136120827D01*
X116709390Y-136120814D01*
X116621789Y-135989711D01*
X116621786Y-135989707D01*
X116510292Y-135878213D01*
X116510288Y-135878210D01*
X116379185Y-135790609D01*
X116379172Y-135790602D01*
X116233501Y-135730264D01*
X116233489Y-135730261D01*
X116078845Y-135699500D01*
X116078842Y-135699500D01*
X115921158Y-135699500D01*
X115921155Y-135699500D01*
X115766510Y-135730261D01*
X115766498Y-135730264D01*
X115620827Y-135790602D01*
X115620814Y-135790609D01*
X115489711Y-135878210D01*
X115489707Y-135878213D01*
X115378213Y-135989707D01*
X115378210Y-135989711D01*
X115290609Y-136120814D01*
X115290602Y-136120827D01*
X115230264Y-136266498D01*
X115230261Y-136266510D01*
X115199500Y-136421153D01*
X97704454Y-136421153D01*
X97956639Y-135774856D01*
X97958571Y-135770191D01*
X98313508Y-134961015D01*
X98315637Y-134956422D01*
X98703735Y-134162556D01*
X98706000Y-134158155D01*
X99126570Y-133381009D01*
X99129084Y-133376586D01*
X99170745Y-133306670D01*
X99581368Y-132617555D01*
X99584051Y-132613257D01*
X99961677Y-132035258D01*
X104420008Y-132035258D01*
X104420008Y-132264741D01*
X104439998Y-132416569D01*
X104449960Y-132492238D01*
X104483545Y-132617580D01*
X104509350Y-132713887D01*
X104597158Y-132925876D01*
X104597165Y-132925890D01*
X104711900Y-133124617D01*
X104851589Y-133306661D01*
X104851597Y-133306670D01*
X105013838Y-133468911D01*
X105013846Y-133468918D01*
X105195890Y-133608607D01*
X105195893Y-133608608D01*
X105195896Y-133608611D01*
X105394620Y-133723344D01*
X105394625Y-133723346D01*
X105394631Y-133723349D01*
X105485988Y-133761190D01*
X105606621Y-133811158D01*
X105828270Y-133870548D01*
X106055774Y-133900500D01*
X106055781Y-133900500D01*
X106285235Y-133900500D01*
X106285242Y-133900500D01*
X106512746Y-133870548D01*
X106734395Y-133811158D01*
X106946396Y-133723344D01*
X107145120Y-133608611D01*
X107327169Y-133468919D01*
X107327173Y-133468914D01*
X107327178Y-133468911D01*
X107489419Y-133306670D01*
X107489422Y-133306665D01*
X107489427Y-133306661D01*
X107629119Y-133124612D01*
X107743852Y-132925888D01*
X107831666Y-132713887D01*
X107891056Y-132492238D01*
X107921008Y-132264734D01*
X107921008Y-132035266D01*
X107891056Y-131807762D01*
X107831666Y-131586113D01*
X107751988Y-131393753D01*
X112570000Y-131393753D01*
X112570000Y-131606246D01*
X112603242Y-131816127D01*
X112603242Y-131816130D01*
X112668904Y-132018217D01*
X112765375Y-132207550D01*
X112804728Y-132261716D01*
X113437037Y-131629408D01*
X113454075Y-131692993D01*
X113519901Y-131807007D01*
X113612993Y-131900099D01*
X113727007Y-131965925D01*
X113790590Y-131982962D01*
X113158282Y-132615269D01*
X113158282Y-132615270D01*
X113212449Y-132654624D01*
X113401782Y-132751095D01*
X113603870Y-132816757D01*
X113813754Y-132850000D01*
X114026246Y-132850000D01*
X114236127Y-132816757D01*
X114236130Y-132816757D01*
X114438217Y-132751095D01*
X114627554Y-132654622D01*
X114681716Y-132615270D01*
X114681717Y-132615270D01*
X114049408Y-131982962D01*
X114112993Y-131965925D01*
X114227007Y-131900099D01*
X114320099Y-131807007D01*
X114385925Y-131692993D01*
X114402962Y-131629408D01*
X115035270Y-132261717D01*
X115035270Y-132261716D01*
X115074622Y-132207555D01*
X115079232Y-132198507D01*
X115127205Y-132147709D01*
X115195025Y-132130912D01*
X115261161Y-132153447D01*
X115300204Y-132198504D01*
X115304949Y-132207817D01*
X115429890Y-132379786D01*
X115580213Y-132530109D01*
X115752179Y-132655048D01*
X115752181Y-132655049D01*
X115752184Y-132655051D01*
X115941588Y-132751557D01*
X116143757Y-132817246D01*
X116353713Y-132850500D01*
X116353714Y-132850500D01*
X116566286Y-132850500D01*
X116566287Y-132850500D01*
X116776243Y-132817246D01*
X116978412Y-132751557D01*
X117167816Y-132655051D01*
X117219391Y-132617580D01*
X117339786Y-132530109D01*
X117339788Y-132530106D01*
X117339792Y-132530104D01*
X117490104Y-132379792D01*
X117490106Y-132379788D01*
X117490109Y-132379786D01*
X117615048Y-132207820D01*
X117615050Y-132207817D01*
X117615051Y-132207816D01*
X117619514Y-132199054D01*
X117667488Y-132148259D01*
X117735308Y-132131463D01*
X117801444Y-132153999D01*
X117840486Y-132199056D01*
X117844951Y-132207820D01*
X117969890Y-132379786D01*
X118120213Y-132530109D01*
X118292179Y-132655048D01*
X118292181Y-132655049D01*
X118292184Y-132655051D01*
X118481588Y-132751557D01*
X118683757Y-132817246D01*
X118893713Y-132850500D01*
X118893714Y-132850500D01*
X119106286Y-132850500D01*
X119106287Y-132850500D01*
X119316243Y-132817246D01*
X119518412Y-132751557D01*
X119707816Y-132655051D01*
X119879792Y-132530104D01*
X119993329Y-132416566D01*
X120054648Y-132383084D01*
X120124340Y-132388068D01*
X120180274Y-132429939D01*
X120197189Y-132460917D01*
X120246202Y-132592328D01*
X120246206Y-132592335D01*
X120332452Y-132707544D01*
X120332455Y-132707547D01*
X120447664Y-132793793D01*
X120447671Y-132793797D01*
X120582517Y-132844091D01*
X120582516Y-132844091D01*
X120589444Y-132844835D01*
X120642127Y-132850500D01*
X122437872Y-132850499D01*
X122497483Y-132844091D01*
X122632331Y-132793796D01*
X122747546Y-132707546D01*
X122833796Y-132592331D01*
X122884091Y-132457483D01*
X122890500Y-132397873D01*
X122890500Y-132035258D01*
X127720008Y-132035258D01*
X127720008Y-132264741D01*
X127739998Y-132416569D01*
X127749960Y-132492238D01*
X127783545Y-132617580D01*
X127809350Y-132713887D01*
X127897158Y-132925876D01*
X127897165Y-132925890D01*
X128011900Y-133124617D01*
X128151589Y-133306661D01*
X128151597Y-133306670D01*
X128313838Y-133468911D01*
X128313846Y-133468918D01*
X128495890Y-133608607D01*
X128495893Y-133608608D01*
X128495896Y-133608611D01*
X128694620Y-133723344D01*
X128694625Y-133723346D01*
X128694631Y-133723349D01*
X128785988Y-133761190D01*
X128906621Y-133811158D01*
X129128270Y-133870548D01*
X129355774Y-133900500D01*
X129355781Y-133900500D01*
X129585235Y-133900500D01*
X129585242Y-133900500D01*
X129812746Y-133870548D01*
X130034395Y-133811158D01*
X130246396Y-133723344D01*
X130445120Y-133608611D01*
X130627169Y-133468919D01*
X130627173Y-133468914D01*
X130627178Y-133468911D01*
X130789419Y-133306670D01*
X130789422Y-133306665D01*
X130789427Y-133306661D01*
X130929119Y-133124612D01*
X131043852Y-132925888D01*
X131131666Y-132713887D01*
X131191056Y-132492238D01*
X131221008Y-132264734D01*
X131221008Y-132035266D01*
X131191056Y-131807762D01*
X131131666Y-131586113D01*
X131069625Y-131436334D01*
X131043857Y-131374123D01*
X131043854Y-131374117D01*
X131043852Y-131374112D01*
X130929119Y-131175388D01*
X130929116Y-131175385D01*
X130929115Y-131175382D01*
X130789426Y-130993338D01*
X130789419Y-130993330D01*
X130627178Y-130831089D01*
X130627169Y-130831081D01*
X130445125Y-130691392D01*
X130246398Y-130576657D01*
X130246384Y-130576650D01*
X130034395Y-130488842D01*
X129812746Y-130429452D01*
X129774723Y-130424446D01*
X129585249Y-130399500D01*
X129585242Y-130399500D01*
X129355774Y-130399500D01*
X129355766Y-130399500D01*
X129139223Y-130428009D01*
X129128270Y-130429452D01*
X129070378Y-130444964D01*
X128906620Y-130488842D01*
X128694631Y-130576650D01*
X128694617Y-130576657D01*
X128495890Y-130691392D01*
X128313846Y-130831081D01*
X128151589Y-130993338D01*
X128011900Y-131175382D01*
X127897165Y-131374109D01*
X127897158Y-131374123D01*
X127809350Y-131586112D01*
X127749961Y-131807759D01*
X127749959Y-131807770D01*
X127720008Y-132035258D01*
X122890500Y-132035258D01*
X122890499Y-131500000D01*
X122890499Y-130602129D01*
X122890498Y-130602123D01*
X122884091Y-130542516D01*
X122833797Y-130407671D01*
X122833793Y-130407664D01*
X122747547Y-130292455D01*
X122747544Y-130292452D01*
X122632335Y-130206206D01*
X122632328Y-130206202D01*
X122497482Y-130155908D01*
X122497483Y-130155908D01*
X122437883Y-130149501D01*
X122437881Y-130149500D01*
X122437873Y-130149500D01*
X122437864Y-130149500D01*
X120642129Y-130149500D01*
X120642123Y-130149501D01*
X120582516Y-130155908D01*
X120447671Y-130206202D01*
X120447664Y-130206206D01*
X120332455Y-130292452D01*
X120332452Y-130292455D01*
X120246206Y-130407664D01*
X120246203Y-130407669D01*
X120197189Y-130539083D01*
X120155317Y-130595016D01*
X120089853Y-130619433D01*
X120021580Y-130604581D01*
X119993326Y-130583430D01*
X119879786Y-130469890D01*
X119707820Y-130344951D01*
X119518414Y-130248444D01*
X119518413Y-130248443D01*
X119518412Y-130248443D01*
X119316243Y-130182754D01*
X119316241Y-130182753D01*
X119316240Y-130182753D01*
X119154957Y-130157208D01*
X119106287Y-130149500D01*
X118893713Y-130149500D01*
X118845042Y-130157208D01*
X118683760Y-130182753D01*
X118481585Y-130248444D01*
X118292179Y-130344951D01*
X118120213Y-130469890D01*
X117969890Y-130620213D01*
X117844949Y-130792182D01*
X117840484Y-130800946D01*
X117792509Y-130851742D01*
X117724688Y-130868536D01*
X117658553Y-130845998D01*
X117619516Y-130800946D01*
X117615050Y-130792182D01*
X117490109Y-130620213D01*
X117339786Y-130469890D01*
X117167820Y-130344951D01*
X116978414Y-130248444D01*
X116978413Y-130248443D01*
X116978412Y-130248443D01*
X116776243Y-130182754D01*
X116776241Y-130182753D01*
X116776240Y-130182753D01*
X116614957Y-130157208D01*
X116566287Y-130149500D01*
X116353713Y-130149500D01*
X116305042Y-130157208D01*
X116143760Y-130182753D01*
X115941585Y-130248444D01*
X115752179Y-130344951D01*
X115580213Y-130469890D01*
X115429890Y-130620213D01*
X115304949Y-130792182D01*
X115300202Y-130801499D01*
X115252227Y-130852293D01*
X115184405Y-130869087D01*
X115118271Y-130846548D01*
X115079234Y-130801495D01*
X115074626Y-130792452D01*
X115035270Y-130738282D01*
X115035269Y-130738282D01*
X114402962Y-131370590D01*
X114385925Y-131307007D01*
X114320099Y-131192993D01*
X114227007Y-131099901D01*
X114112993Y-131034075D01*
X114049409Y-131017037D01*
X114681716Y-130384728D01*
X114627550Y-130345375D01*
X114438217Y-130248904D01*
X114236129Y-130183242D01*
X114026246Y-130150000D01*
X113813754Y-130150000D01*
X113603872Y-130183242D01*
X113603869Y-130183242D01*
X113401782Y-130248904D01*
X113212439Y-130345380D01*
X113158282Y-130384727D01*
X113158282Y-130384728D01*
X113790591Y-131017037D01*
X113727007Y-131034075D01*
X113612993Y-131099901D01*
X113519901Y-131192993D01*
X113454075Y-131307007D01*
X113437037Y-131370591D01*
X112804728Y-130738282D01*
X112804727Y-130738282D01*
X112765380Y-130792439D01*
X112668904Y-130981782D01*
X112603242Y-131183869D01*
X112603242Y-131183872D01*
X112570000Y-131393753D01*
X107751988Y-131393753D01*
X107743852Y-131374112D01*
X107629119Y-131175388D01*
X107629116Y-131175385D01*
X107629115Y-131175382D01*
X107489426Y-130993338D01*
X107489419Y-130993330D01*
X107327178Y-130831089D01*
X107327169Y-130831081D01*
X107145125Y-130691392D01*
X106946398Y-130576657D01*
X106946384Y-130576650D01*
X106873710Y-130546548D01*
X106734395Y-130488842D01*
X106512746Y-130429452D01*
X106474723Y-130424446D01*
X106285249Y-130399500D01*
X106285242Y-130399500D01*
X106055774Y-130399500D01*
X106055766Y-130399500D01*
X105839223Y-130428009D01*
X105828270Y-130429452D01*
X105770378Y-130444964D01*
X105606620Y-130488842D01*
X105394631Y-130576650D01*
X105394617Y-130576657D01*
X105195890Y-130691392D01*
X105013846Y-130831081D01*
X104851589Y-130993338D01*
X104711900Y-131175382D01*
X104597165Y-131374109D01*
X104597158Y-131374123D01*
X104509350Y-131586112D01*
X104449961Y-131807759D01*
X104449959Y-131807770D01*
X104420008Y-132035258D01*
X99961677Y-132035258D01*
X100067342Y-131873525D01*
X100070172Y-131869382D01*
X100583628Y-131150241D01*
X100586668Y-131146167D01*
X100622679Y-131099901D01*
X101129342Y-130448940D01*
X101132571Y-130444964D01*
X101164158Y-130407669D01*
X101703613Y-129770736D01*
X101706955Y-129766951D01*
X102305421Y-129116842D01*
X102308923Y-129113193D01*
X102933701Y-128488415D01*
X102937350Y-128484913D01*
X103587459Y-127886447D01*
X103591244Y-127883105D01*
X104265475Y-127312060D01*
X104269451Y-127308832D01*
X104418281Y-127192993D01*
X104966685Y-126766152D01*
X104970749Y-126763120D01*
X105196223Y-126602135D01*
X106374500Y-126602135D01*
X106374500Y-128397870D01*
X106374501Y-128397876D01*
X106380908Y-128457483D01*
X106431202Y-128592328D01*
X106431206Y-128592335D01*
X106517452Y-128707544D01*
X106517455Y-128707547D01*
X106632664Y-128793793D01*
X106632671Y-128793797D01*
X106767517Y-128844091D01*
X106767516Y-128844091D01*
X106774444Y-128844835D01*
X106827127Y-128850500D01*
X108622872Y-128850499D01*
X108682483Y-128844091D01*
X108817331Y-128793796D01*
X108932546Y-128707546D01*
X109018796Y-128592331D01*
X109069091Y-128457483D01*
X109075500Y-128397873D01*
X109075499Y-128373979D01*
X109078330Y-128360963D01*
X109088940Y-128341525D01*
X109095179Y-128320275D01*
X109111803Y-128299643D01*
X109111808Y-128299636D01*
X109111811Y-128299634D01*
X109111818Y-128299626D01*
X109782037Y-127629408D01*
X109799075Y-127692993D01*
X109864901Y-127807007D01*
X109957993Y-127900099D01*
X110072007Y-127965925D01*
X110135590Y-127982962D01*
X109503282Y-128615269D01*
X109503282Y-128615270D01*
X109557449Y-128654624D01*
X109746782Y-128751095D01*
X109948870Y-128816757D01*
X110158754Y-128850000D01*
X110371246Y-128850000D01*
X110581127Y-128816757D01*
X110581130Y-128816757D01*
X110783217Y-128751095D01*
X110972554Y-128654622D01*
X111026716Y-128615270D01*
X111026717Y-128615270D01*
X110394408Y-127982962D01*
X110457993Y-127965925D01*
X110572007Y-127900099D01*
X110665099Y-127807007D01*
X110730925Y-127692993D01*
X110747962Y-127629408D01*
X111380270Y-128261717D01*
X111380270Y-128261716D01*
X111419622Y-128207554D01*
X111516095Y-128018217D01*
X111581757Y-127816130D01*
X111581757Y-127816127D01*
X111600564Y-127697390D01*
X115017610Y-127697390D01*
X115017610Y-127909963D01*
X115043505Y-128073461D01*
X115050864Y-128119920D01*
X115109254Y-128299626D01*
X115116554Y-128322091D01*
X115213061Y-128511497D01*
X115338000Y-128683463D01*
X115488323Y-128833786D01*
X115660289Y-128958725D01*
X115660291Y-128958726D01*
X115660294Y-128958728D01*
X115849698Y-129055234D01*
X116051867Y-129120923D01*
X116261823Y-129154177D01*
X116261824Y-129154177D01*
X116474396Y-129154177D01*
X116474397Y-129154177D01*
X116684353Y-129120923D01*
X116886522Y-129055234D01*
X117075926Y-128958728D01*
X117111682Y-128932750D01*
X117247896Y-128833786D01*
X117247898Y-128833783D01*
X117247902Y-128833781D01*
X117398214Y-128683469D01*
X117398216Y-128683465D01*
X117398219Y-128683463D01*
X117523157Y-128511499D01*
X117523157Y-128511497D01*
X117523161Y-128511493D01*
X117524309Y-128509239D01*
X117524973Y-128508535D01*
X117525706Y-128507341D01*
X117525956Y-128507494D01*
X117572276Y-128458441D01*
X117640095Y-128441638D01*
X117706232Y-128464169D01*
X117745283Y-128509230D01*
X117753334Y-128525031D01*
X117792687Y-128579197D01*
X118424996Y-127946889D01*
X118442034Y-128010474D01*
X118507860Y-128124488D01*
X118600952Y-128217580D01*
X118714966Y-128283406D01*
X118778549Y-128300443D01*
X118146241Y-128932750D01*
X118146241Y-128932751D01*
X118200408Y-128972105D01*
X118389741Y-129068576D01*
X118591829Y-129134238D01*
X118801713Y-129167481D01*
X119014205Y-129167481D01*
X119224086Y-129134238D01*
X119224089Y-129134238D01*
X119426176Y-129068576D01*
X119615513Y-128972103D01*
X119669675Y-128932751D01*
X119669676Y-128932751D01*
X119037367Y-128300443D01*
X119100952Y-128283406D01*
X119214966Y-128217580D01*
X119308058Y-128124488D01*
X119373884Y-128010474D01*
X119390921Y-127946889D01*
X120038831Y-128594800D01*
X120048925Y-128596921D01*
X120098682Y-128645972D01*
X120113567Y-128692921D01*
X120115908Y-128714705D01*
X120166202Y-128849550D01*
X120166206Y-128849557D01*
X120252452Y-128964766D01*
X120252455Y-128964769D01*
X120367664Y-129051015D01*
X120367671Y-129051019D01*
X120502517Y-129101313D01*
X120502516Y-129101313D01*
X120509444Y-129102057D01*
X120562127Y-129107722D01*
X122357872Y-129107721D01*
X122417483Y-129101313D01*
X122552331Y-129051018D01*
X122667546Y-128964768D01*
X122753796Y-128849553D01*
X122802810Y-128718138D01*
X122844681Y-128662206D01*
X122910145Y-128637788D01*
X122978418Y-128652639D01*
X123006673Y-128673791D01*
X123120213Y-128787331D01*
X123292179Y-128912270D01*
X123292181Y-128912271D01*
X123292184Y-128912273D01*
X123481588Y-129008779D01*
X123683757Y-129074468D01*
X123893713Y-129107722D01*
X123893714Y-129107722D01*
X124106286Y-129107722D01*
X124106287Y-129107722D01*
X124316243Y-129074468D01*
X124518412Y-129008779D01*
X124707816Y-128912273D01*
X124792840Y-128850500D01*
X124879786Y-128787331D01*
X124879788Y-128787328D01*
X124879792Y-128787326D01*
X125030104Y-128637014D01*
X125030106Y-128637010D01*
X125030109Y-128637008D01*
X125155048Y-128465042D01*
X125155047Y-128465042D01*
X125155051Y-128465038D01*
X125159514Y-128456276D01*
X125207488Y-128405481D01*
X125275308Y-128388685D01*
X125341444Y-128411221D01*
X125380486Y-128456278D01*
X125384951Y-128465042D01*
X125509890Y-128637008D01*
X125660213Y-128787331D01*
X125832179Y-128912270D01*
X125832181Y-128912271D01*
X125832184Y-128912273D01*
X126021588Y-129008779D01*
X126223757Y-129074468D01*
X126433713Y-129107722D01*
X126433714Y-129107722D01*
X126646286Y-129107722D01*
X126646287Y-129107722D01*
X126856243Y-129074468D01*
X127058412Y-129008779D01*
X127247816Y-128912273D01*
X127332840Y-128850500D01*
X127419786Y-128787331D01*
X127419788Y-128787328D01*
X127419792Y-128787326D01*
X127570104Y-128637014D01*
X127570106Y-128637010D01*
X127570109Y-128637008D01*
X127695048Y-128465042D01*
X127695047Y-128465042D01*
X127695051Y-128465038D01*
X127699514Y-128456276D01*
X127747488Y-128405481D01*
X127815308Y-128388685D01*
X127881444Y-128411221D01*
X127920486Y-128456278D01*
X127924951Y-128465042D01*
X128049890Y-128637008D01*
X128200213Y-128787331D01*
X128372179Y-128912270D01*
X128372181Y-128912271D01*
X128372184Y-128912273D01*
X128561588Y-129008779D01*
X128763757Y-129074468D01*
X128973713Y-129107722D01*
X128973714Y-129107722D01*
X129186286Y-129107722D01*
X129186287Y-129107722D01*
X129396243Y-129074468D01*
X129598412Y-129008779D01*
X129787816Y-128912273D01*
X129872840Y-128850500D01*
X129959786Y-128787331D01*
X129959788Y-128787328D01*
X129959792Y-128787326D01*
X130110104Y-128637014D01*
X130110106Y-128637010D01*
X130110109Y-128637008D01*
X130235048Y-128465042D01*
X130235047Y-128465042D01*
X130235051Y-128465038D01*
X130331557Y-128275634D01*
X130397246Y-128073465D01*
X130430500Y-127863509D01*
X130430500Y-127650935D01*
X130397246Y-127440979D01*
X130331557Y-127238810D01*
X130235051Y-127049406D01*
X130235049Y-127049403D01*
X130235048Y-127049401D01*
X130110109Y-126877435D01*
X129959786Y-126727112D01*
X129787820Y-126602173D01*
X129598414Y-126505666D01*
X129598413Y-126505665D01*
X129598412Y-126505665D01*
X129396243Y-126439976D01*
X129396241Y-126439975D01*
X129396240Y-126439975D01*
X129234957Y-126414430D01*
X129186287Y-126406722D01*
X128973713Y-126406722D01*
X128925042Y-126414430D01*
X128763760Y-126439975D01*
X128561585Y-126505666D01*
X128372179Y-126602173D01*
X128200213Y-126727112D01*
X128049890Y-126877435D01*
X127924949Y-127049404D01*
X127920484Y-127058168D01*
X127872509Y-127108964D01*
X127804688Y-127125758D01*
X127738553Y-127103220D01*
X127699516Y-127058168D01*
X127695050Y-127049404D01*
X127570109Y-126877435D01*
X127419786Y-126727112D01*
X127247820Y-126602173D01*
X127058414Y-126505666D01*
X127058413Y-126505665D01*
X127058412Y-126505665D01*
X126856243Y-126439976D01*
X126856241Y-126439975D01*
X126856240Y-126439975D01*
X126694957Y-126414430D01*
X126646287Y-126406722D01*
X126433713Y-126406722D01*
X126385042Y-126414430D01*
X126223760Y-126439975D01*
X126021585Y-126505666D01*
X125832179Y-126602173D01*
X125660213Y-126727112D01*
X125509890Y-126877435D01*
X125384949Y-127049404D01*
X125380484Y-127058168D01*
X125332509Y-127108964D01*
X125264688Y-127125758D01*
X125198553Y-127103220D01*
X125159516Y-127058168D01*
X125155050Y-127049404D01*
X125030109Y-126877435D01*
X124879786Y-126727112D01*
X124707820Y-126602173D01*
X124518414Y-126505666D01*
X124518413Y-126505665D01*
X124518412Y-126505665D01*
X124316243Y-126439976D01*
X124316241Y-126439975D01*
X124316240Y-126439975D01*
X124154957Y-126414430D01*
X124106287Y-126406722D01*
X123893713Y-126406722D01*
X123845042Y-126414430D01*
X123683760Y-126439975D01*
X123481585Y-126505666D01*
X123292179Y-126602173D01*
X123120215Y-126727111D01*
X123006673Y-126840653D01*
X122945350Y-126874137D01*
X122875658Y-126869153D01*
X122819725Y-126827281D01*
X122802810Y-126796304D01*
X122753797Y-126664893D01*
X122753793Y-126664886D01*
X122667547Y-126549677D01*
X122667544Y-126549674D01*
X122552335Y-126463428D01*
X122552328Y-126463424D01*
X122417482Y-126413130D01*
X122417483Y-126413130D01*
X122357883Y-126406723D01*
X122357881Y-126406722D01*
X122357873Y-126406722D01*
X122357864Y-126406722D01*
X120562129Y-126406722D01*
X120562123Y-126406723D01*
X120502516Y-126413130D01*
X120367671Y-126463424D01*
X120367664Y-126463428D01*
X120252455Y-126549674D01*
X120252452Y-126549677D01*
X120166206Y-126664886D01*
X120166202Y-126664893D01*
X120115908Y-126799739D01*
X120109501Y-126859338D01*
X120109500Y-126859357D01*
X120109500Y-126928410D01*
X120089815Y-126995449D01*
X120042831Y-127036160D01*
X119390921Y-127688071D01*
X119373884Y-127624488D01*
X119308058Y-127510474D01*
X119214966Y-127417382D01*
X119100952Y-127351556D01*
X119037368Y-127334518D01*
X119669675Y-126702209D01*
X119615509Y-126662856D01*
X119426176Y-126566385D01*
X119224088Y-126500723D01*
X119014205Y-126467481D01*
X118801713Y-126467481D01*
X118591831Y-126500723D01*
X118591828Y-126500723D01*
X118389741Y-126566385D01*
X118200398Y-126662861D01*
X118146241Y-126702208D01*
X118146241Y-126702209D01*
X118778550Y-127334518D01*
X118714966Y-127351556D01*
X118600952Y-127417382D01*
X118507860Y-127510474D01*
X118442034Y-127624488D01*
X118424996Y-127688072D01*
X117792687Y-127055763D01*
X117792686Y-127055763D01*
X117753339Y-127109921D01*
X117753338Y-127109922D01*
X117752313Y-127111935D01*
X117751722Y-127112559D01*
X117750797Y-127114071D01*
X117750479Y-127113876D01*
X117704334Y-127162728D01*
X117636512Y-127179518D01*
X117570379Y-127156975D01*
X117531347Y-127111927D01*
X117529837Y-127108964D01*
X117523161Y-127095861D01*
X117495776Y-127058168D01*
X117398219Y-126923890D01*
X117247896Y-126773567D01*
X117075930Y-126648628D01*
X116886524Y-126552121D01*
X116886523Y-126552120D01*
X116886522Y-126552120D01*
X116684353Y-126486431D01*
X116684351Y-126486430D01*
X116684350Y-126486430D01*
X116523067Y-126460885D01*
X116474397Y-126453177D01*
X116261823Y-126453177D01*
X116213152Y-126460885D01*
X116051870Y-126486430D01*
X115849695Y-126552121D01*
X115660289Y-126648628D01*
X115488323Y-126773567D01*
X115338000Y-126923890D01*
X115213061Y-127095856D01*
X115116554Y-127285262D01*
X115050863Y-127487437D01*
X115017610Y-127697390D01*
X111600564Y-127697390D01*
X111604408Y-127673120D01*
X111615000Y-127606245D01*
X111615000Y-127393753D01*
X111581757Y-127183872D01*
X111581757Y-127183869D01*
X111516095Y-126981782D01*
X111419624Y-126792449D01*
X111380270Y-126738282D01*
X111380269Y-126738282D01*
X110747962Y-127370590D01*
X110730925Y-127307007D01*
X110665099Y-127192993D01*
X110572007Y-127099901D01*
X110457993Y-127034075D01*
X110394409Y-127017037D01*
X111026716Y-126384728D01*
X110972550Y-126345375D01*
X110783217Y-126248904D01*
X110581129Y-126183242D01*
X110371246Y-126150000D01*
X110158754Y-126150000D01*
X109948872Y-126183242D01*
X109948869Y-126183242D01*
X109746782Y-126248904D01*
X109557439Y-126345380D01*
X109503282Y-126384727D01*
X109503282Y-126384728D01*
X110135591Y-127017037D01*
X110072007Y-127034075D01*
X109957993Y-127099901D01*
X109864901Y-127192993D01*
X109799075Y-127307007D01*
X109782037Y-127370591D01*
X109111818Y-126700372D01*
X109078333Y-126639049D01*
X109078330Y-126639036D01*
X109075499Y-126626015D01*
X109075499Y-126602128D01*
X109069091Y-126542517D01*
X109039592Y-126463426D01*
X109018798Y-126407673D01*
X109018793Y-126407664D01*
X108932547Y-126292455D01*
X108932544Y-126292452D01*
X108817335Y-126206206D01*
X108817328Y-126206202D01*
X108682482Y-126155908D01*
X108682483Y-126155908D01*
X108622883Y-126149501D01*
X108622881Y-126149500D01*
X108622873Y-126149500D01*
X108622864Y-126149500D01*
X106827129Y-126149500D01*
X106827123Y-126149501D01*
X106767516Y-126155908D01*
X106632671Y-126206202D01*
X106632664Y-126206206D01*
X106517455Y-126292452D01*
X106517452Y-126292455D01*
X106431206Y-126407664D01*
X106431202Y-126407671D01*
X106380908Y-126542517D01*
X106374501Y-126602116D01*
X106374500Y-126602135D01*
X105196223Y-126602135D01*
X105689890Y-126249664D01*
X105694011Y-126246849D01*
X106433765Y-125763543D01*
X106438063Y-125760860D01*
X107197106Y-125308569D01*
X107201517Y-125306062D01*
X107978663Y-124885492D01*
X107983064Y-124883227D01*
X108776930Y-124495129D01*
X108781532Y-124492997D01*
X109590699Y-124138063D01*
X109595364Y-124136131D01*
X110418489Y-123814947D01*
X110423285Y-123813188D01*
X111258983Y-123526293D01*
X111263785Y-123524754D01*
X112110637Y-123272635D01*
X112115556Y-123271280D01*
X112972094Y-123054376D01*
X112977039Y-123053232D01*
X113841806Y-122871909D01*
X113846797Y-122870970D01*
X114718308Y-122725540D01*
X114723365Y-122724803D01*
X115600181Y-122615509D01*
X115605186Y-122614990D01*
X116485741Y-122542026D01*
X116490822Y-122541710D01*
X116499184Y-122541365D01*
X116566979Y-122558264D01*
X116614876Y-122609133D01*
X116627667Y-122677822D01*
X116601292Y-122742522D01*
X116591987Y-122752940D01*
X116501589Y-122843338D01*
X116361900Y-123025382D01*
X116247165Y-123224109D01*
X116247158Y-123224123D01*
X116159350Y-123436112D01*
X116099961Y-123657759D01*
X116099959Y-123657770D01*
X116070008Y-123885258D01*
X116070008Y-124114741D01*
X116094954Y-124304215D01*
X116099960Y-124342238D01*
X116124218Y-124432771D01*
X116159350Y-124563887D01*
X116247158Y-124775876D01*
X116247165Y-124775890D01*
X116361900Y-124974617D01*
X116501589Y-125156661D01*
X116501597Y-125156670D01*
X116663838Y-125318911D01*
X116663846Y-125318918D01*
X116845890Y-125458607D01*
X116845893Y-125458608D01*
X116845896Y-125458611D01*
X117044620Y-125573344D01*
X117044625Y-125573346D01*
X117044631Y-125573349D01*
X117135988Y-125611190D01*
X117256621Y-125661158D01*
X117478270Y-125720548D01*
X117705774Y-125750500D01*
X117705781Y-125750500D01*
X117935235Y-125750500D01*
X117935242Y-125750500D01*
X118162746Y-125720548D01*
X118384395Y-125661158D01*
X118596396Y-125573344D01*
X118795120Y-125458611D01*
X118977169Y-125318919D01*
X118977173Y-125318914D01*
X118977178Y-125318911D01*
X119139419Y-125156670D01*
X119139422Y-125156665D01*
X119139427Y-125156661D01*
X119279119Y-124974612D01*
X119393852Y-124775888D01*
X119481666Y-124563887D01*
X119541056Y-124342238D01*
X119571008Y-124114734D01*
X119571008Y-123885266D01*
X119541056Y-123657762D01*
X119481666Y-123436113D01*
X119413389Y-123271278D01*
X119393857Y-123224123D01*
X119393854Y-123224117D01*
X119393852Y-123224112D01*
X119279119Y-123025388D01*
X119279116Y-123025385D01*
X119279115Y-123025382D01*
X119178272Y-122893962D01*
X119139427Y-122843339D01*
X119139426Y-122843338D01*
X119139419Y-122843330D01*
X119049029Y-122752940D01*
X119015544Y-122691617D01*
X119020528Y-122621925D01*
X119062400Y-122565992D01*
X119127864Y-122541575D01*
X119141829Y-122541365D01*
X119150190Y-122541710D01*
G37*
%TD.AperFunction*%
%TD*%
M02*
