M48
; DRILL file KiCad 10.0.4 date 2026-07-07T22:16:02
; FORMAT={-:-/ absolute / metric / decimal}
; #@! TF.CreationDate,2026-07-07T22:16:02+02:00
; #@! TF.GenerationSoftware,Kicad,Pcbnew,10.0.4
; #@! TF.FileFunction,Plated,1,4,PTH
FMAT,2
METRIC
; #@! TA.AperFunction,Plated,PTH,ViaDrill
T1C0.300
; #@! TA.AperFunction,Plated,PTH,ComponentDrill
T2C1.000
%
G90
G05
T1
X100.0Y-147.0
X104.675Y-150.122
X107.84Y-160.366
X111.0Y-141.5
X112.0Y-143.0
X112.667Y-144.629
X113.05Y-153.5
X115.0Y-141.5
X115.5Y-149.0
X116.0Y-136.5
X116.0Y-139.5
X116.841Y-145.189
X117.0Y-140.5
X119.427Y-150.482
X120.6Y-146.0
X122.0Y-147.5
X122.264Y-136.948
X124.864Y-136.985
X124.868Y-141.557
X125.0Y-140.0
X127.368Y-141.557
X127.374Y-136.966
X128.053Y-150.631
X128.5Y-148.5
X129.865Y-136.966
T2
X104.753Y-139.629
X104.883Y-145.354
X107.725Y-127.5
X110.265Y-127.5
X112.089Y-162.155
X113.92Y-131.5
X114.744Y-162.115
X116.368Y-127.804
X116.46Y-131.5
X117.284Y-162.115
X118.908Y-127.817
X119.0Y-131.5
X119.824Y-162.115
X121.46Y-127.757
X121.54Y-131.5
X122.364Y-162.115
X124.0Y-127.757
X126.54Y-127.757
X129.08Y-127.757
X133.469Y-140.923
X133.469Y-143.463
X133.469Y-146.003
X137.0Y-140.92
X137.0Y-143.46
X137.0Y-146.0
M30
